G04 #@! TF.GenerationSoftware,KiCad,Pcbnew,8.0.8*
G04 #@! TF.CreationDate,2026-01-14T14:22:45+11:00*
G04 #@! TF.ProjectId,robotv1,726f626f-7476-4312-9e6b-696361645f70,2*
G04 #@! TF.SameCoordinates,Original*
G04 #@! TF.FileFunction,Copper,L1,Top*
G04 #@! TF.FilePolarity,Positive*
%FSLAX46Y46*%
G04 Gerber Fmt 4.6, Leading zero omitted, Abs format (unit mm)*
G04 Created by KiCad (PCBNEW 8.0.8) date 2026-01-14 14:22:45*
%MOMM*%
%LPD*%
G01*
G04 APERTURE LIST*
G04 Aperture macros list*
%AMRoundRect*
0 Rectangle with rounded corners*
0 $1 Rounding radius*
0 $2 $3 $4 $5 $6 $7 $8 $9 X,Y pos of 4 corners*
0 Add a 4 corners polygon primitive as box body*
4,1,4,$2,$3,$4,$5,$6,$7,$8,$9,$2,$3,0*
0 Add four circle primitives for the rounded corners*
1,1,$1+$1,$2,$3*
1,1,$1+$1,$4,$5*
1,1,$1+$1,$6,$7*
1,1,$1+$1,$8,$9*
0 Add four rect primitives between the rounded corners*
20,1,$1+$1,$2,$3,$4,$5,0*
20,1,$1+$1,$4,$5,$6,$7,0*
20,1,$1+$1,$6,$7,$8,$9,0*
20,1,$1+$1,$8,$9,$2,$3,0*%
G04 Aperture macros list end*
G04 #@! TA.AperFunction,SMDPad,CuDef*
%ADD10RoundRect,0.225000X-0.225000X-0.250000X0.225000X-0.250000X0.225000X0.250000X-0.225000X0.250000X0*%
G04 #@! TD*
G04 #@! TA.AperFunction,ComponentPad*
%ADD11R,1.700000X1.700000*%
G04 #@! TD*
G04 #@! TA.AperFunction,ComponentPad*
%ADD12O,1.700000X1.700000*%
G04 #@! TD*
G04 #@! TA.AperFunction,SMDPad,CuDef*
%ADD13RoundRect,0.200000X0.275000X-0.200000X0.275000X0.200000X-0.275000X0.200000X-0.275000X-0.200000X0*%
G04 #@! TD*
G04 #@! TA.AperFunction,SMDPad,CuDef*
%ADD14RoundRect,0.250000X0.650000X-0.325000X0.650000X0.325000X-0.650000X0.325000X-0.650000X-0.325000X0*%
G04 #@! TD*
G04 #@! TA.AperFunction,SMDPad,CuDef*
%ADD15R,0.300000X1.400000*%
G04 #@! TD*
G04 #@! TA.AperFunction,SMDPad,CuDef*
%ADD16R,0.500000X1.400000*%
G04 #@! TD*
G04 #@! TA.AperFunction,ComponentPad*
%ADD17O,1.300000X2.300000*%
G04 #@! TD*
G04 #@! TA.AperFunction,ComponentPad*
%ADD18O,1.300000X2.100000*%
G04 #@! TD*
G04 #@! TA.AperFunction,ComponentPad*
%ADD19C,0.500000*%
G04 #@! TD*
G04 #@! TA.AperFunction,SMDPad,CuDef*
%ADD20RoundRect,0.500000X-2.000000X-1.000000X2.000000X-1.000000X2.000000X1.000000X-2.000000X1.000000X0*%
G04 #@! TD*
G04 #@! TA.AperFunction,SMDPad,CuDef*
%ADD21RoundRect,0.225000X0.375000X-0.225000X0.375000X0.225000X-0.375000X0.225000X-0.375000X-0.225000X0*%
G04 #@! TD*
G04 #@! TA.AperFunction,SMDPad,CuDef*
%ADD22RoundRect,0.250000X0.312500X1.450000X-0.312500X1.450000X-0.312500X-1.450000X0.312500X-1.450000X0*%
G04 #@! TD*
G04 #@! TA.AperFunction,SMDPad,CuDef*
%ADD23RoundRect,0.250000X-0.650000X0.325000X-0.650000X-0.325000X0.650000X-0.325000X0.650000X0.325000X0*%
G04 #@! TD*
G04 #@! TA.AperFunction,SMDPad,CuDef*
%ADD24RoundRect,0.242500X0.242500X0.457500X-0.242500X0.457500X-0.242500X-0.457500X0.242500X-0.457500X0*%
G04 #@! TD*
G04 #@! TA.AperFunction,SMDPad,CuDef*
%ADD25R,3.400000X1.300000*%
G04 #@! TD*
G04 #@! TA.AperFunction,SMDPad,CuDef*
%ADD26RoundRect,0.140000X-0.170000X0.140000X-0.170000X-0.140000X0.170000X-0.140000X0.170000X0.140000X0*%
G04 #@! TD*
G04 #@! TA.AperFunction,SMDPad,CuDef*
%ADD27C,1.500000*%
G04 #@! TD*
G04 #@! TA.AperFunction,SMDPad,CuDef*
%ADD28RoundRect,0.242500X0.457500X-0.242500X0.457500X0.242500X-0.457500X0.242500X-0.457500X-0.242500X0*%
G04 #@! TD*
G04 #@! TA.AperFunction,SMDPad,CuDef*
%ADD29RoundRect,0.250000X0.250000X0.475000X-0.250000X0.475000X-0.250000X-0.475000X0.250000X-0.475000X0*%
G04 #@! TD*
G04 #@! TA.AperFunction,ComponentPad*
%ADD30R,1.600000X1.600000*%
G04 #@! TD*
G04 #@! TA.AperFunction,ComponentPad*
%ADD31O,1.600000X1.600000*%
G04 #@! TD*
G04 #@! TA.AperFunction,SMDPad,CuDef*
%ADD32R,1.900000X5.100000*%
G04 #@! TD*
G04 #@! TA.AperFunction,SMDPad,CuDef*
%ADD33RoundRect,0.248780X-0.451220X0.261220X-0.451220X-0.261220X0.451220X-0.261220X0.451220X0.261220X0*%
G04 #@! TD*
G04 #@! TA.AperFunction,SMDPad,CuDef*
%ADD34RoundRect,0.250000X0.425000X0.650000X-0.425000X0.650000X-0.425000X-0.650000X0.425000X-0.650000X0*%
G04 #@! TD*
G04 #@! TA.AperFunction,SMDPad,CuDef*
%ADD35RoundRect,0.140000X0.170000X-0.140000X0.170000X0.140000X-0.170000X0.140000X-0.170000X-0.140000X0*%
G04 #@! TD*
G04 #@! TA.AperFunction,SMDPad,CuDef*
%ADD36RoundRect,0.100000X-0.100000X0.130000X-0.100000X-0.130000X0.100000X-0.130000X0.100000X0.130000X0*%
G04 #@! TD*
G04 #@! TA.AperFunction,SMDPad,CuDef*
%ADD37RoundRect,0.220000X0.220000X0.255000X-0.220000X0.255000X-0.220000X-0.255000X0.220000X-0.255000X0*%
G04 #@! TD*
G04 #@! TA.AperFunction,SMDPad,CuDef*
%ADD38RoundRect,0.073750X0.221250X-0.651250X0.221250X0.651250X-0.221250X0.651250X-0.221250X-0.651250X0*%
G04 #@! TD*
G04 #@! TA.AperFunction,ComponentPad*
%ADD39C,1.308000*%
G04 #@! TD*
G04 #@! TA.AperFunction,SMDPad,CuDef*
%ADD40RoundRect,0.140000X0.140000X0.170000X-0.140000X0.170000X-0.140000X-0.170000X0.140000X-0.170000X0*%
G04 #@! TD*
G04 #@! TA.AperFunction,ComponentPad*
%ADD41R,2.600000X2.600000*%
G04 #@! TD*
G04 #@! TA.AperFunction,ComponentPad*
%ADD42C,2.600000*%
G04 #@! TD*
G04 #@! TA.AperFunction,SMDPad,CuDef*
%ADD43RoundRect,0.250000X0.550000X-0.300000X0.550000X0.300000X-0.550000X0.300000X-0.550000X-0.300000X0*%
G04 #@! TD*
G04 #@! TA.AperFunction,ComponentPad*
%ADD44C,0.600000*%
G04 #@! TD*
G04 #@! TA.AperFunction,ComponentPad*
%ADD45C,5.000000*%
G04 #@! TD*
G04 #@! TA.AperFunction,SMDPad,CuDef*
%ADD46RoundRect,0.200000X-0.200000X-0.275000X0.200000X-0.275000X0.200000X0.275000X-0.200000X0.275000X0*%
G04 #@! TD*
G04 #@! TA.AperFunction,SMDPad,CuDef*
%ADD47R,1.498600X4.597400*%
G04 #@! TD*
G04 #@! TA.AperFunction,SMDPad,CuDef*
%ADD48RoundRect,0.250000X0.325000X1.100000X-0.325000X1.100000X-0.325000X-1.100000X0.325000X-1.100000X0*%
G04 #@! TD*
G04 #@! TA.AperFunction,SMDPad,CuDef*
%ADD49R,1.600200X0.558800*%
G04 #@! TD*
G04 #@! TA.AperFunction,ComponentPad*
%ADD50C,1.905000*%
G04 #@! TD*
G04 #@! TA.AperFunction,ComponentPad*
%ADD51R,2.794000X2.032000*%
G04 #@! TD*
G04 #@! TA.AperFunction,ComponentPad*
%ADD52R,2.540000X1.270000*%
G04 #@! TD*
G04 #@! TA.AperFunction,ComponentPad*
%ADD53R,1.270000X2.540000*%
G04 #@! TD*
G04 #@! TA.AperFunction,ComponentPad*
%ADD54C,1.600000*%
G04 #@! TD*
G04 #@! TA.AperFunction,SMDPad,CuDef*
%ADD55RoundRect,0.250000X1.000000X-1.400000X1.000000X1.400000X-1.000000X1.400000X-1.000000X-1.400000X0*%
G04 #@! TD*
G04 #@! TA.AperFunction,SMDPad,CuDef*
%ADD56RoundRect,0.150000X-0.512500X-0.150000X0.512500X-0.150000X0.512500X0.150000X-0.512500X0.150000X0*%
G04 #@! TD*
G04 #@! TA.AperFunction,SMDPad,CuDef*
%ADD57RoundRect,0.250000X-0.475000X0.250000X-0.475000X-0.250000X0.475000X-0.250000X0.475000X0.250000X0*%
G04 #@! TD*
G04 #@! TA.AperFunction,ComponentPad*
%ADD58C,1.701800*%
G04 #@! TD*
G04 #@! TA.AperFunction,ViaPad*
%ADD59C,0.600000*%
G04 #@! TD*
G04 #@! TA.AperFunction,Conductor*
%ADD60C,0.800000*%
G04 #@! TD*
G04 #@! TA.AperFunction,Conductor*
%ADD61C,0.200000*%
G04 #@! TD*
G04 #@! TA.AperFunction,Conductor*
%ADD62C,0.250000*%
G04 #@! TD*
G04 #@! TA.AperFunction,Conductor*
%ADD63C,2.000000*%
G04 #@! TD*
G04 #@! TA.AperFunction,Conductor*
%ADD64C,4.000000*%
G04 #@! TD*
G04 APERTURE END LIST*
D10*
G04 #@! TO.P,C5,1*
G04 #@! TO.N,5V_RAW*
X60815000Y31650000D03*
G04 #@! TO.P,C5,2*
G04 #@! TO.N,GND*
X62375000Y31650000D03*
G04 #@! TD*
D11*
G04 #@! TO.P,J7,1,Pin_1*
G04 #@! TO.N,GND*
X32695000Y58630000D03*
D12*
G04 #@! TO.P,J7,2,Pin_2*
G04 #@! TO.N,/PWR_SCK*
X32695000Y56090000D03*
G04 #@! TO.P,J7,3,Pin_3*
G04 #@! TO.N,/PWR_MISO*
X32695000Y53550000D03*
G04 #@! TO.P,J7,4,Pin_4*
G04 #@! TO.N,/PWR_MOSI*
X32695000Y51010000D03*
G04 #@! TD*
D13*
G04 #@! TO.P,RL3,1*
G04 #@! TO.N,VSS*
X25235000Y68080000D03*
G04 #@! TO.P,RL3,2*
G04 #@! TO.N,Net-(J6-Pin_4)*
X25235000Y69720000D03*
G04 #@! TD*
D14*
G04 #@! TO.P,C13,1*
G04 #@! TO.N,GND*
X40095000Y40660000D03*
G04 #@! TO.P,C13,2*
G04 #@! TO.N,VCC*
X40095000Y43620000D03*
G04 #@! TD*
D13*
G04 #@! TO.P,RL2,1*
G04 #@! TO.N,VSS*
X25235000Y73200000D03*
G04 #@! TO.P,RL2,2*
G04 #@! TO.N,Net-(J6-Pin_3)*
X25235000Y74840000D03*
G04 #@! TD*
D15*
G04 #@! TO.P,J10,A5,CC1*
G04 #@! TO.N,Net-(J10-CC1)*
X57120000Y7390000D03*
G04 #@! TO.P,J10,A6,D+*
G04 #@! TO.N,unconnected-(J10-D+-PadA6)*
X58120000Y7390000D03*
G04 #@! TO.P,J10,A7,D-*
G04 #@! TO.N,unconnected-(J10-D--PadA7)*
X58620000Y7390000D03*
G04 #@! TO.P,J10,A8,SBU1*
G04 #@! TO.N,unconnected-(J10-SBU1-PadA8)*
X59620000Y7390000D03*
D16*
G04 #@! TO.P,J10,A9B4,VBUS*
G04 #@! TO.N,USB_5V_POUR*
X60770000Y7390000D03*
G04 #@! TO.P,J10,A12B1,GND*
G04 #@! TO.N,GND*
X61570000Y7390000D03*
D15*
G04 #@! TO.P,J10,B5,CC2*
G04 #@! TO.N,Net-(J10-CC2)*
X60120000Y7390000D03*
G04 #@! TO.P,J10,B6,D+*
G04 #@! TO.N,unconnected-(J10-D+-PadB6)*
X59120000Y7390000D03*
G04 #@! TO.P,J10,B7,D-*
G04 #@! TO.N,unconnected-(J10-D--PadB7)*
X57620000Y7390000D03*
G04 #@! TO.P,J10,B8,SBU2*
G04 #@! TO.N,unconnected-(J10-SBU2-PadB8)*
X56620000Y7390000D03*
D16*
G04 #@! TO.P,J10,B9A4,VBUS*
G04 #@! TO.N,USB_5V_POUR*
X55970000Y7390000D03*
G04 #@! TO.P,J10,B12A1,GND*
G04 #@! TO.N,GND*
X55170000Y7390000D03*
D17*
G04 #@! TO.P,J10,S1,SHIELD*
G04 #@! TO.N,Net-(J10-SHIELD)*
X54040000Y6710000D03*
D18*
X54040000Y2510000D03*
D19*
X56370000Y3890000D03*
X56370000Y1890000D03*
D20*
X58370000Y2890000D03*
D19*
X60370000Y3890000D03*
X60370000Y1890000D03*
D17*
X62700000Y6710000D03*
D18*
X62700000Y2510000D03*
G04 #@! TD*
D21*
G04 #@! TO.P,D6,1*
G04 #@! TO.N,Net-(J9-Pin_2)*
X68920000Y18640000D03*
G04 #@! TO.P,D6,2*
G04 #@! TO.N,+5VA*
X68920000Y21940000D03*
G04 #@! TD*
D10*
G04 #@! TO.P,C8,1*
G04 #@! TO.N,GND*
X57595000Y48390000D03*
G04 #@! TO.P,C8,2*
G04 #@! TO.N,VSS*
X59155000Y48390000D03*
G04 #@! TD*
G04 #@! TO.P,C3,1*
G04 #@! TO.N,5V_RAW*
X60815000Y34650000D03*
G04 #@! TO.P,C3,2*
G04 #@! TO.N,GND*
X62375000Y34650000D03*
G04 #@! TD*
D13*
G04 #@! TO.P,RL5,1*
G04 #@! TO.N,VSS*
X25295000Y54490000D03*
G04 #@! TO.P,RL5,2*
G04 #@! TO.N,/PWR_SCK*
X25295000Y56130000D03*
G04 #@! TD*
D22*
G04 #@! TO.P,F4,1*
G04 #@! TO.N,Net-(C6-Pad1)*
X34932500Y35790000D03*
G04 #@! TO.P,F4,2*
G04 #@! TO.N,VSS*
X30657500Y35790000D03*
G04 #@! TD*
D23*
G04 #@! TO.P,C1,1*
G04 #@! TO.N,Net-(J4-Pin_1)*
X88248500Y42810000D03*
G04 #@! TO.P,C1,2*
G04 #@! TO.N,Net-(J4-Pin_2)*
X88248500Y39850000D03*
G04 #@! TD*
D24*
G04 #@! TO.P,D4,1*
G04 #@! TO.N,Net-(D3-Pad1)*
X78285000Y15640000D03*
G04 #@! TO.P,D4,2*
G04 #@! TO.N,+5VA*
X76405000Y15640000D03*
G04 #@! TD*
D25*
G04 #@! TO.P,L2,1*
G04 #@! TO.N,Net-(C6-Pad1)*
X36295000Y42365000D03*
G04 #@! TO.P,L2,2*
G04 #@! TO.N,3V3_SW*
X36295000Y44465000D03*
G04 #@! TD*
D26*
G04 #@! TO.P,R8,1*
G04 #@! TO.N,Net-(C6-Pad1)*
X47845000Y48140000D03*
G04 #@! TO.P,R8,2*
G04 #@! TO.N,Net-(U1-FB)*
X47845000Y47140000D03*
G04 #@! TD*
D27*
G04 #@! TO.P,TP1,1,1*
G04 #@! TO.N,Net-(U4-VFB)*
X59220000Y39765000D03*
G04 #@! TD*
D11*
G04 #@! TO.P,J9,1,Pin_1*
G04 #@! TO.N,PIN_5V_POUR*
X71395000Y16040000D03*
D12*
G04 #@! TO.P,J9,2,Pin_2*
G04 #@! TO.N,Net-(J9-Pin_2)*
X68855000Y16040000D03*
G04 #@! TO.P,J9,3,Pin_3*
G04 #@! TO.N,USB_5V_POUR*
X66315000Y16040000D03*
G04 #@! TD*
D28*
G04 #@! TO.P,D7,1*
G04 #@! TO.N,Net-(D7-Pad1)*
X33345000Y8450000D03*
G04 #@! TO.P,D7,2*
G04 #@! TO.N,Net-(A1-D2)*
X33345000Y10330000D03*
G04 #@! TD*
D11*
G04 #@! TO.P,J2,1,Pin_1*
G04 #@! TO.N,GND*
X91945000Y51815000D03*
D12*
G04 #@! TO.P,J2,2,Pin_2*
G04 #@! TO.N,Net-(J14-Pin_2)*
X91945000Y49275000D03*
G04 #@! TO.P,J2,3,Pin_3*
G04 #@! TO.N,Net-(J14-Pin_3)*
X91945000Y46735000D03*
G04 #@! TO.P,J2,4,Pin_4*
G04 #@! TO.N,Net-(J14-Pin_4)*
X91945000Y44195000D03*
G04 #@! TO.P,J2,5,Pin_5*
G04 #@! TO.N,Vdrive*
X91945000Y41655000D03*
G04 #@! TO.P,J2,6,Pin_6*
G04 #@! TO.N,Net-(J14-Pin_6)*
X91945000Y39115000D03*
G04 #@! TO.P,J2,7,Pin_7*
G04 #@! TO.N,Net-(J14-Pin_7)*
X91945000Y36575000D03*
G04 #@! TO.P,J2,8,Pin_8*
G04 #@! TO.N,Net-(J14-Pin_8)*
X91945000Y34035000D03*
G04 #@! TD*
D27*
G04 #@! TO.P,TP3,1,1*
G04 #@! TO.N,5V_RAW*
X62970000Y39640000D03*
G04 #@! TD*
D11*
G04 #@! TO.P,J5,1,Pin_1*
G04 #@! TO.N,Net-(J5-Pin_1)*
X3655000Y53680000D03*
D12*
G04 #@! TO.P,J5,2,Pin_2*
G04 #@! TO.N,Net-(J5-Pin_2)*
X3655000Y51140000D03*
G04 #@! TO.P,J5,3,Pin_3*
G04 #@! TO.N,Net-(J5-Pin_3)*
X3655000Y48600000D03*
G04 #@! TO.P,J5,4,Pin_4*
G04 #@! TO.N,Net-(J5-Pin_4)*
X3655000Y46060000D03*
G04 #@! TD*
D29*
G04 #@! TO.P,C9,1*
G04 #@! TO.N,VCC*
X57045000Y39140000D03*
G04 #@! TO.P,C9,2*
G04 #@! TO.N,GND*
X55145000Y39140000D03*
G04 #@! TD*
D27*
G04 #@! TO.P,TP2,1,1*
G04 #@! TO.N,5V_SW*
X52470000Y33865000D03*
G04 #@! TD*
D29*
G04 #@! TO.P,C10,1*
G04 #@! TO.N,VCC*
X57045000Y37090000D03*
G04 #@! TO.P,C10,2*
G04 #@! TO.N,GND*
X55145000Y37090000D03*
G04 #@! TD*
D11*
G04 #@! TO.P,J6,1,Pin_1*
G04 #@! TO.N,GND*
X32695000Y82450000D03*
D12*
G04 #@! TO.P,J6,2,Pin_2*
G04 #@! TO.N,Net-(J6-Pin_2)*
X32695000Y79910000D03*
G04 #@! TO.P,J6,3,Pin_3*
G04 #@! TO.N,Net-(J6-Pin_3)*
X32695000Y77370000D03*
G04 #@! TO.P,J6,4,Pin_4*
G04 #@! TO.N,Net-(J6-Pin_4)*
X32695000Y74830000D03*
G04 #@! TO.P,J6,5,Pin_5*
G04 #@! TO.N,Net-(J6-Pin_5)*
X32695000Y72290000D03*
G04 #@! TD*
D30*
G04 #@! TO.P,U2,1*
G04 #@! TO.N,Net-(J1-Pin_1)*
X15185000Y79920000D03*
D31*
G04 #@! TO.P,U2,2*
G04 #@! TO.N,GND*
X15185000Y77380000D03*
G04 #@! TO.P,U2,3*
G04 #@! TO.N,Net-(J1-Pin_2)*
X15185000Y74840000D03*
G04 #@! TO.P,U2,4*
G04 #@! TO.N,GND*
X15185000Y72300000D03*
G04 #@! TO.P,U2,5*
G04 #@! TO.N,Net-(J1-Pin_3)*
X15185000Y69760000D03*
G04 #@! TO.P,U2,6*
G04 #@! TO.N,GND*
X15185000Y67220000D03*
G04 #@! TO.P,U2,7*
G04 #@! TO.N,Net-(J1-Pin_4)*
X15185000Y64680000D03*
G04 #@! TO.P,U2,8*
G04 #@! TO.N,GND*
X15185000Y62140000D03*
G04 #@! TO.P,U2,9*
X22805000Y62140000D03*
G04 #@! TO.P,U2,10*
G04 #@! TO.N,Net-(J6-Pin_5)*
X22805000Y64680000D03*
G04 #@! TO.P,U2,11*
G04 #@! TO.N,GND*
X22805000Y67220000D03*
G04 #@! TO.P,U2,12*
G04 #@! TO.N,Net-(J6-Pin_4)*
X22805000Y69760000D03*
G04 #@! TO.P,U2,13*
G04 #@! TO.N,GND*
X22805000Y72300000D03*
G04 #@! TO.P,U2,14*
G04 #@! TO.N,Net-(J6-Pin_3)*
X22805000Y74840000D03*
G04 #@! TO.P,U2,15*
G04 #@! TO.N,GND*
X22805000Y77380000D03*
G04 #@! TO.P,U2,16*
G04 #@! TO.N,Net-(J6-Pin_2)*
X22805000Y79920000D03*
G04 #@! TD*
D32*
G04 #@! TO.P,L1,1*
G04 #@! TO.N,5V_SW*
X56970000Y27540000D03*
G04 #@! TO.P,L1,2*
G04 #@! TO.N,5V_RAW*
X61170000Y27540000D03*
G04 #@! TD*
D33*
G04 #@! TO.P,R2,1*
G04 #@! TO.N,USB_5V_POUR*
X59220000Y12060000D03*
G04 #@! TO.P,R2,2*
G04 #@! TO.N,Net-(J10-CC2)*
X59220000Y10240000D03*
G04 #@! TD*
D34*
G04 #@! TO.P,S2,1,A*
G04 #@! TO.N,GND*
X89073500Y32580000D03*
G04 #@! TO.P,S2,2,B*
G04 #@! TO.N,Net-(S2-B)*
X84923500Y32580000D03*
G04 #@! TD*
D35*
G04 #@! TO.P,R9,1*
G04 #@! TO.N,Net-(U1-FB)*
X46845000Y47140000D03*
G04 #@! TO.P,R9,2*
G04 #@! TO.N,GND*
X46845000Y48140000D03*
G04 #@! TD*
D11*
G04 #@! TO.P,J8,1,Pin_1*
G04 #@! TO.N,Net-(A1-D1{slash}TX)*
X47475000Y34590000D03*
D12*
G04 #@! TO.P,J8,2,Pin_2*
G04 #@! TO.N,Net-(A1-D0{slash}RX)*
X44935000Y34590000D03*
G04 #@! TO.P,J8,3,Pin_3*
G04 #@! TO.N,GND*
X42395000Y34590000D03*
G04 #@! TD*
D36*
G04 #@! TO.P,C6,1*
G04 #@! TO.N,Net-(C6-Pad1)*
X48995000Y48110000D03*
G04 #@! TO.P,C6,2*
G04 #@! TO.N,Net-(U1-FB)*
X48995000Y47470000D03*
G04 #@! TD*
D37*
G04 #@! TO.P,D5,1*
G04 #@! TO.N,Net-(D3-Pad1)*
X78135000Y13140000D03*
G04 #@! TO.P,D5,2*
G04 #@! TO.N,VSS*
X76555000Y13140000D03*
G04 #@! TD*
D38*
G04 #@! TO.P,U4,1,GND*
G04 #@! TO.N,GND*
X57240000Y32785000D03*
G04 #@! TO.P,U4,2,SW*
G04 #@! TO.N,5V_SW*
X58190000Y32785000D03*
G04 #@! TO.P,U4,3,VIN*
G04 #@! TO.N,VCC*
X59140000Y32785000D03*
G04 #@! TO.P,U4,4,VFB*
G04 #@! TO.N,Net-(U4-VFB)*
X59140000Y35095000D03*
G04 #@! TO.P,U4,5,EN*
G04 #@! TO.N,VCC*
X58190000Y35095000D03*
G04 #@! TO.P,U4,6,VBST*
G04 #@! TO.N,Net-(U4-VBST)*
X57240000Y35095000D03*
G04 #@! TD*
D39*
G04 #@! TO.P,S1,1*
G04 #@! TO.N,Net-(F1-Pad2)*
X51845000Y79390000D03*
G04 #@! TO.P,S1,2*
G04 #@! TO.N,Net-(K2-Pad5)*
X51845000Y69390000D03*
G04 #@! TD*
D40*
G04 #@! TO.P,R12,1*
G04 #@! TO.N,5V_RAW*
X62595000Y36890000D03*
G04 #@! TO.P,R12,2*
G04 #@! TO.N,Net-(U4-VFB)*
X61595000Y36890000D03*
G04 #@! TD*
D11*
G04 #@! TO.P,J14,1,Pin_1*
G04 #@! TO.N,GND*
X97950000Y30265000D03*
D12*
G04 #@! TO.P,J14,2,Pin_2*
G04 #@! TO.N,Net-(J14-Pin_2)*
X97950000Y27725000D03*
G04 #@! TO.P,J14,3,Pin_3*
G04 #@! TO.N,Net-(J14-Pin_3)*
X97950000Y25185000D03*
G04 #@! TO.P,J14,4,Pin_4*
G04 #@! TO.N,Net-(J14-Pin_4)*
X97950000Y22645000D03*
G04 #@! TO.P,J14,5,Pin_5*
G04 #@! TO.N,Vdrive*
X97950000Y20105000D03*
G04 #@! TO.P,J14,6,Pin_6*
G04 #@! TO.N,Net-(J14-Pin_6)*
X97950000Y17565000D03*
G04 #@! TO.P,J14,7,Pin_7*
G04 #@! TO.N,Net-(J14-Pin_7)*
X97950000Y15025000D03*
G04 #@! TO.P,J14,8,Pin_8*
G04 #@! TO.N,Net-(J14-Pin_8)*
X97950000Y12485000D03*
G04 #@! TD*
D41*
G04 #@! TO.P,J11,1,Pin_1*
G04 #@! TO.N,GND*
X86400000Y82845000D03*
D42*
G04 #@! TO.P,J11,2,Pin_2*
G04 #@! TO.N,Vdrive*
X86400000Y87925000D03*
G04 #@! TD*
D30*
G04 #@! TO.P,U3,1*
G04 #@! TO.N,Net-(J5-Pin_1)*
X15285000Y56140000D03*
D31*
G04 #@! TO.P,U3,2*
G04 #@! TO.N,GND*
X15285000Y53600000D03*
G04 #@! TO.P,U3,3*
G04 #@! TO.N,Net-(J5-Pin_2)*
X15285000Y51060000D03*
G04 #@! TO.P,U3,4*
G04 #@! TO.N,GND*
X15285000Y48520000D03*
G04 #@! TO.P,U3,5*
G04 #@! TO.N,Net-(J5-Pin_3)*
X15285000Y45980000D03*
G04 #@! TO.P,U3,6*
G04 #@! TO.N,GND*
X15285000Y43440000D03*
G04 #@! TO.P,U3,7*
G04 #@! TO.N,Net-(J5-Pin_4)*
X15285000Y40900000D03*
G04 #@! TO.P,U3,8*
G04 #@! TO.N,GND*
X15285000Y38360000D03*
G04 #@! TO.P,U3,9*
X22905000Y38360000D03*
G04 #@! TO.P,U3,10*
G04 #@! TO.N,unconnected-(U3-Pad10)*
X22905000Y40900000D03*
G04 #@! TO.P,U3,11*
G04 #@! TO.N,GND*
X22905000Y43440000D03*
G04 #@! TO.P,U3,12*
G04 #@! TO.N,/PWR_MOSI*
X22905000Y45980000D03*
G04 #@! TO.P,U3,13*
G04 #@! TO.N,GND*
X22905000Y48520000D03*
G04 #@! TO.P,U3,14*
G04 #@! TO.N,/PWR_MISO*
X22905000Y51060000D03*
G04 #@! TO.P,U3,15*
G04 #@! TO.N,GND*
X22905000Y53600000D03*
G04 #@! TO.P,U3,16*
G04 #@! TO.N,/PWR_SCK*
X22905000Y56140000D03*
G04 #@! TD*
D43*
G04 #@! TO.P,D1,1*
G04 #@! TO.N,Net-(D1-Pad1)*
X84498500Y48930000D03*
G04 #@! TO.P,D1,2*
G04 #@! TO.N,Net-(J14-Pin_3)*
X84498500Y51730000D03*
G04 #@! TD*
D44*
G04 #@! TO.P,H5,1*
G04 #@! TO.N,GND*
X91875000Y7150000D03*
X92465000Y8560000D03*
X92465000Y5740000D03*
X93875000Y9150000D03*
D45*
X93875000Y7150000D03*
D44*
X93875000Y5150000D03*
X95285000Y8560000D03*
X95285000Y5740000D03*
X95875000Y7150000D03*
G04 #@! TD*
D30*
G04 #@! TO.P,A1,1,D1/TX*
G04 #@! TO.N,Net-(A1-D1{slash}TX)*
X44635000Y30890000D03*
D31*
G04 #@! TO.P,A1,2,D0/RX*
G04 #@! TO.N,Net-(A1-D0{slash}RX)*
X42095000Y30890000D03*
G04 #@! TO.P,A1,3,~{RESET}*
G04 #@! TO.N,unconnected-(A1-~{RESET}-Pad3)*
X39555000Y30890000D03*
G04 #@! TO.P,A1,4,GND*
G04 #@! TO.N,GND*
X37015000Y30890000D03*
G04 #@! TO.P,A1,5,D2*
G04 #@! TO.N,Net-(A1-D2)*
X34475000Y30890000D03*
G04 #@! TO.P,A1,6,D3*
G04 #@! TO.N,FAULT*
X31935000Y30890000D03*
G04 #@! TO.P,A1,7,D4*
G04 #@! TO.N,unconnected-(A1-D4-Pad7)*
X29395000Y30890000D03*
G04 #@! TO.P,A1,8,D5*
G04 #@! TO.N,unconnected-(A1-D5-Pad8)*
X26855000Y30890000D03*
G04 #@! TO.P,A1,9,D6*
G04 #@! TO.N,unconnected-(A1-D6-Pad9)*
X24315000Y30890000D03*
G04 #@! TO.P,A1,10,D7*
G04 #@! TO.N,unconnected-(A1-D7-Pad10)*
X21775000Y30890000D03*
G04 #@! TO.P,A1,11,D8*
G04 #@! TO.N,unconnected-(A1-D8-Pad11)*
X19235000Y30890000D03*
G04 #@! TO.P,A1,12,D9*
G04 #@! TO.N,unconnected-(A1-D9-Pad12)*
X16695000Y30890000D03*
G04 #@! TO.P,A1,13,D10*
G04 #@! TO.N,unconnected-(A1-D10-Pad13)*
X14155000Y30890000D03*
G04 #@! TO.P,A1,14,D11*
G04 #@! TO.N,/PWR_MOSI*
X11615000Y30890000D03*
G04 #@! TO.P,A1,15,D12*
G04 #@! TO.N,/PWR_MISO*
X9075000Y30890000D03*
G04 #@! TO.P,A1,16,D13*
G04 #@! TO.N,/PWR_SCK*
X9075000Y15650000D03*
G04 #@! TO.P,A1,17,3V3*
G04 #@! TO.N,unconnected-(A1-3V3-Pad17)*
X11615000Y15650000D03*
G04 #@! TO.P,A1,18,AREF*
G04 #@! TO.N,unconnected-(A1-AREF-Pad18)*
X14155000Y15650000D03*
G04 #@! TO.P,A1,19,A0*
G04 #@! TO.N,Net-(A1-A0)*
X16695000Y15650000D03*
G04 #@! TO.P,A1,20,A1*
G04 #@! TO.N,unconnected-(A1-A1-Pad20)*
X19235000Y15650000D03*
G04 #@! TO.P,A1,21,A2*
G04 #@! TO.N,unconnected-(A1-A2-Pad21)*
X21775000Y15650000D03*
G04 #@! TO.P,A1,22,A3*
G04 #@! TO.N,unconnected-(A1-A3-Pad22)*
X24315000Y15650000D03*
G04 #@! TO.P,A1,23,A4*
G04 #@! TO.N,unconnected-(A1-A4-Pad23)*
X26855000Y15650000D03*
G04 #@! TO.P,A1,24,A5*
G04 #@! TO.N,unconnected-(A1-A5-Pad24)*
X29395000Y15650000D03*
G04 #@! TO.P,A1,25,A6*
G04 #@! TO.N,unconnected-(A1-A6-Pad25)*
X31935000Y15650000D03*
G04 #@! TO.P,A1,26,A7*
G04 #@! TO.N,unconnected-(A1-A7-Pad26)*
X34475000Y15650000D03*
G04 #@! TO.P,A1,27,+5V*
G04 #@! TO.N,unconnected-(A1-+5V-Pad27)*
X37015000Y15650000D03*
G04 #@! TO.P,A1,28,~{RESET}*
G04 #@! TO.N,unconnected-(A1-~{RESET}-Pad28)*
X39555000Y15650000D03*
G04 #@! TO.P,A1,29,GND*
G04 #@! TO.N,GND*
X42095000Y15650000D03*
G04 #@! TO.P,A1,30,VIN*
G04 #@! TO.N,VSS*
X44635000Y15650000D03*
G04 #@! TD*
D46*
G04 #@! TO.P,R5,1*
G04 #@! TO.N,Net-(D7-Pad1)*
X36955000Y6915000D03*
G04 #@! TO.P,R5,2*
G04 #@! TO.N,GND*
X38595000Y6915000D03*
G04 #@! TD*
D47*
G04 #@! TO.P,F2,1,1*
G04 #@! TO.N,5V_RAW*
X61131950Y21463000D03*
G04 #@! TO.P,F2,2,2*
G04 #@! TO.N,+5VA*
X66031950Y21463000D03*
G04 #@! TD*
D13*
G04 #@! TO.P,R11,1*
G04 #@! TO.N,FAULT*
X56395000Y51770000D03*
G04 #@! TO.P,R11,2*
G04 #@! TO.N,VSS*
X56395000Y53410000D03*
G04 #@! TD*
D48*
G04 #@! TO.P,C7,1*
G04 #@! TO.N,Net-(C6-Pad1)*
X34870000Y39590000D03*
G04 #@! TO.P,C7,2*
G04 #@! TO.N,GND*
X31920000Y39590000D03*
G04 #@! TD*
D11*
G04 #@! TO.P,J1,1,Pin_1*
G04 #@! TO.N,Net-(J1-Pin_1)*
X3655000Y74970000D03*
D12*
G04 #@! TO.P,J1,2,Pin_2*
G04 #@! TO.N,Net-(J1-Pin_2)*
X3655000Y72430000D03*
G04 #@! TO.P,J1,3,Pin_3*
G04 #@! TO.N,Net-(J1-Pin_3)*
X3655000Y69890000D03*
G04 #@! TO.P,J1,4,Pin_4*
G04 #@! TO.N,Net-(J1-Pin_4)*
X3655000Y67350000D03*
G04 #@! TD*
D27*
G04 #@! TO.P,TP7,1,1*
G04 #@! TO.N,Net-(C6-Pad1)*
X31795000Y44590000D03*
G04 #@! TD*
D33*
G04 #@! TO.P,R1,1*
G04 #@! TO.N,GND*
X64920000Y10775000D03*
G04 #@! TO.P,R1,2*
G04 #@! TO.N,Net-(J10-SHIELD)*
X64920000Y8955000D03*
G04 #@! TD*
D41*
G04 #@! TO.P,J12,1,Pin_1*
G04 #@! TO.N,GND*
X86400000Y71595000D03*
D42*
G04 #@! TO.P,J12,2,Pin_2*
G04 #@! TO.N,VCC*
X86400000Y76675000D03*
G04 #@! TD*
D49*
G04 #@! TO.P,U5,1,IP+*
G04 #@! TO.N,CSENSE_IN*
X66595000Y49580000D03*
G04 #@! TO.P,U5,2,IP+*
X66595000Y50850000D03*
G04 #@! TO.P,U5,3,IP-*
G04 #@! TO.N,VCC*
X66595000Y52120000D03*
G04 #@! TO.P,U5,4,IP-*
X66595000Y53390000D03*
G04 #@! TO.P,U5,5,GND*
G04 #@! TO.N,GND*
X61083200Y53390000D03*
G04 #@! TO.P,U5,6,\u002AFAULT*
G04 #@! TO.N,FAULT*
X61083200Y52120000D03*
G04 #@! TO.P,U5,7,VIOUT*
G04 #@! TO.N,Net-(A1-A0)*
X61083200Y50850000D03*
G04 #@! TO.P,U5,8,VCC*
G04 #@! TO.N,VSS*
X61083200Y49580000D03*
G04 #@! TD*
D27*
G04 #@! TO.P,TP4,1,1*
G04 #@! TO.N,Net-(U1-FB)*
X50195000Y45390000D03*
G04 #@! TD*
D13*
G04 #@! TO.P,RL1,1*
G04 #@! TO.N,VSS*
X25235000Y78280000D03*
G04 #@! TO.P,RL1,2*
G04 #@! TO.N,Net-(J6-Pin_2)*
X25235000Y79920000D03*
G04 #@! TD*
D46*
G04 #@! TO.P,R7,1*
G04 #@! TO.N,Net-(U1-EN)*
X44025000Y46140000D03*
G04 #@! TO.P,R7,2*
G04 #@! TO.N,VCC*
X45665000Y46140000D03*
G04 #@! TD*
D27*
G04 #@! TO.P,TP8,1,1*
G04 #@! TO.N,Net-(A1-A0)*
X55195000Y48190000D03*
G04 #@! TD*
D10*
G04 #@! TO.P,C2,1*
G04 #@! TO.N,USB_5V_POUR*
X60815000Y11115000D03*
G04 #@! TO.P,C2,2*
G04 #@! TO.N,GND*
X62375000Y11115000D03*
G04 #@! TD*
D44*
G04 #@! TO.P,H6,1*
G04 #@! TO.N,GND*
X92605000Y95400000D03*
X93195000Y96810000D03*
X93195000Y93990000D03*
X94605000Y97400000D03*
D45*
X94605000Y95400000D03*
D44*
X94605000Y93400000D03*
X96015000Y96810000D03*
X96015000Y93990000D03*
X96605000Y95400000D03*
G04 #@! TD*
G04 #@! TO.P,H7,1*
G04 #@! TO.N,GND*
X4655000Y95375000D03*
X5245000Y96785000D03*
X5245000Y93965000D03*
X6655000Y97375000D03*
D45*
X6655000Y95375000D03*
D44*
X6655000Y93375000D03*
X8065000Y96785000D03*
X8065000Y93965000D03*
X8655000Y95375000D03*
G04 #@! TD*
D13*
G04 #@! TO.P,RL4,1*
G04 #@! TO.N,VSS*
X25235000Y63000000D03*
G04 #@! TO.P,RL4,2*
G04 #@! TO.N,Net-(J6-Pin_5)*
X25235000Y64640000D03*
G04 #@! TD*
D24*
G04 #@! TO.P,D3,1*
G04 #@! TO.N,Net-(D3-Pad1)*
X78225000Y18140000D03*
G04 #@! TO.P,D3,2*
G04 #@! TO.N,VCC*
X76345000Y18140000D03*
G04 #@! TD*
D10*
G04 #@! TO.P,C4,1*
G04 #@! TO.N,5V_RAW*
X60815000Y33140000D03*
G04 #@! TO.P,C4,2*
G04 #@! TO.N,GND*
X62375000Y33140000D03*
G04 #@! TD*
D50*
G04 #@! TO.P,F1,1,1*
G04 #@! TO.N,Drive-D-V*
X70595000Y81770000D03*
G04 #@! TO.P,F1,2,2*
G04 #@! TO.N,Net-(F1-Pad2)*
X70595000Y59270000D03*
D51*
G04 #@! TO.P,F1,3*
G04 #@! TO.N,N/C*
X78215000Y67980000D03*
G04 #@! TO.P,F1,4*
X78215000Y73060000D03*
D52*
G04 #@! TO.P,F1,5*
X62975000Y69250000D03*
G04 #@! TO.P,F1,6*
X62975000Y71790000D03*
D53*
G04 #@! TO.P,F1,7*
X70595000Y62900000D03*
G04 #@! TO.P,F1,8*
X70595000Y78140000D03*
G04 #@! TD*
D54*
G04 #@! TO.P,R6,1*
G04 #@! TO.N,Net-(D3-Pad1)*
X81325000Y27560000D03*
D31*
G04 #@! TO.P,R6,2*
G04 #@! TO.N,GND*
X94025000Y27560000D03*
G04 #@! TD*
D55*
G04 #@! TO.P,D2,1*
G04 #@! TO.N,Drive-D-V*
X71795000Y87390000D03*
G04 #@! TO.P,D2,2*
G04 #@! TO.N,Vdrive*
X78595000Y87390000D03*
G04 #@! TD*
D56*
G04 #@! TO.P,U1,1,GND*
G04 #@! TO.N,GND*
X40207500Y47090000D03*
G04 #@! TO.P,U1,2,SW*
G04 #@! TO.N,3V3_SW*
X40207500Y46140000D03*
G04 #@! TO.P,U1,3,VIN*
G04 #@! TO.N,VCC*
X40207500Y45190000D03*
G04 #@! TO.P,U1,4,FB*
G04 #@! TO.N,Net-(U1-FB)*
X42482500Y45190000D03*
G04 #@! TO.P,U1,5,EN*
G04 #@! TO.N,Net-(U1-EN)*
X42482500Y46140000D03*
G04 #@! TO.P,U1,6,BOOT*
G04 #@! TO.N,Net-(U1-BOOT)*
X42482500Y47090000D03*
G04 #@! TD*
D44*
G04 #@! TO.P,H4,1*
G04 #@! TO.N,GND*
X4595000Y7390000D03*
X5185000Y8800000D03*
X5185000Y5980000D03*
X6595000Y9390000D03*
D45*
X6595000Y7390000D03*
D44*
X6595000Y5390000D03*
X8005000Y8800000D03*
X8005000Y5980000D03*
X8595000Y7390000D03*
G04 #@! TD*
D11*
G04 #@! TO.P,J4,1,Pin_1*
G04 #@! TO.N,Net-(J4-Pin_1)*
X82055000Y54890000D03*
D12*
G04 #@! TO.P,J4,2,Pin_2*
G04 #@! TO.N,Net-(J4-Pin_2)*
X84595000Y54890000D03*
G04 #@! TD*
D40*
G04 #@! TO.P,C12,1*
G04 #@! TO.N,Net-(U1-BOOT)*
X43095000Y48390000D03*
G04 #@! TO.P,C12,2*
G04 #@! TO.N,3V3_SW*
X42095000Y48390000D03*
G04 #@! TD*
D11*
G04 #@! TO.P,J15,1,Pin_1*
G04 #@! TO.N,GND*
X41555000Y3890000D03*
D12*
G04 #@! TO.P,J15,2,Pin_2*
G04 #@! TO.N,VSS*
X44095000Y3890000D03*
G04 #@! TO.P,J15,3,Pin_3*
G04 #@! TO.N,+5VA*
X46635000Y3890000D03*
G04 #@! TO.P,J15,4,Pin_4*
G04 #@! TO.N,VCC*
X49175000Y3890000D03*
G04 #@! TD*
D35*
G04 #@! TO.P,R4,1*
G04 #@! TO.N,Net-(U4-VFB)*
X60595000Y36890000D03*
G04 #@! TO.P,R4,2*
G04 #@! TO.N,GND*
X60595000Y37890000D03*
G04 #@! TD*
D57*
G04 #@! TO.P,C11,1*
G04 #@! TO.N,Net-(U4-VBST)*
X54995000Y34940000D03*
G04 #@! TO.P,C11,2*
G04 #@! TO.N,5V_SW*
X54995000Y33040000D03*
G04 #@! TD*
D41*
G04 #@! TO.P,J13,1,Pin_1*
G04 #@! TO.N,GND*
X86400000Y60345000D03*
D42*
G04 #@! TO.P,J13,2,Pin_2*
G04 #@! TO.N,VCC*
X86400000Y65425000D03*
G04 #@! TD*
D33*
G04 #@! TO.P,R3,1*
G04 #@! TO.N,USB_5V_POUR*
X57220000Y12060000D03*
G04 #@! TO.P,R3,2*
G04 #@! TO.N,Net-(J10-CC1)*
X57220000Y10240000D03*
G04 #@! TD*
D11*
G04 #@! TO.P,J3,1,Pin_1*
G04 #@! TO.N,PIN_5V_POUR*
X71395000Y5315000D03*
D12*
G04 #@! TO.P,J3,2,Pin_2*
G04 #@! TO.N,GND*
X73935000Y5315000D03*
G04 #@! TD*
D13*
G04 #@! TO.P,RL6,1*
G04 #@! TO.N,VSS*
X25295000Y49450000D03*
G04 #@! TO.P,RL6,2*
G04 #@! TO.N,/PWR_MISO*
X25295000Y51090000D03*
G04 #@! TD*
G04 #@! TO.P,RL7,1*
G04 #@! TO.N,VSS*
X25295000Y44370000D03*
G04 #@! TO.P,RL7,2*
G04 #@! TO.N,/PWR_MOSI*
X25295000Y46010000D03*
G04 #@! TD*
D58*
G04 #@! TO.P,K2,1,1*
G04 #@! TO.N,Net-(D1-Pad1)*
X84385000Y45140000D03*
G04 #@! TO.P,K2,2,2*
G04 #@! TO.N,Net-(J4-Pin_1)*
X81845000Y45140000D03*
G04 #@! TO.P,K2,5,5*
G04 #@! TO.N,Net-(K2-Pad5)*
X74225000Y45140000D03*
G04 #@! TO.P,K2,8,8*
G04 #@! TO.N,CSENSE_IN*
X66605000Y45140000D03*
G04 #@! TO.P,K2,15,15*
G04 #@! TO.N,Net-(J4-Pin_2)*
X81845000Y37520000D03*
G04 #@! TO.P,K2,16,16*
G04 #@! TO.N,Net-(S2-B)*
X84385000Y37520000D03*
G04 #@! TD*
D59*
G04 #@! TO.N,GND*
X63545000Y10775000D03*
X56450000Y32785000D03*
X61945000Y9265000D03*
X57595000Y46790000D03*
X58995000Y53390000D03*
X30420000Y40465000D03*
X41845000Y40890000D03*
X63320000Y31690000D03*
X30420000Y39415000D03*
X53695000Y37215000D03*
X63345000Y33140000D03*
X41845000Y39640000D03*
X30420000Y38415000D03*
X63345000Y34665000D03*
X39195000Y48190000D03*
X53695000Y39165000D03*
X54820000Y9315000D03*
X46845000Y49140000D03*
X60595000Y38690000D03*
G04 #@! TO.N,FAULT*
X55395000Y51190000D03*
G04 #@! TO.N,VSS*
X25195000Y76990000D03*
X55995000Y54590000D03*
X25295000Y53290000D03*
X60795000Y48190000D03*
X25235000Y67030000D03*
X25295000Y48390000D03*
X75020000Y13140000D03*
X25295000Y43290000D03*
X25235000Y61630000D03*
X25235000Y72030000D03*
X29395000Y35790000D03*
G04 #@! TO.N,VCC*
X58190000Y36590000D03*
X76345000Y25440000D03*
X68995000Y53390000D03*
X68995000Y52190000D03*
X45665000Y47320000D03*
X43195000Y43590000D03*
G04 #@! TO.N,5V_SW*
X53995000Y31790000D03*
X55720000Y31740000D03*
X58520000Y31490000D03*
X55395000Y29865000D03*
X54520000Y28890000D03*
X57845000Y31465000D03*
X54470000Y29865000D03*
X54945000Y31715000D03*
X55395000Y28865000D03*
G04 #@! TO.N,3V3_SW*
X34995000Y46040000D03*
X41345000Y48390000D03*
X38895000Y46604472D03*
X36345000Y46040000D03*
X37495000Y46040000D03*
X38959472Y45740000D03*
G04 #@! TO.N,CSENSE_IN*
X68995000Y48990000D03*
X68995000Y50390000D03*
G04 #@! TO.N,USB_5V_POUR*
X57220000Y13315000D03*
X60770000Y9115000D03*
X59220000Y13315000D03*
X55970000Y9015000D03*
G04 #@! TD*
D60*
G04 #@! TO.N,Net-(A1-D0{slash}RX)*
X44935000Y34590000D02*
X44935000Y33730000D01*
X44935000Y33730000D02*
X42095000Y30890000D01*
G04 #@! TO.N,GND*
X89073500Y32580000D02*
X89073500Y32511500D01*
X41845000Y39640000D02*
X40825000Y40660000D01*
X41615000Y40660000D02*
X41845000Y40890000D01*
X31295000Y39590000D02*
X30420000Y40465000D01*
X30420000Y38415000D02*
X31295000Y39290000D01*
X63345000Y34665000D02*
X62390000Y34665000D01*
X55120000Y39165000D02*
X55145000Y39140000D01*
X62375000Y33140000D02*
X63345000Y33140000D01*
X31295000Y39290000D02*
X31295000Y39590000D01*
D61*
X54820000Y9315000D02*
X55170000Y8965000D01*
D60*
X53695000Y37215000D02*
X55020000Y37215000D01*
X40825000Y40660000D02*
X40095000Y40660000D01*
D62*
X63545000Y10775000D02*
X64920000Y10775000D01*
D60*
X62415000Y31690000D02*
X62375000Y31650000D01*
X62375000Y33140000D02*
X62375000Y31650000D01*
X62375000Y34650000D02*
X62375000Y33140000D01*
X55020000Y37215000D02*
X55145000Y37090000D01*
X30420000Y39415000D02*
X30420000Y40465000D01*
X46845000Y48140000D02*
X46845000Y49140000D01*
X30420000Y38415000D02*
X30420000Y39415000D01*
X63345000Y34665000D02*
X63345000Y33140000D01*
X53695000Y39165000D02*
X55120000Y39165000D01*
X31920000Y39590000D02*
X31295000Y39590000D01*
X57595000Y48390000D02*
X57595000Y46790000D01*
X41845000Y40890000D02*
X41845000Y39640000D01*
X62390000Y34665000D02*
X62375000Y34650000D01*
X40207500Y47090000D02*
X39195000Y48102500D01*
X63320000Y31690000D02*
X62415000Y31690000D01*
X63345000Y33140000D02*
X63345000Y31715000D01*
X61083200Y53390000D02*
X58995000Y53390000D01*
D62*
X62715000Y10775000D02*
X62375000Y11115000D01*
D60*
X31745000Y39415000D02*
X31920000Y39590000D01*
X30420000Y39415000D02*
X31745000Y39415000D01*
D62*
X63545000Y10775000D02*
X62715000Y10775000D01*
D60*
X63345000Y31715000D02*
X63320000Y31690000D01*
D61*
X38595000Y6915000D02*
X38595000Y6850000D01*
D60*
X40095000Y40660000D02*
X41615000Y40660000D01*
X39195000Y48190000D02*
X39195000Y48102500D01*
D61*
X55170000Y8965000D02*
X55170000Y7390000D01*
X61570000Y7390000D02*
X61570000Y8890000D01*
D60*
X55145000Y37090000D02*
X55145000Y39140000D01*
D61*
X38595000Y6850000D02*
X41555000Y3890000D01*
D60*
X89073500Y32511500D02*
X94025000Y27560000D01*
X57240000Y32785000D02*
X56450000Y32785000D01*
D61*
X54820000Y9315000D02*
X54845000Y9290000D01*
D60*
X60595000Y37890000D02*
X60595000Y38690000D01*
D61*
X61570000Y8890000D02*
X61945000Y9265000D01*
D62*
G04 #@! TO.N,/PWR_MISO*
X32695000Y53550000D02*
X27755000Y53550000D01*
X27755000Y53550000D02*
X25295000Y51090000D01*
X22905000Y51060000D02*
X25265000Y51060000D01*
G04 #@! TO.N,/PWR_SCK*
X22905000Y56140000D02*
X25285000Y56140000D01*
X25295000Y56130000D02*
X32655000Y56130000D01*
D61*
G04 #@! TO.N,FAULT*
X55815000Y51190000D02*
X56395000Y51770000D01*
D60*
X56745000Y52120000D02*
X56395000Y51770000D01*
X61083200Y52120000D02*
X56745000Y52120000D01*
D61*
X55395000Y51190000D02*
X55815000Y51190000D01*
D60*
G04 #@! TO.N,Net-(A1-D1{slash}TX)*
X44635000Y30890000D02*
X44635000Y31750000D01*
X44635000Y31750000D02*
X47475000Y34590000D01*
G04 #@! TO.N,VSS*
X60595000Y48390000D02*
X60795000Y48190000D01*
X76555000Y13140000D02*
X75020000Y13140000D01*
X25235000Y77030000D02*
X25195000Y76990000D01*
X30657500Y35790000D02*
X29395000Y35790000D01*
X25235000Y73200000D02*
X25235000Y72030000D01*
X25235000Y78280000D02*
X25235000Y77030000D01*
X60795000Y49291800D02*
X61083200Y49580000D01*
X25235000Y68080000D02*
X25235000Y67030000D01*
X55995000Y53810000D02*
X56395000Y53410000D01*
X55995000Y54590000D02*
X55995000Y53810000D01*
X60795000Y48190000D02*
X60795000Y49291800D01*
X25295000Y44370000D02*
X25295000Y43290000D01*
X25295000Y54490000D02*
X25295000Y53290000D01*
X25235000Y63000000D02*
X25235000Y61630000D01*
X59155000Y48390000D02*
X60595000Y48390000D01*
X25295000Y48390000D02*
X25295000Y48290000D01*
X25295000Y49450000D02*
X25295000Y48390000D01*
D62*
G04 #@! TO.N,Net-(A1-D2)*
X33350000Y29765000D02*
X34475000Y30890000D01*
X33350000Y10475000D02*
X33350000Y29765000D01*
D60*
G04 #@! TO.N,/PWR_MOSI*
X25295000Y46010000D02*
X27695000Y46010000D01*
D62*
X22905000Y45980000D02*
X25265000Y45980000D01*
D60*
X27695000Y46010000D02*
X32695000Y51010000D01*
D61*
G04 #@! TO.N,Net-(A1-A0)*
X27995000Y31045635D02*
X27995000Y26950000D01*
X27995000Y26950000D02*
X16695000Y15650000D01*
X41421346Y31990000D02*
X28939365Y31990000D01*
X55195000Y48190000D02*
X55195000Y46990000D01*
X28939365Y31990000D02*
X27995000Y31045635D01*
D62*
X61083200Y50850000D02*
X60918200Y50685000D01*
D61*
X43545000Y34113654D02*
X41421346Y31990000D01*
D60*
X61083200Y50850000D02*
X57855000Y50850000D01*
D61*
X43545000Y35340000D02*
X43545000Y34113654D01*
X55195000Y46990000D02*
X43545000Y35340000D01*
D60*
X57855000Y50850000D02*
X55195000Y48190000D01*
D62*
G04 #@! TO.N,Net-(J4-Pin_2)*
X83323500Y50956500D02*
X83720000Y50560000D01*
D61*
X89675000Y45560000D02*
X89675000Y41276500D01*
D62*
X84595000Y54890000D02*
X83323500Y53618500D01*
X83720000Y50560000D02*
X84675000Y50560000D01*
X88248500Y39850000D02*
X84175000Y39850000D01*
X84175000Y39850000D02*
X81845000Y37520000D01*
X83323500Y53618500D02*
X83323500Y50956500D01*
D61*
X89675000Y45560000D02*
X84675000Y50560000D01*
X89675000Y41276500D02*
X88248500Y39850000D01*
D62*
G04 #@! TO.N,Net-(J4-Pin_1)*
X82055000Y54890000D02*
X82055000Y45350000D01*
X84175000Y42810000D02*
X88248500Y42810000D01*
X81845000Y45140000D02*
X84175000Y42810000D01*
D60*
G04 #@! TO.N,+5VA*
X70105000Y21940000D02*
X76405000Y15640000D01*
X63083250Y18514300D02*
X66031950Y21463000D01*
D63*
X66508950Y21940000D02*
X66031950Y21463000D01*
D60*
X68920000Y21940000D02*
X70105000Y21940000D01*
X60057219Y18514300D02*
X63083250Y18514300D01*
X46635000Y5092081D02*
X60057219Y18514300D01*
D63*
X68920000Y21940000D02*
X66508950Y21940000D01*
D60*
X46635000Y3890000D02*
X46635000Y5092081D01*
D61*
G04 #@! TO.N,Net-(C6-Pad1)*
X47875000Y48110000D02*
X47845000Y48140000D01*
D60*
X34870000Y39590000D02*
X34870000Y41015000D01*
D61*
X48995000Y48110000D02*
X47875000Y48110000D01*
D60*
X47195000Y50190000D02*
X47845000Y49540000D01*
X32895000Y45690000D02*
X33795000Y45690000D01*
X36195000Y42340000D02*
X34579314Y42340000D01*
X34579314Y42340000D02*
X33795000Y43124314D01*
X34932500Y39527500D02*
X34870000Y39590000D01*
X31795000Y44590000D02*
X32895000Y45690000D01*
X37595000Y50190000D02*
X47195000Y50190000D01*
X33795000Y43124314D02*
X33795000Y45690000D01*
X34870000Y41015000D02*
X36195000Y42340000D01*
X33795000Y45690000D02*
X33795000Y46390000D01*
X34932500Y35790000D02*
X34932500Y39527500D01*
X47845000Y49540000D02*
X47845000Y48140000D01*
X33795000Y46390000D02*
X37595000Y50190000D01*
G04 #@! TO.N,Net-(U1-FB)*
X48845000Y45390000D02*
X47845000Y46390000D01*
D61*
X47915000Y46390000D02*
X47845000Y46390000D01*
D60*
X50195000Y45390000D02*
X48845000Y45390000D01*
X46845000Y45390000D02*
X47845000Y46390000D01*
X47845000Y46390000D02*
X47845000Y47140000D01*
X42782499Y44890001D02*
X46345001Y44890001D01*
D61*
X48995000Y47470000D02*
X47915000Y46390000D01*
D60*
X46845000Y45390000D02*
X46845000Y47140000D01*
X46345001Y44890001D02*
X46845000Y45390000D01*
X42482500Y45190000D02*
X42782499Y44890001D01*
G04 #@! TO.N,VCC*
X66595000Y52529400D02*
X68655600Y52529400D01*
X45665000Y46140000D02*
X45665000Y47320000D01*
X57045000Y37090000D02*
X57045000Y39140000D01*
X68995000Y52190000D02*
X68995000Y53390000D01*
D62*
X58190000Y35095000D02*
X58190000Y34294172D01*
D60*
X40207500Y43732500D02*
X40095000Y43620000D01*
X58190000Y36390000D02*
X58190000Y36590000D01*
X58190000Y35095000D02*
X58190000Y36390000D01*
X57545000Y36590000D02*
X57045000Y37090000D01*
D61*
X58190000Y34294172D02*
X59140000Y33344172D01*
D60*
X68655600Y52529400D02*
X68995000Y52190000D01*
X66595000Y53390000D02*
X68995000Y53390000D01*
D61*
X59140000Y33344172D02*
X59140000Y32785000D01*
D60*
X40095000Y43620000D02*
X43165000Y43620000D01*
X66595000Y53390000D02*
X66595000Y52529400D01*
X40207500Y45190000D02*
X40207500Y43732500D01*
X43195000Y43590000D02*
X43165000Y43620000D01*
X58190000Y36590000D02*
X57545000Y36590000D01*
X76345000Y25440000D02*
X76345000Y25515000D01*
X76345000Y18140000D02*
X76345000Y25440000D01*
G04 #@! TO.N,Net-(U4-VBST)*
X54995000Y34940000D02*
X57085000Y34940000D01*
X57085000Y34940000D02*
X57240000Y35095000D01*
G04 #@! TO.N,5V_SW*
X55395000Y28865000D02*
X54545000Y28865000D01*
X53295000Y33040000D02*
X54995000Y33040000D01*
X52470000Y33865000D02*
X53295000Y33040000D01*
D62*
X54795000Y32890000D02*
X54845000Y32940000D01*
D60*
X55395000Y29865000D02*
X55395000Y29115000D01*
X55720000Y31740000D02*
X54995000Y32465000D01*
X54945000Y32990000D02*
X54995000Y33040000D01*
X54520000Y28890000D02*
X54520000Y29815000D01*
X54520000Y29815000D02*
X54470000Y29865000D01*
X54545000Y28865000D02*
X54520000Y28890000D01*
X55395000Y29115000D02*
X56970000Y27540000D01*
X56970000Y27540000D02*
X56720000Y27540000D01*
X58190000Y32785000D02*
X58190000Y31810000D01*
X54995000Y32790000D02*
X53995000Y31790000D01*
X58190000Y32785000D02*
X58190000Y31820000D01*
X54995000Y32465000D02*
X54995000Y33040000D01*
X58190000Y31820000D02*
X58520000Y31490000D01*
X54470000Y29865000D02*
X55395000Y29865000D01*
X58190000Y31810000D02*
X57845000Y31465000D01*
X54945000Y31715000D02*
X54945000Y32990000D01*
X56720000Y27540000D02*
X55395000Y28865000D01*
X54995000Y33040000D02*
X54995000Y32790000D01*
G04 #@! TO.N,Net-(U1-BOOT)*
X42482500Y47090000D02*
X43095000Y47702500D01*
X43095000Y47702500D02*
X43095000Y48390000D01*
G04 #@! TO.N,3V3_SW*
X34995000Y46040000D02*
X36195000Y44840000D01*
X39359472Y46140000D02*
X38959472Y45740000D01*
X37495000Y46040000D02*
X34995000Y46040000D01*
X38895000Y46604472D02*
X39359472Y46140000D01*
X36195000Y44840000D02*
X36195000Y44440000D01*
X37495000Y46040000D02*
X36195000Y44740000D01*
X42095000Y48390000D02*
X41345000Y48390000D01*
X40207500Y46140000D02*
X39359472Y46140000D01*
X36345000Y44590000D02*
X36195000Y44440000D01*
X36195000Y44740000D02*
X36195000Y44440000D01*
X36345000Y46040000D02*
X36345000Y44590000D01*
D62*
G04 #@! TO.N,Net-(D1-Pad1)*
X84498500Y48930000D02*
X84498500Y45253500D01*
D60*
G04 #@! TO.N,Net-(D3-Pad1)*
X78225000Y18770000D02*
X81325000Y21870000D01*
X78285000Y13290000D02*
X78135000Y13140000D01*
X78225000Y18140000D02*
X78225000Y18770000D01*
X78225000Y15700000D02*
X78285000Y15640000D01*
X78225000Y18140000D02*
X78225000Y15700000D01*
X81325000Y21870000D02*
X81325000Y27560000D01*
X78285000Y15640000D02*
X78285000Y13290000D01*
D61*
G04 #@! TO.N,Net-(D7-Pad1)*
X33345000Y8450000D02*
X35420000Y8450000D01*
X35420000Y8450000D02*
X36955000Y6915000D01*
D62*
G04 #@! TO.N,Net-(J1-Pin_3)*
X3655000Y69890000D02*
X15055000Y69890000D01*
G04 #@! TO.N,Net-(J1-Pin_4)*
X3655000Y67350000D02*
X12515000Y67350000D01*
X12515000Y67350000D02*
X15185000Y64680000D01*
G04 #@! TO.N,Net-(J1-Pin_2)*
X3655000Y72430000D02*
X12775000Y72430000D01*
X12775000Y72430000D02*
X15185000Y74840000D01*
G04 #@! TO.N,Net-(J1-Pin_1)*
X3655000Y74970000D02*
X10235000Y74970000D01*
X10235000Y74970000D02*
X15185000Y79920000D01*
G04 #@! TO.N,Net-(J5-Pin_3)*
X12665000Y48600000D02*
X15285000Y45980000D01*
X3655000Y48600000D02*
X12665000Y48600000D01*
G04 #@! TO.N,Net-(J5-Pin_2)*
X3655000Y51140000D02*
X15205000Y51140000D01*
G04 #@! TO.N,Net-(J5-Pin_4)*
X10125000Y46060000D02*
X15285000Y40900000D01*
X3655000Y46060000D02*
X10125000Y46060000D01*
G04 #@! TO.N,Net-(J5-Pin_1)*
X3655000Y53680000D02*
X12825000Y53680000D01*
X12825000Y53680000D02*
X15285000Y56140000D01*
D61*
G04 #@! TO.N,Net-(J10-SHIELD)*
X60990000Y2510000D02*
X62700000Y2510000D01*
X55750000Y2510000D02*
X56370000Y1890000D01*
D62*
X64945000Y8955000D02*
X62700000Y6710000D01*
D61*
X60370000Y1890000D02*
X60990000Y2510000D01*
X54040000Y6710000D02*
X54040000Y6220000D01*
X60370000Y3890000D02*
X62700000Y6220000D01*
X54040000Y6220000D02*
X56370000Y3890000D01*
X54040000Y6710000D02*
X54040000Y2510000D01*
X62700000Y6710000D02*
X62700000Y2510000D01*
X54040000Y2510000D02*
X55750000Y2510000D01*
X62700000Y6220000D02*
X62700000Y6710000D01*
G04 #@! TO.N,Net-(J10-CC2)*
X60120000Y9340000D02*
X60120000Y7390000D01*
X59220000Y10240000D02*
X60120000Y9340000D01*
G04 #@! TO.N,Net-(J10-CC1)*
X57220000Y10240000D02*
X57120000Y10140000D01*
X57120000Y10140000D02*
X57120000Y7390000D01*
D62*
G04 #@! TO.N,Net-(S2-B)*
X84385000Y37520000D02*
X84385000Y33118500D01*
D60*
G04 #@! TO.N,Net-(U4-VFB)*
X59140000Y35435000D02*
X60595000Y36890000D01*
X59140000Y35095000D02*
X59140000Y35435000D01*
X61595000Y36890000D02*
X60595000Y36890000D01*
X60163892Y36890000D02*
X60595000Y36890000D01*
X59220000Y39765000D02*
X59220000Y37833892D01*
X59220000Y37833892D02*
X60163892Y36890000D01*
G04 #@! TO.N,Net-(U1-EN)*
X42482500Y46140000D02*
X44025000Y46140000D01*
G04 #@! TO.N,CSENSE_IN*
X68405000Y49580000D02*
X68995000Y48990000D01*
X68944400Y50440600D02*
X68995000Y50390000D01*
X68995000Y50390000D02*
X68995000Y48990000D01*
X66595000Y50440600D02*
X68944400Y50440600D01*
X66595000Y49580000D02*
X68405000Y49580000D01*
X66595000Y49580000D02*
X66595000Y50440600D01*
D62*
G04 #@! TO.N,Net-(J6-Pin_3)*
X25235000Y74840000D02*
X30165000Y74840000D01*
X22805000Y74840000D02*
X25235000Y74840000D01*
X30165000Y74840000D02*
X32695000Y77370000D01*
G04 #@! TO.N,Net-(J6-Pin_2)*
X22805000Y79920000D02*
X25235000Y79920000D01*
X25235000Y79920000D02*
X32685000Y79920000D01*
G04 #@! TO.N,Net-(J6-Pin_5)*
X22805000Y64680000D02*
X25195000Y64680000D01*
X25235000Y64830000D02*
X32695000Y72290000D01*
G04 #@! TO.N,Net-(J6-Pin_4)*
X22805000Y69760000D02*
X25195000Y69760000D01*
X27585000Y69720000D02*
X32695000Y74830000D01*
X25235000Y69720000D02*
X27585000Y69720000D01*
D61*
G04 #@! TO.N,USB_5V_POUR*
X55970000Y9015000D02*
X55970000Y7390000D01*
D60*
X57220000Y12060000D02*
X57220000Y13315000D01*
D61*
X60770000Y7390000D02*
X60770000Y9115000D01*
D60*
X59870000Y12060000D02*
X59220000Y12060000D01*
X59220000Y12060000D02*
X59220000Y13315000D01*
X60815000Y11115000D02*
X59870000Y12060000D01*
D64*
G04 #@! TO.N,5V_RAW*
X61170000Y27540000D02*
X61170000Y21501050D01*
D60*
X61620000Y35930000D02*
X60815000Y35125000D01*
X62595000Y36890000D02*
X62595000Y36458892D01*
X61170000Y31295000D02*
X60815000Y31650000D01*
X62595000Y36458892D02*
X62066108Y35930000D01*
X60815000Y31650000D02*
X60815000Y33140000D01*
X60815000Y33140000D02*
X60815000Y34650000D01*
X60815000Y35125000D02*
X60815000Y34650000D01*
X62970000Y37265000D02*
X62595000Y36890000D01*
X62970000Y39640000D02*
X62970000Y37265000D01*
X62066108Y35930000D02*
X61620000Y35930000D01*
D64*
X61170000Y21501050D02*
X61131950Y21463000D01*
D60*
X61170000Y27540000D02*
X61170000Y31295000D01*
D63*
G04 #@! TO.N,Net-(J9-Pin_2)*
X68920000Y16140000D02*
X68870000Y16090000D01*
X68920000Y18640000D02*
X68920000Y16140000D01*
D62*
G04 #@! TO.N,Net-(J14-Pin_3)*
X89528500Y46700000D02*
X84498500Y51730000D01*
D61*
X89528500Y46700000D02*
X89563500Y46735000D01*
X89563500Y46735000D02*
X91945000Y46735000D01*
G04 #@! TD*
G04 #@! TA.AperFunction,Conductor*
G04 #@! TO.N,Vdrive*
G36*
X89538039Y90570315D02*
G01*
X89583794Y90517511D01*
X89595000Y90466000D01*
X89595000Y84918861D01*
X89575315Y84851822D01*
X89522511Y84806067D01*
X89466234Y84794953D01*
X88479038Y84832923D01*
X88412805Y84855169D01*
X88405443Y84860729D01*
X88253409Y84984696D01*
X88253410Y84984696D01*
X88253407Y84984698D01*
X88073049Y85078909D01*
X88073048Y85078910D01*
X88073045Y85078911D01*
X87955829Y85112450D01*
X87877418Y85134886D01*
X87877415Y85134887D01*
X87877413Y85134887D01*
X87811102Y85140783D01*
X87758037Y85145500D01*
X87758032Y85145500D01*
X85041971Y85145500D01*
X85041965Y85145500D01*
X85041964Y85145499D01*
X85030316Y85144464D01*
X84922584Y85134887D01*
X84726952Y85078910D01*
X84574878Y84999473D01*
X84512702Y84985474D01*
X84395000Y84990001D01*
X84395000Y84907748D01*
X84375315Y84840709D01*
X84367102Y84829387D01*
X84260304Y84698410D01*
X84166089Y84518046D01*
X84110114Y84322417D01*
X84110113Y84322414D01*
X84099500Y84203034D01*
X84099500Y83114000D01*
X84079815Y83046961D01*
X84027011Y83001206D01*
X83975500Y82990000D01*
X75719000Y82990000D01*
X75651961Y83009685D01*
X75606206Y83062489D01*
X75595000Y83114000D01*
X75595000Y85940014D01*
X76845001Y85940014D01*
X76855494Y85837303D01*
X76910641Y85670881D01*
X76910643Y85670876D01*
X77002684Y85521655D01*
X77126654Y85397685D01*
X77275875Y85305644D01*
X77275880Y85305642D01*
X77442302Y85250495D01*
X77442309Y85250494D01*
X77545019Y85240001D01*
X78344999Y85240001D01*
X78845000Y85240001D01*
X79644972Y85240001D01*
X79644986Y85240002D01*
X79747697Y85250495D01*
X79914119Y85305642D01*
X79914124Y85305644D01*
X80063345Y85397685D01*
X80187315Y85521655D01*
X80279356Y85670876D01*
X80279358Y85670881D01*
X80334505Y85837303D01*
X80334506Y85837310D01*
X80344999Y85940014D01*
X80345000Y85940027D01*
X80345000Y87140000D01*
X78845000Y87140000D01*
X78845000Y85240001D01*
X78344999Y85240001D01*
X78345000Y85240002D01*
X78345000Y87140000D01*
X76845001Y87140000D01*
X76845001Y85940014D01*
X75595000Y85940014D01*
X75595000Y88839987D01*
X76845000Y88839987D01*
X76845000Y87640000D01*
X78345000Y87640000D01*
X78845000Y87640000D01*
X80344999Y87640000D01*
X80344999Y87925005D01*
X84594953Y87925005D01*
X84594953Y87924996D01*
X84615113Y87655974D01*
X84615113Y87655972D01*
X84675142Y87392967D01*
X84675148Y87392948D01*
X84773709Y87141819D01*
X84773708Y87141819D01*
X84908600Y86908182D01*
X84962294Y86840850D01*
X84962295Y86840850D01*
X85798958Y87677513D01*
X85823978Y87617110D01*
X85895112Y87510649D01*
X85985649Y87420112D01*
X86092110Y87348978D01*
X86152511Y87323959D01*
X85314848Y86486297D01*
X85497476Y86361784D01*
X85497485Y86361779D01*
X85740539Y86244731D01*
X85740537Y86244731D01*
X85998337Y86165210D01*
X85998343Y86165208D01*
X86265101Y86125001D01*
X86265110Y86125000D01*
X86534890Y86125000D01*
X86534898Y86125001D01*
X86801656Y86165208D01*
X86801662Y86165210D01*
X87059461Y86244731D01*
X87302516Y86361779D01*
X87302517Y86361780D01*
X87485150Y86486297D01*
X86647487Y87323959D01*
X86707890Y87348978D01*
X86814351Y87420112D01*
X86904888Y87510649D01*
X86976022Y87617110D01*
X87001041Y87677513D01*
X87837703Y86840850D01*
X87837704Y86840851D01*
X87891400Y86908182D01*
X88026290Y87141819D01*
X88124851Y87392948D01*
X88124857Y87392967D01*
X88184886Y87655972D01*
X88184886Y87655974D01*
X88205047Y87924996D01*
X88205047Y87925005D01*
X88184886Y88194027D01*
X88184886Y88194029D01*
X88124857Y88457034D01*
X88124851Y88457053D01*
X88026290Y88708182D01*
X88026291Y88708182D01*
X87891400Y88941818D01*
X87891393Y88941829D01*
X87837704Y89009151D01*
X87837703Y89009152D01*
X87001041Y88172489D01*
X86976022Y88232890D01*
X86904888Y88339351D01*
X86814351Y88429888D01*
X86707890Y88501022D01*
X86647488Y88526042D01*
X87485150Y89363705D01*
X87302524Y89488217D01*
X87302516Y89488222D01*
X87059460Y89605270D01*
X87059462Y89605270D01*
X86801662Y89684791D01*
X86801656Y89684793D01*
X86534898Y89725000D01*
X86265101Y89725000D01*
X85998343Y89684793D01*
X85998337Y89684791D01*
X85740538Y89605270D01*
X85497482Y89488220D01*
X85497469Y89488213D01*
X85314848Y89363706D01*
X86152512Y88526042D01*
X86092110Y88501022D01*
X85985649Y88429888D01*
X85895112Y88339351D01*
X85823978Y88232890D01*
X85798958Y88172488D01*
X84962294Y89009152D01*
X84908602Y88941823D01*
X84773709Y88708182D01*
X84675148Y88457053D01*
X84675142Y88457034D01*
X84615113Y88194029D01*
X84615113Y88194027D01*
X84594953Y87925005D01*
X80344999Y87925005D01*
X80344999Y88839972D01*
X80344998Y88839987D01*
X80334505Y88942698D01*
X80279358Y89109120D01*
X80279356Y89109125D01*
X80187315Y89258346D01*
X80063345Y89382316D01*
X79914124Y89474357D01*
X79914119Y89474359D01*
X79747697Y89529506D01*
X79747690Y89529507D01*
X79644986Y89540000D01*
X78845000Y89540000D01*
X78845000Y87640000D01*
X78345000Y87640000D01*
X78345000Y89540000D01*
X77545028Y89540000D01*
X77545012Y89539999D01*
X77442302Y89529506D01*
X77275880Y89474359D01*
X77275875Y89474357D01*
X77126654Y89382316D01*
X77002684Y89258346D01*
X76910643Y89109125D01*
X76910641Y89109120D01*
X76855494Y88942698D01*
X76855493Y88942691D01*
X76845000Y88839987D01*
X75595000Y88839987D01*
X75595000Y90466000D01*
X75614685Y90533039D01*
X75667489Y90578794D01*
X75719000Y90590000D01*
X89471000Y90590000D01*
X89538039Y90570315D01*
G37*
G04 #@! TD.AperFunction*
G04 #@! TD*
G04 #@! TA.AperFunction,Conductor*
G04 #@! TO.N,Drive-D-V*
G36*
X70302016Y89570315D02*
G01*
X70347771Y89517511D01*
X70357715Y89448353D01*
X70328690Y89384797D01*
X70322658Y89378319D01*
X70202684Y89258346D01*
X70110643Y89109125D01*
X70110641Y89109120D01*
X70055494Y88942698D01*
X70055493Y88942691D01*
X70045000Y88839987D01*
X70045000Y87640000D01*
X73544999Y87640000D01*
X73544999Y88839972D01*
X73544998Y88839987D01*
X73534505Y88942698D01*
X73479358Y89109120D01*
X73479356Y89109125D01*
X73387315Y89258346D01*
X73267342Y89378319D01*
X73233857Y89439642D01*
X73238841Y89509334D01*
X73280713Y89565267D01*
X73346177Y89589684D01*
X73355023Y89590000D01*
X74471000Y89590000D01*
X74538039Y89570315D01*
X74583794Y89517511D01*
X74595000Y89466000D01*
X74595000Y79714000D01*
X74575315Y79646961D01*
X74522511Y79601206D01*
X74471000Y79590000D01*
X71781404Y79590000D01*
X71714365Y79609685D01*
X71680383Y79646184D01*
X71679112Y79645231D01*
X71587547Y79767545D01*
X71587544Y79767548D01*
X71472335Y79853794D01*
X71472328Y79853798D01*
X71337482Y79904092D01*
X71337483Y79904092D01*
X71277883Y79910499D01*
X71277881Y79910500D01*
X71277873Y79910500D01*
X71277864Y79910500D01*
X69912129Y79910500D01*
X69912123Y79910499D01*
X69852516Y79904092D01*
X69717671Y79853798D01*
X69717664Y79853794D01*
X69602455Y79767548D01*
X69602452Y79767545D01*
X69510888Y79645231D01*
X69509285Y79646431D01*
X69468025Y79605169D01*
X69408596Y79590000D01*
X67719000Y79590000D01*
X67651961Y79609685D01*
X67606206Y79662489D01*
X67595000Y79714000D01*
X67595000Y81770006D01*
X69137522Y81770006D01*
X69137522Y81769995D01*
X69157399Y81530111D01*
X69216491Y81296760D01*
X69313184Y81076321D01*
X69405882Y80934436D01*
X69956837Y81485392D01*
X69975997Y81439136D01*
X70052439Y81324732D01*
X70149732Y81227439D01*
X70264136Y81150997D01*
X70310390Y81131838D01*
X69758790Y80580239D01*
X69758790Y80580238D01*
X69797832Y80549850D01*
X69797837Y80549847D01*
X70009531Y80435285D01*
X70009545Y80435279D01*
X70237207Y80357121D01*
X70474642Y80317500D01*
X70715358Y80317500D01*
X70952792Y80357121D01*
X71180454Y80435279D01*
X71180468Y80435285D01*
X71392161Y80549847D01*
X71392167Y80549851D01*
X71431208Y80580238D01*
X71431209Y80580239D01*
X70879609Y81131838D01*
X70925864Y81150997D01*
X71040268Y81227439D01*
X71137561Y81324732D01*
X71214003Y81439136D01*
X71233162Y81485391D01*
X71784116Y80934436D01*
X71876811Y81076314D01*
X71876816Y81076322D01*
X71973508Y81296760D01*
X72032600Y81530111D01*
X72052478Y81769995D01*
X72052478Y81770006D01*
X72032600Y82009890D01*
X71973508Y82243241D01*
X71876813Y82463685D01*
X71784116Y82605566D01*
X71233161Y82054611D01*
X71214003Y82100864D01*
X71137561Y82215268D01*
X71040268Y82312561D01*
X70925864Y82389003D01*
X70879607Y82408163D01*
X71431208Y82959763D01*
X71431208Y82959765D01*
X71392173Y82990147D01*
X71392162Y82990154D01*
X71180468Y83104716D01*
X71180454Y83104722D01*
X70952792Y83182880D01*
X70715358Y83222500D01*
X70474642Y83222500D01*
X70237207Y83182880D01*
X70009545Y83104722D01*
X70009531Y83104716D01*
X69797838Y82990154D01*
X69797835Y82990152D01*
X69758789Y82959763D01*
X70310390Y82408163D01*
X70264136Y82389003D01*
X70149732Y82312561D01*
X70052439Y82215268D01*
X69975997Y82100864D01*
X69956837Y82054610D01*
X69405882Y82605566D01*
X69313184Y82463680D01*
X69216491Y82243241D01*
X69157399Y82009890D01*
X69137522Y81770006D01*
X67595000Y81770006D01*
X67595000Y85940014D01*
X70045001Y85940014D01*
X70055494Y85837303D01*
X70110641Y85670881D01*
X70110643Y85670876D01*
X70202684Y85521655D01*
X70326654Y85397685D01*
X70475875Y85305644D01*
X70475880Y85305642D01*
X70642302Y85250495D01*
X70642309Y85250494D01*
X70745019Y85240001D01*
X71544999Y85240001D01*
X72045000Y85240001D01*
X72844972Y85240001D01*
X72844986Y85240002D01*
X72947697Y85250495D01*
X73114119Y85305642D01*
X73114124Y85305644D01*
X73263345Y85397685D01*
X73387315Y85521655D01*
X73479356Y85670876D01*
X73479358Y85670881D01*
X73534505Y85837303D01*
X73534506Y85837310D01*
X73544999Y85940014D01*
X73545000Y85940027D01*
X73545000Y87140000D01*
X72045000Y87140000D01*
X72045000Y85240001D01*
X71544999Y85240001D01*
X71545000Y85240002D01*
X71545000Y87140000D01*
X70045001Y87140000D01*
X70045001Y85940014D01*
X67595000Y85940014D01*
X67595000Y89466000D01*
X67614685Y89533039D01*
X67667489Y89578794D01*
X67719000Y89590000D01*
X70234977Y89590000D01*
X70302016Y89570315D01*
G37*
G04 #@! TD.AperFunction*
G04 #@! TD*
G04 #@! TA.AperFunction,Conductor*
G04 #@! TO.N,PIN_5V_POUR*
G36*
X72826272Y17894834D02*
G01*
X72893152Y17874628D01*
X72912981Y17858520D01*
X73409743Y17361757D01*
X73443228Y17300434D01*
X73446062Y17274290D01*
X73464386Y6664873D01*
X73444817Y6597800D01*
X73392791Y6552277D01*
X73257171Y6489036D01*
X73257169Y6489035D01*
X73063600Y6353497D01*
X72941284Y6231181D01*
X72879961Y6197697D01*
X72810269Y6202681D01*
X72754336Y6244553D01*
X72737421Y6275530D01*
X72688354Y6407087D01*
X72688350Y6407094D01*
X72602190Y6522188D01*
X72602187Y6522191D01*
X72487093Y6608351D01*
X72487086Y6608355D01*
X72352379Y6658597D01*
X72352372Y6658599D01*
X72292844Y6665000D01*
X71645000Y6665000D01*
X71645000Y5748012D01*
X71587993Y5780925D01*
X71460826Y5815000D01*
X71329174Y5815000D01*
X71202007Y5780925D01*
X71145000Y5748012D01*
X71145000Y6665000D01*
X70497155Y6665000D01*
X70437627Y6658599D01*
X70437620Y6658597D01*
X70302913Y6608355D01*
X70302906Y6608351D01*
X70187812Y6522191D01*
X70187809Y6522188D01*
X70101649Y6407094D01*
X70101645Y6407087D01*
X70051403Y6272380D01*
X70051401Y6272373D01*
X70045000Y6212845D01*
X70045000Y5565000D01*
X70961988Y5565000D01*
X70929075Y5507993D01*
X70895000Y5380826D01*
X70895000Y5249174D01*
X70929075Y5122007D01*
X70961988Y5065000D01*
X70045000Y5065000D01*
X70045000Y4417156D01*
X70051401Y4357628D01*
X70051403Y4357621D01*
X70101645Y4222914D01*
X70101649Y4222907D01*
X70187809Y4107813D01*
X70187812Y4107810D01*
X70302906Y4021650D01*
X70302913Y4021646D01*
X70437620Y3971404D01*
X70437627Y3971402D01*
X70497155Y3965001D01*
X70497172Y3965000D01*
X71145000Y3965000D01*
X71145000Y4881988D01*
X71202007Y4849075D01*
X71329174Y4815000D01*
X71460826Y4815000D01*
X71587993Y4849075D01*
X71645000Y4881988D01*
X71645000Y3965000D01*
X72292828Y3965000D01*
X72292844Y3965001D01*
X72352372Y3971402D01*
X72352379Y3971404D01*
X72487086Y4021646D01*
X72487093Y4021650D01*
X72602187Y4107810D01*
X72602190Y4107813D01*
X72688350Y4222907D01*
X72688354Y4222914D01*
X72737422Y4354471D01*
X72779293Y4410405D01*
X72844757Y4434822D01*
X72913030Y4419970D01*
X72941285Y4398819D01*
X73063599Y4276505D01*
X73140135Y4222914D01*
X73257165Y4140968D01*
X73257167Y4140967D01*
X73257170Y4140965D01*
X73397457Y4075548D01*
X73449896Y4029376D01*
X73469052Y3963380D01*
X73469786Y3538469D01*
X73450217Y3471396D01*
X73397492Y3425550D01*
X73346533Y3414257D01*
X69444427Y3390750D01*
X69377270Y3410031D01*
X69331198Y3462558D01*
X69319680Y3514426D01*
X69295310Y13018998D01*
X69314823Y13086087D01*
X69367510Y13131977D01*
X69415956Y13143270D01*
X70220000Y13165000D01*
X70227535Y14596825D01*
X70247572Y14663755D01*
X70300616Y14709232D01*
X70369826Y14718811D01*
X70394867Y14712350D01*
X70437623Y14696403D01*
X70437627Y14696402D01*
X70497155Y14690001D01*
X70497172Y14690000D01*
X71145000Y14690000D01*
X71145000Y15606988D01*
X71202007Y15574075D01*
X71329174Y15540000D01*
X71460826Y15540000D01*
X71587993Y15574075D01*
X71645000Y15606988D01*
X71645000Y14690000D01*
X72292828Y14690000D01*
X72292844Y14690001D01*
X72352372Y14696402D01*
X72352379Y14696404D01*
X72487086Y14746646D01*
X72487093Y14746650D01*
X72602187Y14832810D01*
X72602190Y14832813D01*
X72688350Y14947907D01*
X72688354Y14947914D01*
X72738596Y15082621D01*
X72738598Y15082628D01*
X72744999Y15142156D01*
X72745000Y15142173D01*
X72745000Y15790000D01*
X71828012Y15790000D01*
X71860925Y15847007D01*
X71895000Y15974174D01*
X71895000Y16105826D01*
X71860925Y16232993D01*
X71828012Y16290000D01*
X72745000Y16290000D01*
X72745000Y16937828D01*
X72744999Y16937845D01*
X72738598Y16997373D01*
X72738596Y16997380D01*
X72688354Y17132087D01*
X72688350Y17132094D01*
X72602190Y17247188D01*
X72602187Y17247191D01*
X72487093Y17333351D01*
X72487086Y17333355D01*
X72352379Y17383597D01*
X72352372Y17383599D01*
X72292844Y17390000D01*
X71645000Y17390000D01*
X71645000Y16473012D01*
X71587993Y16505925D01*
X71460826Y16540000D01*
X71329174Y16540000D01*
X71202007Y16505925D01*
X71145000Y16473012D01*
X71145000Y17390000D01*
X70544500Y17390000D01*
X70477461Y17409685D01*
X70431706Y17462489D01*
X70420500Y17514000D01*
X70420500Y17788657D01*
X70440185Y17855696D01*
X70492989Y17901451D01*
X70545467Y17912653D01*
X72826272Y17894834D01*
G37*
G04 #@! TD.AperFunction*
G04 #@! TD*
M02*
