G04 #@! TF.GenerationSoftware,KiCad,Pcbnew,8.0.8*
G04 #@! TF.CreationDate,2026-01-14T14:22:45+11:00*
G04 #@! TF.ProjectId,robotv1,726f626f-7476-4312-9e6b-696361645f70,2*
G04 #@! TF.SameCoordinates,Original*
G04 #@! TF.FileFunction,Legend,Top*
G04 #@! TF.FilePolarity,Positive*
%FSLAX46Y46*%
G04 Gerber Fmt 4.6, Leading zero omitted, Abs format (unit mm)*
G04 Created by KiCad (PCBNEW 8.0.8) date 2026-01-14 14:22:45*
%MOMM*%
%LPD*%
G01*
G04 APERTURE LIST*
G04 Aperture macros list*
%AMRoundRect*
0 Rectangle with rounded corners*
0 $1 Rounding radius*
0 $2 $3 $4 $5 $6 $7 $8 $9 X,Y pos of 4 corners*
0 Add a 4 corners polygon primitive as box body*
4,1,4,$2,$3,$4,$5,$6,$7,$8,$9,$2,$3,0*
0 Add four circle primitives for the rounded corners*
1,1,$1+$1,$2,$3*
1,1,$1+$1,$4,$5*
1,1,$1+$1,$6,$7*
1,1,$1+$1,$8,$9*
0 Add four rect primitives between the rounded corners*
20,1,$1+$1,$2,$3,$4,$5,0*
20,1,$1+$1,$4,$5,$6,$7,0*
20,1,$1+$1,$6,$7,$8,$9,0*
20,1,$1+$1,$8,$9,$2,$3,0*%
G04 Aperture macros list end*
%ADD10C,0.150000*%
%ADD11C,0.400000*%
%ADD12C,0.120000*%
%ADD13C,0.200000*%
%ADD14C,0.127000*%
%ADD15C,0.152400*%
%ADD16C,0.000000*%
%ADD17RoundRect,0.244000X-0.244000X-0.269000X0.244000X-0.269000X0.244000X0.269000X-0.244000X0.269000X0*%
%ADD18R,1.700000X1.700000*%
%ADD19O,1.700000X1.700000*%
%ADD20RoundRect,0.219000X0.294000X-0.219000X0.294000X0.219000X-0.294000X0.219000X-0.294000X-0.219000X0*%
%ADD21RoundRect,0.266521X0.671479X-0.346479X0.671479X0.346479X-0.671479X0.346479X-0.671479X-0.346479X0*%
%ADD22C,0.600000*%
%ADD23R,0.300000X1.400000*%
%ADD24R,0.500000X1.400000*%
%ADD25O,1.300000X2.300000*%
%ADD26O,1.300000X2.100000*%
%ADD27C,0.500000*%
%ADD28RoundRect,0.500000X-2.000000X-1.000000X2.000000X-1.000000X2.000000X1.000000X-2.000000X1.000000X0*%
%ADD29C,1.296000*%
%ADD30RoundRect,0.244000X0.394000X-0.244000X0.394000X0.244000X-0.394000X0.244000X-0.394000X-0.244000X0*%
%ADD31RoundRect,0.250000X0.312500X1.450000X-0.312500X1.450000X-0.312500X-1.450000X0.312500X-1.450000X0*%
%ADD32RoundRect,0.266521X-0.671479X0.346479X-0.671479X-0.346479X0.671479X-0.346479X0.671479X0.346479X0*%
%ADD33RoundRect,0.261500X0.261500X0.476500X-0.261500X0.476500X-0.261500X-0.476500X0.261500X-0.476500X0*%
%ADD34RoundRect,0.102000X1.700000X-0.650000X1.700000X0.650000X-1.700000X0.650000X-1.700000X-0.650000X0*%
%ADD35RoundRect,0.159000X-0.189000X0.159000X-0.189000X-0.159000X0.189000X-0.159000X0.189000X0.159000X0*%
%ADD36C,1.500000*%
%ADD37RoundRect,0.261500X0.476500X-0.261500X0.476500X0.261500X-0.476500X0.261500X-0.476500X-0.261500X0*%
%ADD38RoundRect,0.269000X0.269000X0.494000X-0.269000X0.494000X-0.269000X-0.494000X0.269000X-0.494000X0*%
%ADD39R,1.600000X1.600000*%
%ADD40O,1.600000X1.600000*%
%ADD41RoundRect,0.102000X-0.950000X-2.550000X0.950000X-2.550000X0.950000X2.550000X-0.950000X2.550000X0*%
%ADD42RoundRect,0.267317X-0.470683X0.280683X-0.470683X-0.280683X0.470683X-0.280683X0.470683X0.280683X0*%
%ADD43RoundRect,0.287778X0.489222X0.714222X-0.489222X0.714222X-0.489222X-0.714222X0.489222X-0.714222X0*%
%ADD44RoundRect,0.159000X0.189000X-0.159000X0.189000X0.159000X-0.189000X0.159000X-0.189000X-0.159000X0*%
%ADD45RoundRect,0.100000X-0.100000X0.130000X-0.100000X-0.130000X0.100000X-0.130000X0.100000X0.130000X0*%
%ADD46RoundRect,0.239000X0.239000X0.274000X-0.239000X0.274000X-0.239000X-0.274000X0.239000X-0.274000X0*%
%ADD47RoundRect,0.099250X0.297750X-0.727750X0.297750X0.727750X-0.297750X0.727750X-0.297750X-0.727750X0*%
%ADD48C,1.512000*%
%ADD49RoundRect,0.159000X0.159000X0.189000X-0.159000X0.189000X-0.159000X-0.189000X0.159000X-0.189000X0*%
%ADD50R,2.600000X2.600000*%
%ADD51C,2.600000*%
%ADD52RoundRect,0.267273X0.570727X-0.320727X0.570727X0.320727X-0.570727X0.320727X-0.570727X-0.320727X0*%
%ADD53C,5.200000*%
%ADD54RoundRect,0.219000X-0.219000X-0.294000X0.219000X-0.294000X0.219000X0.294000X-0.219000X0.294000X0*%
%ADD55R,1.498600X4.597400*%
%ADD56RoundRect,0.250000X0.325000X1.100000X-0.325000X1.100000X-0.325000X-1.100000X0.325000X-1.100000X0*%
%ADD57R,1.600200X0.558800*%
%ADD58C,1.905000*%
%ADD59R,2.794000X2.032000*%
%ADD60R,2.540000X1.270000*%
%ADD61R,1.270000X2.540000*%
%ADD62C,1.600000*%
%ADD63RoundRect,0.257600X1.030400X-1.430400X1.030400X1.430400X-1.030400X1.430400X-1.030400X-1.430400X0*%
%ADD64RoundRect,0.150000X-0.512500X-0.150000X0.512500X-0.150000X0.512500X0.150000X-0.512500X0.150000X0*%
%ADD65RoundRect,0.269000X-0.494000X0.269000X-0.494000X-0.269000X0.494000X-0.269000X0.494000X0.269000X0*%
%ADD66C,1.701800*%
G04 APERTURE END LIST*
D10*
X1764819Y43276780D02*
X764819Y43276780D01*
X764819Y43276780D02*
X764819Y43657732D01*
X764819Y43657732D02*
X812438Y43752970D01*
X812438Y43752970D02*
X860057Y43800589D01*
X860057Y43800589D02*
X955295Y43848208D01*
X955295Y43848208D02*
X1098152Y43848208D01*
X1098152Y43848208D02*
X1193390Y43800589D01*
X1193390Y43800589D02*
X1241009Y43752970D01*
X1241009Y43752970D02*
X1288628Y43657732D01*
X1288628Y43657732D02*
X1288628Y43276780D01*
X1764819Y44419637D02*
X1717200Y44324399D01*
X1717200Y44324399D02*
X1669580Y44276780D01*
X1669580Y44276780D02*
X1574342Y44229161D01*
X1574342Y44229161D02*
X1288628Y44229161D01*
X1288628Y44229161D02*
X1193390Y44276780D01*
X1193390Y44276780D02*
X1145771Y44324399D01*
X1145771Y44324399D02*
X1098152Y44419637D01*
X1098152Y44419637D02*
X1098152Y44562494D01*
X1098152Y44562494D02*
X1145771Y44657732D01*
X1145771Y44657732D02*
X1193390Y44705351D01*
X1193390Y44705351D02*
X1288628Y44752970D01*
X1288628Y44752970D02*
X1574342Y44752970D01*
X1574342Y44752970D02*
X1669580Y44705351D01*
X1669580Y44705351D02*
X1717200Y44657732D01*
X1717200Y44657732D02*
X1764819Y44562494D01*
X1764819Y44562494D02*
X1764819Y44419637D01*
X1098152Y45086304D02*
X1764819Y45276780D01*
X1764819Y45276780D02*
X1288628Y45467256D01*
X1288628Y45467256D02*
X1764819Y45657732D01*
X1764819Y45657732D02*
X1098152Y45848208D01*
X1717200Y46610113D02*
X1764819Y46514875D01*
X1764819Y46514875D02*
X1764819Y46324399D01*
X1764819Y46324399D02*
X1717200Y46229161D01*
X1717200Y46229161D02*
X1621961Y46181542D01*
X1621961Y46181542D02*
X1241009Y46181542D01*
X1241009Y46181542D02*
X1145771Y46229161D01*
X1145771Y46229161D02*
X1098152Y46324399D01*
X1098152Y46324399D02*
X1098152Y46514875D01*
X1098152Y46514875D02*
X1145771Y46610113D01*
X1145771Y46610113D02*
X1241009Y46657732D01*
X1241009Y46657732D02*
X1336247Y46657732D01*
X1336247Y46657732D02*
X1431485Y46181542D01*
X1764819Y47086304D02*
X1098152Y47086304D01*
X1288628Y47086304D02*
X1193390Y47133923D01*
X1193390Y47133923D02*
X1145771Y47181542D01*
X1145771Y47181542D02*
X1098152Y47276780D01*
X1098152Y47276780D02*
X1098152Y47372018D01*
X1764819Y48467257D02*
X1098152Y48467257D01*
X1193390Y48467257D02*
X1145771Y48514876D01*
X1145771Y48514876D02*
X1098152Y48610114D01*
X1098152Y48610114D02*
X1098152Y48752971D01*
X1098152Y48752971D02*
X1145771Y48848209D01*
X1145771Y48848209D02*
X1241009Y48895828D01*
X1241009Y48895828D02*
X1764819Y48895828D01*
X1241009Y48895828D02*
X1145771Y48943447D01*
X1145771Y48943447D02*
X1098152Y49038685D01*
X1098152Y49038685D02*
X1098152Y49181542D01*
X1098152Y49181542D02*
X1145771Y49276781D01*
X1145771Y49276781D02*
X1241009Y49324400D01*
X1241009Y49324400D02*
X1764819Y49324400D01*
X1764819Y49943447D02*
X1717200Y49848209D01*
X1717200Y49848209D02*
X1669580Y49800590D01*
X1669580Y49800590D02*
X1574342Y49752971D01*
X1574342Y49752971D02*
X1288628Y49752971D01*
X1288628Y49752971D02*
X1193390Y49800590D01*
X1193390Y49800590D02*
X1145771Y49848209D01*
X1145771Y49848209D02*
X1098152Y49943447D01*
X1098152Y49943447D02*
X1098152Y50086304D01*
X1098152Y50086304D02*
X1145771Y50181542D01*
X1145771Y50181542D02*
X1193390Y50229161D01*
X1193390Y50229161D02*
X1288628Y50276780D01*
X1288628Y50276780D02*
X1574342Y50276780D01*
X1574342Y50276780D02*
X1669580Y50229161D01*
X1669580Y50229161D02*
X1717200Y50181542D01*
X1717200Y50181542D02*
X1764819Y50086304D01*
X1764819Y50086304D02*
X1764819Y49943447D01*
X1098152Y50705352D02*
X1764819Y50705352D01*
X1193390Y50705352D02*
X1145771Y50752971D01*
X1145771Y50752971D02*
X1098152Y50848209D01*
X1098152Y50848209D02*
X1098152Y50991066D01*
X1098152Y50991066D02*
X1145771Y51086304D01*
X1145771Y51086304D02*
X1241009Y51133923D01*
X1241009Y51133923D02*
X1764819Y51133923D01*
X1764819Y51610114D02*
X1098152Y51610114D01*
X764819Y51610114D02*
X812438Y51562495D01*
X812438Y51562495D02*
X860057Y51610114D01*
X860057Y51610114D02*
X812438Y51657733D01*
X812438Y51657733D02*
X764819Y51610114D01*
X764819Y51610114D02*
X860057Y51610114D01*
X1098152Y51943447D02*
X1098152Y52324399D01*
X764819Y52086304D02*
X1621961Y52086304D01*
X1621961Y52086304D02*
X1717200Y52133923D01*
X1717200Y52133923D02*
X1764819Y52229161D01*
X1764819Y52229161D02*
X1764819Y52324399D01*
X1764819Y52800590D02*
X1717200Y52705352D01*
X1717200Y52705352D02*
X1669580Y52657733D01*
X1669580Y52657733D02*
X1574342Y52610114D01*
X1574342Y52610114D02*
X1288628Y52610114D01*
X1288628Y52610114D02*
X1193390Y52657733D01*
X1193390Y52657733D02*
X1145771Y52705352D01*
X1145771Y52705352D02*
X1098152Y52800590D01*
X1098152Y52800590D02*
X1098152Y52943447D01*
X1098152Y52943447D02*
X1145771Y53038685D01*
X1145771Y53038685D02*
X1193390Y53086304D01*
X1193390Y53086304D02*
X1288628Y53133923D01*
X1288628Y53133923D02*
X1574342Y53133923D01*
X1574342Y53133923D02*
X1669580Y53086304D01*
X1669580Y53086304D02*
X1717200Y53038685D01*
X1717200Y53038685D02*
X1764819Y52943447D01*
X1764819Y52943447D02*
X1764819Y52800590D01*
X1764819Y53562495D02*
X1098152Y53562495D01*
X1288628Y53562495D02*
X1193390Y53610114D01*
X1193390Y53610114D02*
X1145771Y53657733D01*
X1145771Y53657733D02*
X1098152Y53752971D01*
X1098152Y53752971D02*
X1098152Y53848209D01*
X1717200Y54895829D02*
X1764819Y55038686D01*
X1764819Y55038686D02*
X1764819Y55276781D01*
X1764819Y55276781D02*
X1717200Y55372019D01*
X1717200Y55372019D02*
X1669580Y55419638D01*
X1669580Y55419638D02*
X1574342Y55467257D01*
X1574342Y55467257D02*
X1479104Y55467257D01*
X1479104Y55467257D02*
X1383866Y55419638D01*
X1383866Y55419638D02*
X1336247Y55372019D01*
X1336247Y55372019D02*
X1288628Y55276781D01*
X1288628Y55276781D02*
X1241009Y55086305D01*
X1241009Y55086305D02*
X1193390Y54991067D01*
X1193390Y54991067D02*
X1145771Y54943448D01*
X1145771Y54943448D02*
X1050533Y54895829D01*
X1050533Y54895829D02*
X955295Y54895829D01*
X955295Y54895829D02*
X860057Y54943448D01*
X860057Y54943448D02*
X812438Y54991067D01*
X812438Y54991067D02*
X764819Y55086305D01*
X764819Y55086305D02*
X764819Y55324400D01*
X764819Y55324400D02*
X812438Y55467257D01*
X1764819Y55895829D02*
X764819Y55895829D01*
X764819Y55895829D02*
X764819Y56276781D01*
X764819Y56276781D02*
X812438Y56372019D01*
X812438Y56372019D02*
X860057Y56419638D01*
X860057Y56419638D02*
X955295Y56467257D01*
X955295Y56467257D02*
X1098152Y56467257D01*
X1098152Y56467257D02*
X1193390Y56419638D01*
X1193390Y56419638D02*
X1241009Y56372019D01*
X1241009Y56372019D02*
X1288628Y56276781D01*
X1288628Y56276781D02*
X1288628Y55895829D01*
X1764819Y56895829D02*
X764819Y56895829D01*
X36439819Y70851780D02*
X35439819Y70851780D01*
X35439819Y70851780D02*
X36154104Y71185113D01*
X36154104Y71185113D02*
X35439819Y71518446D01*
X35439819Y71518446D02*
X36439819Y71518446D01*
X36439819Y72137494D02*
X36392200Y72042256D01*
X36392200Y72042256D02*
X36344580Y71994637D01*
X36344580Y71994637D02*
X36249342Y71947018D01*
X36249342Y71947018D02*
X35963628Y71947018D01*
X35963628Y71947018D02*
X35868390Y71994637D01*
X35868390Y71994637D02*
X35820771Y72042256D01*
X35820771Y72042256D02*
X35773152Y72137494D01*
X35773152Y72137494D02*
X35773152Y72280351D01*
X35773152Y72280351D02*
X35820771Y72375589D01*
X35820771Y72375589D02*
X35868390Y72423208D01*
X35868390Y72423208D02*
X35963628Y72470827D01*
X35963628Y72470827D02*
X36249342Y72470827D01*
X36249342Y72470827D02*
X36344580Y72423208D01*
X36344580Y72423208D02*
X36392200Y72375589D01*
X36392200Y72375589D02*
X36439819Y72280351D01*
X36439819Y72280351D02*
X36439819Y72137494D01*
X35773152Y72756542D02*
X35773152Y73137494D01*
X35439819Y72899399D02*
X36296961Y72899399D01*
X36296961Y72899399D02*
X36392200Y72947018D01*
X36392200Y72947018D02*
X36439819Y73042256D01*
X36439819Y73042256D02*
X36439819Y73137494D01*
X36439819Y73613685D02*
X36392200Y73518447D01*
X36392200Y73518447D02*
X36344580Y73470828D01*
X36344580Y73470828D02*
X36249342Y73423209D01*
X36249342Y73423209D02*
X35963628Y73423209D01*
X35963628Y73423209D02*
X35868390Y73470828D01*
X35868390Y73470828D02*
X35820771Y73518447D01*
X35820771Y73518447D02*
X35773152Y73613685D01*
X35773152Y73613685D02*
X35773152Y73756542D01*
X35773152Y73756542D02*
X35820771Y73851780D01*
X35820771Y73851780D02*
X35868390Y73899399D01*
X35868390Y73899399D02*
X35963628Y73947018D01*
X35963628Y73947018D02*
X36249342Y73947018D01*
X36249342Y73947018D02*
X36344580Y73899399D01*
X36344580Y73899399D02*
X36392200Y73851780D01*
X36392200Y73851780D02*
X36439819Y73756542D01*
X36439819Y73756542D02*
X36439819Y73613685D01*
X36439819Y74375590D02*
X35773152Y74375590D01*
X35963628Y74375590D02*
X35868390Y74423209D01*
X35868390Y74423209D02*
X35820771Y74470828D01*
X35820771Y74470828D02*
X35773152Y74566066D01*
X35773152Y74566066D02*
X35773152Y74661304D01*
X36392200Y76185114D02*
X36439819Y76089876D01*
X36439819Y76089876D02*
X36439819Y75899400D01*
X36439819Y75899400D02*
X36392200Y75804162D01*
X36392200Y75804162D02*
X36344580Y75756543D01*
X36344580Y75756543D02*
X36249342Y75708924D01*
X36249342Y75708924D02*
X35963628Y75708924D01*
X35963628Y75708924D02*
X35868390Y75756543D01*
X35868390Y75756543D02*
X35820771Y75804162D01*
X35820771Y75804162D02*
X35773152Y75899400D01*
X35773152Y75899400D02*
X35773152Y76089876D01*
X35773152Y76089876D02*
X35820771Y76185114D01*
X36439819Y76756543D02*
X36392200Y76661305D01*
X36392200Y76661305D02*
X36344580Y76613686D01*
X36344580Y76613686D02*
X36249342Y76566067D01*
X36249342Y76566067D02*
X35963628Y76566067D01*
X35963628Y76566067D02*
X35868390Y76613686D01*
X35868390Y76613686D02*
X35820771Y76661305D01*
X35820771Y76661305D02*
X35773152Y76756543D01*
X35773152Y76756543D02*
X35773152Y76899400D01*
X35773152Y76899400D02*
X35820771Y76994638D01*
X35820771Y76994638D02*
X35868390Y77042257D01*
X35868390Y77042257D02*
X35963628Y77089876D01*
X35963628Y77089876D02*
X36249342Y77089876D01*
X36249342Y77089876D02*
X36344580Y77042257D01*
X36344580Y77042257D02*
X36392200Y76994638D01*
X36392200Y76994638D02*
X36439819Y76899400D01*
X36439819Y76899400D02*
X36439819Y76756543D01*
X35773152Y77518448D02*
X36439819Y77518448D01*
X35868390Y77518448D02*
X35820771Y77566067D01*
X35820771Y77566067D02*
X35773152Y77661305D01*
X35773152Y77661305D02*
X35773152Y77804162D01*
X35773152Y77804162D02*
X35820771Y77899400D01*
X35820771Y77899400D02*
X35916009Y77947019D01*
X35916009Y77947019D02*
X36439819Y77947019D01*
X35773152Y78280353D02*
X35773152Y78661305D01*
X35439819Y78423210D02*
X36296961Y78423210D01*
X36296961Y78423210D02*
X36392200Y78470829D01*
X36392200Y78470829D02*
X36439819Y78566067D01*
X36439819Y78566067D02*
X36439819Y78661305D01*
X36439819Y78994639D02*
X35773152Y78994639D01*
X35963628Y78994639D02*
X35868390Y79042258D01*
X35868390Y79042258D02*
X35820771Y79089877D01*
X35820771Y79089877D02*
X35773152Y79185115D01*
X35773152Y79185115D02*
X35773152Y79280353D01*
X36439819Y79756544D02*
X36392200Y79661306D01*
X36392200Y79661306D02*
X36344580Y79613687D01*
X36344580Y79613687D02*
X36249342Y79566068D01*
X36249342Y79566068D02*
X35963628Y79566068D01*
X35963628Y79566068D02*
X35868390Y79613687D01*
X35868390Y79613687D02*
X35820771Y79661306D01*
X35820771Y79661306D02*
X35773152Y79756544D01*
X35773152Y79756544D02*
X35773152Y79899401D01*
X35773152Y79899401D02*
X35820771Y79994639D01*
X35820771Y79994639D02*
X35868390Y80042258D01*
X35868390Y80042258D02*
X35963628Y80089877D01*
X35963628Y80089877D02*
X36249342Y80089877D01*
X36249342Y80089877D02*
X36344580Y80042258D01*
X36344580Y80042258D02*
X36392200Y79994639D01*
X36392200Y79994639D02*
X36439819Y79899401D01*
X36439819Y79899401D02*
X36439819Y79756544D01*
X36439819Y80661306D02*
X36392200Y80566068D01*
X36392200Y80566068D02*
X36296961Y80518449D01*
X36296961Y80518449D02*
X35439819Y80518449D01*
X36439819Y81947021D02*
X36392200Y81851783D01*
X36392200Y81851783D02*
X36344580Y81804164D01*
X36344580Y81804164D02*
X36249342Y81756545D01*
X36249342Y81756545D02*
X35963628Y81756545D01*
X35963628Y81756545D02*
X35868390Y81804164D01*
X35868390Y81804164D02*
X35820771Y81851783D01*
X35820771Y81851783D02*
X35773152Y81947021D01*
X35773152Y81947021D02*
X35773152Y82089878D01*
X35773152Y82089878D02*
X35820771Y82185116D01*
X35820771Y82185116D02*
X35868390Y82232735D01*
X35868390Y82232735D02*
X35963628Y82280354D01*
X35963628Y82280354D02*
X36249342Y82280354D01*
X36249342Y82280354D02*
X36344580Y82232735D01*
X36344580Y82232735D02*
X36392200Y82185116D01*
X36392200Y82185116D02*
X36439819Y82089878D01*
X36439819Y82089878D02*
X36439819Y81947021D01*
X35773152Y83137497D02*
X36439819Y83137497D01*
X35773152Y82708926D02*
X36296961Y82708926D01*
X36296961Y82708926D02*
X36392200Y82756545D01*
X36392200Y82756545D02*
X36439819Y82851783D01*
X36439819Y82851783D02*
X36439819Y82994640D01*
X36439819Y82994640D02*
X36392200Y83089878D01*
X36392200Y83089878D02*
X36344580Y83137497D01*
X35773152Y83470831D02*
X35773152Y83851783D01*
X35439819Y83613688D02*
X36296961Y83613688D01*
X36296961Y83613688D02*
X36392200Y83661307D01*
X36392200Y83661307D02*
X36439819Y83756545D01*
X36439819Y83756545D02*
X36439819Y83851783D01*
X7464819Y65976780D02*
X6464819Y65976780D01*
X6464819Y65976780D02*
X7179104Y66310113D01*
X7179104Y66310113D02*
X6464819Y66643446D01*
X6464819Y66643446D02*
X7464819Y66643446D01*
X7464819Y67262494D02*
X7417200Y67167256D01*
X7417200Y67167256D02*
X7369580Y67119637D01*
X7369580Y67119637D02*
X7274342Y67072018D01*
X7274342Y67072018D02*
X6988628Y67072018D01*
X6988628Y67072018D02*
X6893390Y67119637D01*
X6893390Y67119637D02*
X6845771Y67167256D01*
X6845771Y67167256D02*
X6798152Y67262494D01*
X6798152Y67262494D02*
X6798152Y67405351D01*
X6798152Y67405351D02*
X6845771Y67500589D01*
X6845771Y67500589D02*
X6893390Y67548208D01*
X6893390Y67548208D02*
X6988628Y67595827D01*
X6988628Y67595827D02*
X7274342Y67595827D01*
X7274342Y67595827D02*
X7369580Y67548208D01*
X7369580Y67548208D02*
X7417200Y67500589D01*
X7417200Y67500589D02*
X7464819Y67405351D01*
X7464819Y67405351D02*
X7464819Y67262494D01*
X6798152Y67881542D02*
X6798152Y68262494D01*
X6464819Y68024399D02*
X7321961Y68024399D01*
X7321961Y68024399D02*
X7417200Y68072018D01*
X7417200Y68072018D02*
X7464819Y68167256D01*
X7464819Y68167256D02*
X7464819Y68262494D01*
X7464819Y68738685D02*
X7417200Y68643447D01*
X7417200Y68643447D02*
X7369580Y68595828D01*
X7369580Y68595828D02*
X7274342Y68548209D01*
X7274342Y68548209D02*
X6988628Y68548209D01*
X6988628Y68548209D02*
X6893390Y68595828D01*
X6893390Y68595828D02*
X6845771Y68643447D01*
X6845771Y68643447D02*
X6798152Y68738685D01*
X6798152Y68738685D02*
X6798152Y68881542D01*
X6798152Y68881542D02*
X6845771Y68976780D01*
X6845771Y68976780D02*
X6893390Y69024399D01*
X6893390Y69024399D02*
X6988628Y69072018D01*
X6988628Y69072018D02*
X7274342Y69072018D01*
X7274342Y69072018D02*
X7369580Y69024399D01*
X7369580Y69024399D02*
X7417200Y68976780D01*
X7417200Y68976780D02*
X7464819Y68881542D01*
X7464819Y68881542D02*
X7464819Y68738685D01*
X7464819Y69500590D02*
X6798152Y69500590D01*
X6988628Y69500590D02*
X6893390Y69548209D01*
X6893390Y69548209D02*
X6845771Y69595828D01*
X6845771Y69595828D02*
X6798152Y69691066D01*
X6798152Y69691066D02*
X6798152Y69786304D01*
X7417200Y71310114D02*
X7464819Y71214876D01*
X7464819Y71214876D02*
X7464819Y71024400D01*
X7464819Y71024400D02*
X7417200Y70929162D01*
X7417200Y70929162D02*
X7369580Y70881543D01*
X7369580Y70881543D02*
X7274342Y70833924D01*
X7274342Y70833924D02*
X6988628Y70833924D01*
X6988628Y70833924D02*
X6893390Y70881543D01*
X6893390Y70881543D02*
X6845771Y70929162D01*
X6845771Y70929162D02*
X6798152Y71024400D01*
X6798152Y71024400D02*
X6798152Y71214876D01*
X6798152Y71214876D02*
X6845771Y71310114D01*
X7464819Y71881543D02*
X7417200Y71786305D01*
X7417200Y71786305D02*
X7369580Y71738686D01*
X7369580Y71738686D02*
X7274342Y71691067D01*
X7274342Y71691067D02*
X6988628Y71691067D01*
X6988628Y71691067D02*
X6893390Y71738686D01*
X6893390Y71738686D02*
X6845771Y71786305D01*
X6845771Y71786305D02*
X6798152Y71881543D01*
X6798152Y71881543D02*
X6798152Y72024400D01*
X6798152Y72024400D02*
X6845771Y72119638D01*
X6845771Y72119638D02*
X6893390Y72167257D01*
X6893390Y72167257D02*
X6988628Y72214876D01*
X6988628Y72214876D02*
X7274342Y72214876D01*
X7274342Y72214876D02*
X7369580Y72167257D01*
X7369580Y72167257D02*
X7417200Y72119638D01*
X7417200Y72119638D02*
X7464819Y72024400D01*
X7464819Y72024400D02*
X7464819Y71881543D01*
X6798152Y72643448D02*
X7464819Y72643448D01*
X6893390Y72643448D02*
X6845771Y72691067D01*
X6845771Y72691067D02*
X6798152Y72786305D01*
X6798152Y72786305D02*
X6798152Y72929162D01*
X6798152Y72929162D02*
X6845771Y73024400D01*
X6845771Y73024400D02*
X6941009Y73072019D01*
X6941009Y73072019D02*
X7464819Y73072019D01*
X6798152Y73405353D02*
X6798152Y73786305D01*
X6464819Y73548210D02*
X7321961Y73548210D01*
X7321961Y73548210D02*
X7417200Y73595829D01*
X7417200Y73595829D02*
X7464819Y73691067D01*
X7464819Y73691067D02*
X7464819Y73786305D01*
X7464819Y74119639D02*
X6798152Y74119639D01*
X6988628Y74119639D02*
X6893390Y74167258D01*
X6893390Y74167258D02*
X6845771Y74214877D01*
X6845771Y74214877D02*
X6798152Y74310115D01*
X6798152Y74310115D02*
X6798152Y74405353D01*
X7464819Y74881544D02*
X7417200Y74786306D01*
X7417200Y74786306D02*
X7369580Y74738687D01*
X7369580Y74738687D02*
X7274342Y74691068D01*
X7274342Y74691068D02*
X6988628Y74691068D01*
X6988628Y74691068D02*
X6893390Y74738687D01*
X6893390Y74738687D02*
X6845771Y74786306D01*
X6845771Y74786306D02*
X6798152Y74881544D01*
X6798152Y74881544D02*
X6798152Y75024401D01*
X6798152Y75024401D02*
X6845771Y75119639D01*
X6845771Y75119639D02*
X6893390Y75167258D01*
X6893390Y75167258D02*
X6988628Y75214877D01*
X6988628Y75214877D02*
X7274342Y75214877D01*
X7274342Y75214877D02*
X7369580Y75167258D01*
X7369580Y75167258D02*
X7417200Y75119639D01*
X7417200Y75119639D02*
X7464819Y75024401D01*
X7464819Y75024401D02*
X7464819Y74881544D01*
X7464819Y75786306D02*
X7417200Y75691068D01*
X7417200Y75691068D02*
X7321961Y75643449D01*
X7321961Y75643449D02*
X6464819Y75643449D01*
X7464819Y76929164D02*
X6798152Y76929164D01*
X6464819Y76929164D02*
X6512438Y76881545D01*
X6512438Y76881545D02*
X6560057Y76929164D01*
X6560057Y76929164D02*
X6512438Y76976783D01*
X6512438Y76976783D02*
X6464819Y76929164D01*
X6464819Y76929164D02*
X6560057Y76929164D01*
X6798152Y77405354D02*
X7464819Y77405354D01*
X6893390Y77405354D02*
X6845771Y77452973D01*
X6845771Y77452973D02*
X6798152Y77548211D01*
X6798152Y77548211D02*
X6798152Y77691068D01*
X6798152Y77691068D02*
X6845771Y77786306D01*
X6845771Y77786306D02*
X6941009Y77833925D01*
X6941009Y77833925D02*
X7464819Y77833925D01*
X91931779Y88401134D02*
X92693684Y88401134D01*
X92312731Y88020181D02*
X92312731Y88782086D01*
X5956779Y48820181D02*
X5956779Y49820181D01*
X5956779Y49820181D02*
X6290112Y49105896D01*
X6290112Y49105896D02*
X6623445Y49820181D01*
X6623445Y49820181D02*
X6623445Y48820181D01*
X7290112Y49820181D02*
X7480588Y49820181D01*
X7480588Y49820181D02*
X7575826Y49772562D01*
X7575826Y49772562D02*
X7671064Y49677324D01*
X7671064Y49677324D02*
X7718683Y49486848D01*
X7718683Y49486848D02*
X7718683Y49153515D01*
X7718683Y49153515D02*
X7671064Y48963039D01*
X7671064Y48963039D02*
X7575826Y48867800D01*
X7575826Y48867800D02*
X7480588Y48820181D01*
X7480588Y48820181D02*
X7290112Y48820181D01*
X7290112Y48820181D02*
X7194874Y48867800D01*
X7194874Y48867800D02*
X7099636Y48963039D01*
X7099636Y48963039D02*
X7052017Y49153515D01*
X7052017Y49153515D02*
X7052017Y49486848D01*
X7052017Y49486848D02*
X7099636Y49677324D01*
X7099636Y49677324D02*
X7194874Y49772562D01*
X7194874Y49772562D02*
X7290112Y49820181D01*
X8099636Y48867800D02*
X8242493Y48820181D01*
X8242493Y48820181D02*
X8480588Y48820181D01*
X8480588Y48820181D02*
X8575826Y48867800D01*
X8575826Y48867800D02*
X8623445Y48915420D01*
X8623445Y48915420D02*
X8671064Y49010658D01*
X8671064Y49010658D02*
X8671064Y49105896D01*
X8671064Y49105896D02*
X8623445Y49201134D01*
X8623445Y49201134D02*
X8575826Y49248753D01*
X8575826Y49248753D02*
X8480588Y49296372D01*
X8480588Y49296372D02*
X8290112Y49343991D01*
X8290112Y49343991D02*
X8194874Y49391610D01*
X8194874Y49391610D02*
X8147255Y49439229D01*
X8147255Y49439229D02*
X8099636Y49534467D01*
X8099636Y49534467D02*
X8099636Y49629705D01*
X8099636Y49629705D02*
X8147255Y49724943D01*
X8147255Y49724943D02*
X8194874Y49772562D01*
X8194874Y49772562D02*
X8290112Y49820181D01*
X8290112Y49820181D02*
X8528207Y49820181D01*
X8528207Y49820181D02*
X8671064Y49772562D01*
X9099636Y48820181D02*
X9099636Y49820181D01*
X80765112Y18043991D02*
X80907969Y17996372D01*
X80907969Y17996372D02*
X80955588Y17948753D01*
X80955588Y17948753D02*
X81003207Y17853515D01*
X81003207Y17853515D02*
X81003207Y17710658D01*
X81003207Y17710658D02*
X80955588Y17615420D01*
X80955588Y17615420D02*
X80907969Y17567800D01*
X80907969Y17567800D02*
X80812731Y17520181D01*
X80812731Y17520181D02*
X80431779Y17520181D01*
X80431779Y17520181D02*
X80431779Y18520181D01*
X80431779Y18520181D02*
X80765112Y18520181D01*
X80765112Y18520181D02*
X80860350Y18472562D01*
X80860350Y18472562D02*
X80907969Y18424943D01*
X80907969Y18424943D02*
X80955588Y18329705D01*
X80955588Y18329705D02*
X80955588Y18234467D01*
X80955588Y18234467D02*
X80907969Y18139229D01*
X80907969Y18139229D02*
X80860350Y18091610D01*
X80860350Y18091610D02*
X80765112Y18043991D01*
X80765112Y18043991D02*
X80431779Y18043991D01*
X81860350Y17520181D02*
X81860350Y18043991D01*
X81860350Y18043991D02*
X81812731Y18139229D01*
X81812731Y18139229D02*
X81717493Y18186848D01*
X81717493Y18186848D02*
X81527017Y18186848D01*
X81527017Y18186848D02*
X81431779Y18139229D01*
X81860350Y17567800D02*
X81765112Y17520181D01*
X81765112Y17520181D02*
X81527017Y17520181D01*
X81527017Y17520181D02*
X81431779Y17567800D01*
X81431779Y17567800D02*
X81384160Y17663039D01*
X81384160Y17663039D02*
X81384160Y17758277D01*
X81384160Y17758277D02*
X81431779Y17853515D01*
X81431779Y17853515D02*
X81527017Y17901134D01*
X81527017Y17901134D02*
X81765112Y17901134D01*
X81765112Y17901134D02*
X81860350Y17948753D01*
X82193684Y18186848D02*
X82574636Y18186848D01*
X82336541Y18520181D02*
X82336541Y17663039D01*
X82336541Y17663039D02*
X82384160Y17567800D01*
X82384160Y17567800D02*
X82479398Y17520181D01*
X82479398Y17520181D02*
X82574636Y17520181D01*
X82765113Y18186848D02*
X83146065Y18186848D01*
X82907970Y18520181D02*
X82907970Y17663039D01*
X82907970Y17663039D02*
X82955589Y17567800D01*
X82955589Y17567800D02*
X83050827Y17520181D01*
X83050827Y17520181D02*
X83146065Y17520181D01*
X83860351Y17567800D02*
X83765113Y17520181D01*
X83765113Y17520181D02*
X83574637Y17520181D01*
X83574637Y17520181D02*
X83479399Y17567800D01*
X83479399Y17567800D02*
X83431780Y17663039D01*
X83431780Y17663039D02*
X83431780Y18043991D01*
X83431780Y18043991D02*
X83479399Y18139229D01*
X83479399Y18139229D02*
X83574637Y18186848D01*
X83574637Y18186848D02*
X83765113Y18186848D01*
X83765113Y18186848D02*
X83860351Y18139229D01*
X83860351Y18139229D02*
X83907970Y18043991D01*
X83907970Y18043991D02*
X83907970Y17948753D01*
X83907970Y17948753D02*
X83431780Y17853515D01*
X84336542Y17520181D02*
X84336542Y18186848D01*
X84336542Y17996372D02*
X84384161Y18091610D01*
X84384161Y18091610D02*
X84431780Y18139229D01*
X84431780Y18139229D02*
X84527018Y18186848D01*
X84527018Y18186848D02*
X84622256Y18186848D01*
X84860352Y18186848D02*
X85098447Y17520181D01*
X85336542Y18186848D02*
X85098447Y17520181D01*
X85098447Y17520181D02*
X85003209Y17282086D01*
X85003209Y17282086D02*
X84955590Y17234467D01*
X84955590Y17234467D02*
X84860352Y17186848D01*
X55106779Y15620181D02*
X55106779Y16620181D01*
X55106779Y16620181D02*
X55487731Y16620181D01*
X55487731Y16620181D02*
X55582969Y16572562D01*
X55582969Y16572562D02*
X55630588Y16524943D01*
X55630588Y16524943D02*
X55678207Y16429705D01*
X55678207Y16429705D02*
X55678207Y16286848D01*
X55678207Y16286848D02*
X55630588Y16191610D01*
X55630588Y16191610D02*
X55582969Y16143991D01*
X55582969Y16143991D02*
X55487731Y16096372D01*
X55487731Y16096372D02*
X55106779Y16096372D01*
X56249636Y15620181D02*
X56154398Y15667800D01*
X56154398Y15667800D02*
X56106779Y15715420D01*
X56106779Y15715420D02*
X56059160Y15810658D01*
X56059160Y15810658D02*
X56059160Y16096372D01*
X56059160Y16096372D02*
X56106779Y16191610D01*
X56106779Y16191610D02*
X56154398Y16239229D01*
X56154398Y16239229D02*
X56249636Y16286848D01*
X56249636Y16286848D02*
X56392493Y16286848D01*
X56392493Y16286848D02*
X56487731Y16239229D01*
X56487731Y16239229D02*
X56535350Y16191610D01*
X56535350Y16191610D02*
X56582969Y16096372D01*
X56582969Y16096372D02*
X56582969Y15810658D01*
X56582969Y15810658D02*
X56535350Y15715420D01*
X56535350Y15715420D02*
X56487731Y15667800D01*
X56487731Y15667800D02*
X56392493Y15620181D01*
X56392493Y15620181D02*
X56249636Y15620181D01*
X56916303Y16286848D02*
X57106779Y15620181D01*
X57106779Y15620181D02*
X57297255Y16096372D01*
X57297255Y16096372D02*
X57487731Y15620181D01*
X57487731Y15620181D02*
X57678207Y16286848D01*
X58440112Y15667800D02*
X58344874Y15620181D01*
X58344874Y15620181D02*
X58154398Y15620181D01*
X58154398Y15620181D02*
X58059160Y15667800D01*
X58059160Y15667800D02*
X58011541Y15763039D01*
X58011541Y15763039D02*
X58011541Y16143991D01*
X58011541Y16143991D02*
X58059160Y16239229D01*
X58059160Y16239229D02*
X58154398Y16286848D01*
X58154398Y16286848D02*
X58344874Y16286848D01*
X58344874Y16286848D02*
X58440112Y16239229D01*
X58440112Y16239229D02*
X58487731Y16143991D01*
X58487731Y16143991D02*
X58487731Y16048753D01*
X58487731Y16048753D02*
X58011541Y15953515D01*
X58916303Y15620181D02*
X58916303Y16286848D01*
X58916303Y16096372D02*
X58963922Y16191610D01*
X58963922Y16191610D02*
X59011541Y16239229D01*
X59011541Y16239229D02*
X59106779Y16286848D01*
X59106779Y16286848D02*
X59202017Y16286848D01*
X60249637Y15667800D02*
X60344875Y15620181D01*
X60344875Y15620181D02*
X60535351Y15620181D01*
X60535351Y15620181D02*
X60630589Y15667800D01*
X60630589Y15667800D02*
X60678208Y15763039D01*
X60678208Y15763039D02*
X60678208Y15810658D01*
X60678208Y15810658D02*
X60630589Y15905896D01*
X60630589Y15905896D02*
X60535351Y15953515D01*
X60535351Y15953515D02*
X60392494Y15953515D01*
X60392494Y15953515D02*
X60297256Y16001134D01*
X60297256Y16001134D02*
X60249637Y16096372D01*
X60249637Y16096372D02*
X60249637Y16143991D01*
X60249637Y16143991D02*
X60297256Y16239229D01*
X60297256Y16239229D02*
X60392494Y16286848D01*
X60392494Y16286848D02*
X60535351Y16286848D01*
X60535351Y16286848D02*
X60630589Y16239229D01*
X61487732Y15667800D02*
X61392494Y15620181D01*
X61392494Y15620181D02*
X61202018Y15620181D01*
X61202018Y15620181D02*
X61106780Y15667800D01*
X61106780Y15667800D02*
X61059161Y15763039D01*
X61059161Y15763039D02*
X61059161Y16143991D01*
X61059161Y16143991D02*
X61106780Y16239229D01*
X61106780Y16239229D02*
X61202018Y16286848D01*
X61202018Y16286848D02*
X61392494Y16286848D01*
X61392494Y16286848D02*
X61487732Y16239229D01*
X61487732Y16239229D02*
X61535351Y16143991D01*
X61535351Y16143991D02*
X61535351Y16048753D01*
X61535351Y16048753D02*
X61059161Y15953515D01*
X62106780Y15620181D02*
X62011542Y15667800D01*
X62011542Y15667800D02*
X61963923Y15763039D01*
X61963923Y15763039D02*
X61963923Y16620181D01*
X62868685Y15667800D02*
X62773447Y15620181D01*
X62773447Y15620181D02*
X62582971Y15620181D01*
X62582971Y15620181D02*
X62487733Y15667800D01*
X62487733Y15667800D02*
X62440114Y15763039D01*
X62440114Y15763039D02*
X62440114Y16143991D01*
X62440114Y16143991D02*
X62487733Y16239229D01*
X62487733Y16239229D02*
X62582971Y16286848D01*
X62582971Y16286848D02*
X62773447Y16286848D01*
X62773447Y16286848D02*
X62868685Y16239229D01*
X62868685Y16239229D02*
X62916304Y16143991D01*
X62916304Y16143991D02*
X62916304Y16048753D01*
X62916304Y16048753D02*
X62440114Y15953515D01*
X63773447Y15667800D02*
X63678209Y15620181D01*
X63678209Y15620181D02*
X63487733Y15620181D01*
X63487733Y15620181D02*
X63392495Y15667800D01*
X63392495Y15667800D02*
X63344876Y15715420D01*
X63344876Y15715420D02*
X63297257Y15810658D01*
X63297257Y15810658D02*
X63297257Y16096372D01*
X63297257Y16096372D02*
X63344876Y16191610D01*
X63344876Y16191610D02*
X63392495Y16239229D01*
X63392495Y16239229D02*
X63487733Y16286848D01*
X63487733Y16286848D02*
X63678209Y16286848D01*
X63678209Y16286848D02*
X63773447Y16239229D01*
X64059162Y16286848D02*
X64440114Y16286848D01*
X64202019Y16620181D02*
X64202019Y15763039D01*
X64202019Y15763039D02*
X64249638Y15667800D01*
X64249638Y15667800D02*
X64344876Y15620181D01*
X64344876Y15620181D02*
X64440114Y15620181D01*
X91565112Y31568991D02*
X91707969Y31521372D01*
X91707969Y31521372D02*
X91755588Y31473753D01*
X91755588Y31473753D02*
X91803207Y31378515D01*
X91803207Y31378515D02*
X91803207Y31235658D01*
X91803207Y31235658D02*
X91755588Y31140420D01*
X91755588Y31140420D02*
X91707969Y31092800D01*
X91707969Y31092800D02*
X91612731Y31045181D01*
X91612731Y31045181D02*
X91231779Y31045181D01*
X91231779Y31045181D02*
X91231779Y32045181D01*
X91231779Y32045181D02*
X91565112Y32045181D01*
X91565112Y32045181D02*
X91660350Y31997562D01*
X91660350Y31997562D02*
X91707969Y31949943D01*
X91707969Y31949943D02*
X91755588Y31854705D01*
X91755588Y31854705D02*
X91755588Y31759467D01*
X91755588Y31759467D02*
X91707969Y31664229D01*
X91707969Y31664229D02*
X91660350Y31616610D01*
X91660350Y31616610D02*
X91565112Y31568991D01*
X91565112Y31568991D02*
X91231779Y31568991D01*
X92660350Y31711848D02*
X92660350Y31045181D01*
X92231779Y31711848D02*
X92231779Y31188039D01*
X92231779Y31188039D02*
X92279398Y31092800D01*
X92279398Y31092800D02*
X92374636Y31045181D01*
X92374636Y31045181D02*
X92517493Y31045181D01*
X92517493Y31045181D02*
X92612731Y31092800D01*
X92612731Y31092800D02*
X92660350Y31140420D01*
X93041303Y31711848D02*
X93565112Y31711848D01*
X93565112Y31711848D02*
X93041303Y31045181D01*
X93041303Y31045181D02*
X93565112Y31045181D01*
X93850827Y31711848D02*
X94374636Y31711848D01*
X94374636Y31711848D02*
X93850827Y31045181D01*
X93850827Y31045181D02*
X94374636Y31045181D01*
X95136541Y31092800D02*
X95041303Y31045181D01*
X95041303Y31045181D02*
X94850827Y31045181D01*
X94850827Y31045181D02*
X94755589Y31092800D01*
X94755589Y31092800D02*
X94707970Y31188039D01*
X94707970Y31188039D02*
X94707970Y31568991D01*
X94707970Y31568991D02*
X94755589Y31664229D01*
X94755589Y31664229D02*
X94850827Y31711848D01*
X94850827Y31711848D02*
X95041303Y31711848D01*
X95041303Y31711848D02*
X95136541Y31664229D01*
X95136541Y31664229D02*
X95184160Y31568991D01*
X95184160Y31568991D02*
X95184160Y31473753D01*
X95184160Y31473753D02*
X94707970Y31378515D01*
X95612732Y31045181D02*
X95612732Y31711848D01*
X95612732Y31521372D02*
X95660351Y31616610D01*
X95660351Y31616610D02*
X95707970Y31664229D01*
X95707970Y31664229D02*
X95803208Y31711848D01*
X95803208Y31711848D02*
X95898446Y31711848D01*
X43514819Y6231542D02*
X43514819Y6850589D01*
X43514819Y6850589D02*
X43895771Y6517256D01*
X43895771Y6517256D02*
X43895771Y6660113D01*
X43895771Y6660113D02*
X43943390Y6755351D01*
X43943390Y6755351D02*
X43991009Y6802970D01*
X43991009Y6802970D02*
X44086247Y6850589D01*
X44086247Y6850589D02*
X44324342Y6850589D01*
X44324342Y6850589D02*
X44419580Y6802970D01*
X44419580Y6802970D02*
X44467200Y6755351D01*
X44467200Y6755351D02*
X44514819Y6660113D01*
X44514819Y6660113D02*
X44514819Y6374399D01*
X44514819Y6374399D02*
X44467200Y6279161D01*
X44467200Y6279161D02*
X44419580Y6231542D01*
X43514819Y7136304D02*
X44514819Y7469637D01*
X44514819Y7469637D02*
X43514819Y7802970D01*
X43514819Y8041066D02*
X43514819Y8660113D01*
X43514819Y8660113D02*
X43895771Y8326780D01*
X43895771Y8326780D02*
X43895771Y8469637D01*
X43895771Y8469637D02*
X43943390Y8564875D01*
X43943390Y8564875D02*
X43991009Y8612494D01*
X43991009Y8612494D02*
X44086247Y8660113D01*
X44086247Y8660113D02*
X44324342Y8660113D01*
X44324342Y8660113D02*
X44419580Y8612494D01*
X44419580Y8612494D02*
X44467200Y8564875D01*
X44467200Y8564875D02*
X44514819Y8469637D01*
X44514819Y8469637D02*
X44514819Y8183923D01*
X44514819Y8183923D02*
X44467200Y8088685D01*
X44467200Y8088685D02*
X44419580Y8041066D01*
X94812438Y54750589D02*
X94764819Y54655351D01*
X94764819Y54655351D02*
X94764819Y54512494D01*
X94764819Y54512494D02*
X94812438Y54369637D01*
X94812438Y54369637D02*
X94907676Y54274399D01*
X94907676Y54274399D02*
X95002914Y54226780D01*
X95002914Y54226780D02*
X95193390Y54179161D01*
X95193390Y54179161D02*
X95336247Y54179161D01*
X95336247Y54179161D02*
X95526723Y54226780D01*
X95526723Y54226780D02*
X95621961Y54274399D01*
X95621961Y54274399D02*
X95717200Y54369637D01*
X95717200Y54369637D02*
X95764819Y54512494D01*
X95764819Y54512494D02*
X95764819Y54607732D01*
X95764819Y54607732D02*
X95717200Y54750589D01*
X95717200Y54750589D02*
X95669580Y54798208D01*
X95669580Y54798208D02*
X95336247Y54798208D01*
X95336247Y54798208D02*
X95336247Y54607732D01*
X95098152Y55226780D02*
X95764819Y55226780D01*
X95193390Y55226780D02*
X95145771Y55274399D01*
X95145771Y55274399D02*
X95098152Y55369637D01*
X95098152Y55369637D02*
X95098152Y55512494D01*
X95098152Y55512494D02*
X95145771Y55607732D01*
X95145771Y55607732D02*
X95241009Y55655351D01*
X95241009Y55655351D02*
X95764819Y55655351D01*
X95764819Y56560113D02*
X94764819Y56560113D01*
X95717200Y56560113D02*
X95764819Y56464875D01*
X95764819Y56464875D02*
X95764819Y56274399D01*
X95764819Y56274399D02*
X95717200Y56179161D01*
X95717200Y56179161D02*
X95669580Y56131542D01*
X95669580Y56131542D02*
X95574342Y56083923D01*
X95574342Y56083923D02*
X95288628Y56083923D01*
X95288628Y56083923D02*
X95193390Y56131542D01*
X95193390Y56131542D02*
X95145771Y56179161D01*
X95145771Y56179161D02*
X95098152Y56274399D01*
X95098152Y56274399D02*
X95098152Y56464875D01*
X95098152Y56464875D02*
X95145771Y56560113D01*
X11332969Y8749229D02*
X11261541Y8677800D01*
X11261541Y8677800D02*
X11047255Y8606372D01*
X11047255Y8606372D02*
X10904398Y8606372D01*
X10904398Y8606372D02*
X10690112Y8677800D01*
X10690112Y8677800D02*
X10547255Y8820658D01*
X10547255Y8820658D02*
X10475826Y8963515D01*
X10475826Y8963515D02*
X10404398Y9249229D01*
X10404398Y9249229D02*
X10404398Y9463515D01*
X10404398Y9463515D02*
X10475826Y9749229D01*
X10475826Y9749229D02*
X10547255Y9892086D01*
X10547255Y9892086D02*
X10690112Y10034943D01*
X10690112Y10034943D02*
X10904398Y10106372D01*
X10904398Y10106372D02*
X11047255Y10106372D01*
X11047255Y10106372D02*
X11261541Y10034943D01*
X11261541Y10034943D02*
X11332969Y9963515D01*
X12618684Y9606372D02*
X12618684Y8606372D01*
X11975826Y9606372D02*
X11975826Y8820658D01*
X11975826Y8820658D02*
X12047255Y8677800D01*
X12047255Y8677800D02*
X12190112Y8606372D01*
X12190112Y8606372D02*
X12404398Y8606372D01*
X12404398Y8606372D02*
X12547255Y8677800D01*
X12547255Y8677800D02*
X12618684Y8749229D01*
X13332969Y8606372D02*
X13332969Y9606372D01*
X13332969Y9320658D02*
X13404398Y9463515D01*
X13404398Y9463515D02*
X13475827Y9534943D01*
X13475827Y9534943D02*
X13618684Y9606372D01*
X13618684Y9606372D02*
X13761541Y9606372D01*
X14261540Y8606372D02*
X14261540Y9606372D01*
X14261540Y9320658D02*
X14332969Y9463515D01*
X14332969Y9463515D02*
X14404398Y9534943D01*
X14404398Y9534943D02*
X14547255Y9606372D01*
X14547255Y9606372D02*
X14690112Y9606372D01*
X15761540Y8677800D02*
X15618683Y8606372D01*
X15618683Y8606372D02*
X15332969Y8606372D01*
X15332969Y8606372D02*
X15190111Y8677800D01*
X15190111Y8677800D02*
X15118683Y8820658D01*
X15118683Y8820658D02*
X15118683Y9392086D01*
X15118683Y9392086D02*
X15190111Y9534943D01*
X15190111Y9534943D02*
X15332969Y9606372D01*
X15332969Y9606372D02*
X15618683Y9606372D01*
X15618683Y9606372D02*
X15761540Y9534943D01*
X15761540Y9534943D02*
X15832969Y9392086D01*
X15832969Y9392086D02*
X15832969Y9249229D01*
X15832969Y9249229D02*
X15118683Y9106372D01*
X16475825Y9606372D02*
X16475825Y8606372D01*
X16475825Y9463515D02*
X16547254Y9534943D01*
X16547254Y9534943D02*
X16690111Y9606372D01*
X16690111Y9606372D02*
X16904397Y9606372D01*
X16904397Y9606372D02*
X17047254Y9534943D01*
X17047254Y9534943D02*
X17118683Y9392086D01*
X17118683Y9392086D02*
X17118683Y8606372D01*
X17618683Y9606372D02*
X18190111Y9606372D01*
X17832968Y10106372D02*
X17832968Y8820658D01*
X17832968Y8820658D02*
X17904397Y8677800D01*
X17904397Y8677800D02*
X18047254Y8606372D01*
X18047254Y8606372D02*
X18190111Y8606372D01*
X19761540Y8677800D02*
X19904397Y8606372D01*
X19904397Y8606372D02*
X20190111Y8606372D01*
X20190111Y8606372D02*
X20332968Y8677800D01*
X20332968Y8677800D02*
X20404397Y8820658D01*
X20404397Y8820658D02*
X20404397Y8892086D01*
X20404397Y8892086D02*
X20332968Y9034943D01*
X20332968Y9034943D02*
X20190111Y9106372D01*
X20190111Y9106372D02*
X19975826Y9106372D01*
X19975826Y9106372D02*
X19832968Y9177800D01*
X19832968Y9177800D02*
X19761540Y9320658D01*
X19761540Y9320658D02*
X19761540Y9392086D01*
X19761540Y9392086D02*
X19832968Y9534943D01*
X19832968Y9534943D02*
X19975826Y9606372D01*
X19975826Y9606372D02*
X20190111Y9606372D01*
X20190111Y9606372D02*
X20332968Y9534943D01*
X21618683Y8677800D02*
X21475826Y8606372D01*
X21475826Y8606372D02*
X21190112Y8606372D01*
X21190112Y8606372D02*
X21047254Y8677800D01*
X21047254Y8677800D02*
X20975826Y8820658D01*
X20975826Y8820658D02*
X20975826Y9392086D01*
X20975826Y9392086D02*
X21047254Y9534943D01*
X21047254Y9534943D02*
X21190112Y9606372D01*
X21190112Y9606372D02*
X21475826Y9606372D01*
X21475826Y9606372D02*
X21618683Y9534943D01*
X21618683Y9534943D02*
X21690112Y9392086D01*
X21690112Y9392086D02*
X21690112Y9249229D01*
X21690112Y9249229D02*
X20975826Y9106372D01*
X22332968Y9606372D02*
X22332968Y8606372D01*
X22332968Y9463515D02*
X22404397Y9534943D01*
X22404397Y9534943D02*
X22547254Y9606372D01*
X22547254Y9606372D02*
X22761540Y9606372D01*
X22761540Y9606372D02*
X22904397Y9534943D01*
X22904397Y9534943D02*
X22975826Y9392086D01*
X22975826Y9392086D02*
X22975826Y8606372D01*
X23618683Y8677800D02*
X23761540Y8606372D01*
X23761540Y8606372D02*
X24047254Y8606372D01*
X24047254Y8606372D02*
X24190111Y8677800D01*
X24190111Y8677800D02*
X24261540Y8820658D01*
X24261540Y8820658D02*
X24261540Y8892086D01*
X24261540Y8892086D02*
X24190111Y9034943D01*
X24190111Y9034943D02*
X24047254Y9106372D01*
X24047254Y9106372D02*
X23832969Y9106372D01*
X23832969Y9106372D02*
X23690111Y9177800D01*
X23690111Y9177800D02*
X23618683Y9320658D01*
X23618683Y9320658D02*
X23618683Y9392086D01*
X23618683Y9392086D02*
X23690111Y9534943D01*
X23690111Y9534943D02*
X23832969Y9606372D01*
X23832969Y9606372D02*
X24047254Y9606372D01*
X24047254Y9606372D02*
X24190111Y9534943D01*
X25475826Y8677800D02*
X25332969Y8606372D01*
X25332969Y8606372D02*
X25047255Y8606372D01*
X25047255Y8606372D02*
X24904397Y8677800D01*
X24904397Y8677800D02*
X24832969Y8820658D01*
X24832969Y8820658D02*
X24832969Y9392086D01*
X24832969Y9392086D02*
X24904397Y9534943D01*
X24904397Y9534943D02*
X25047255Y9606372D01*
X25047255Y9606372D02*
X25332969Y9606372D01*
X25332969Y9606372D02*
X25475826Y9534943D01*
X25475826Y9534943D02*
X25547255Y9392086D01*
X25547255Y9392086D02*
X25547255Y9249229D01*
X25547255Y9249229D02*
X24832969Y9106372D01*
X27118683Y9606372D02*
X27690111Y9606372D01*
X27332968Y8606372D02*
X27332968Y9892086D01*
X27332968Y9892086D02*
X27404397Y10034943D01*
X27404397Y10034943D02*
X27547254Y10106372D01*
X27547254Y10106372D02*
X27690111Y10106372D01*
X28832969Y8606372D02*
X28832969Y9392086D01*
X28832969Y9392086D02*
X28761540Y9534943D01*
X28761540Y9534943D02*
X28618683Y9606372D01*
X28618683Y9606372D02*
X28332969Y9606372D01*
X28332969Y9606372D02*
X28190111Y9534943D01*
X28832969Y8677800D02*
X28690111Y8606372D01*
X28690111Y8606372D02*
X28332969Y8606372D01*
X28332969Y8606372D02*
X28190111Y8677800D01*
X28190111Y8677800D02*
X28118683Y8820658D01*
X28118683Y8820658D02*
X28118683Y8963515D01*
X28118683Y8963515D02*
X28190111Y9106372D01*
X28190111Y9106372D02*
X28332969Y9177800D01*
X28332969Y9177800D02*
X28690111Y9177800D01*
X28690111Y9177800D02*
X28832969Y9249229D01*
X30190112Y9606372D02*
X30190112Y8606372D01*
X29547254Y9606372D02*
X29547254Y8820658D01*
X29547254Y8820658D02*
X29618683Y8677800D01*
X29618683Y8677800D02*
X29761540Y8606372D01*
X29761540Y8606372D02*
X29975826Y8606372D01*
X29975826Y8606372D02*
X30118683Y8677800D01*
X30118683Y8677800D02*
X30190112Y8749229D01*
X31118683Y8606372D02*
X30975826Y8677800D01*
X30975826Y8677800D02*
X30904397Y8820658D01*
X30904397Y8820658D02*
X30904397Y10106372D01*
X31475826Y9606372D02*
X32047254Y9606372D01*
X31690111Y10106372D02*
X31690111Y8820658D01*
X31690111Y8820658D02*
X31761540Y8677800D01*
X31761540Y8677800D02*
X31904397Y8606372D01*
X31904397Y8606372D02*
X32047254Y8606372D01*
X91931779Y65401134D02*
X92693684Y65401134D01*
X92312731Y65020181D02*
X92312731Y65782086D01*
X71006779Y7601134D02*
X71768684Y7601134D01*
X71387731Y7220181D02*
X71387731Y7982086D01*
D11*
X19679823Y97265562D02*
X18727442Y97265562D01*
X18727442Y97265562D02*
X18977442Y99265562D01*
X20346490Y97265562D02*
X20513157Y98598896D01*
X20596490Y99265562D02*
X20489347Y99170324D01*
X20489347Y99170324D02*
X20572681Y99075086D01*
X20572681Y99075086D02*
X20679824Y99170324D01*
X20679824Y99170324D02*
X20596490Y99265562D01*
X20596490Y99265562D02*
X20572681Y99075086D01*
X21584586Y97265562D02*
X21406014Y97360800D01*
X21406014Y97360800D02*
X21322681Y97456039D01*
X21322681Y97456039D02*
X21251252Y97646515D01*
X21251252Y97646515D02*
X21322681Y98217943D01*
X21322681Y98217943D02*
X21441728Y98408420D01*
X21441728Y98408420D02*
X21548871Y98503658D01*
X21548871Y98503658D02*
X21751252Y98598896D01*
X21751252Y98598896D02*
X22036966Y98598896D01*
X22036966Y98598896D02*
X22215538Y98503658D01*
X22215538Y98503658D02*
X22298871Y98408420D01*
X22298871Y98408420D02*
X22370300Y98217943D01*
X22370300Y98217943D02*
X22298871Y97646515D01*
X22298871Y97646515D02*
X22179824Y97456039D01*
X22179824Y97456039D02*
X22072681Y97360800D01*
X22072681Y97360800D02*
X21870300Y97265562D01*
X21870300Y97265562D02*
X21584586Y97265562D01*
X23275062Y98598896D02*
X23108395Y97265562D01*
X23251252Y98408420D02*
X23358395Y98503658D01*
X23358395Y98503658D02*
X23560776Y98598896D01*
X23560776Y98598896D02*
X23846490Y98598896D01*
X23846490Y98598896D02*
X24025062Y98503658D01*
X24025062Y98503658D02*
X24096490Y98313181D01*
X24096490Y98313181D02*
X23965538Y97265562D01*
X24834586Y97360800D02*
X25013157Y97265562D01*
X25013157Y97265562D02*
X25394110Y97265562D01*
X25394110Y97265562D02*
X25596491Y97360800D01*
X25596491Y97360800D02*
X25715538Y97551277D01*
X25715538Y97551277D02*
X25727443Y97646515D01*
X25727443Y97646515D02*
X25656014Y97836991D01*
X25656014Y97836991D02*
X25477443Y97932229D01*
X25477443Y97932229D02*
X25191729Y97932229D01*
X25191729Y97932229D02*
X25013157Y98027467D01*
X25013157Y98027467D02*
X24941729Y98217943D01*
X24941729Y98217943D02*
X24953634Y98313181D01*
X24953634Y98313181D02*
X25072681Y98503658D01*
X25072681Y98503658D02*
X25275062Y98598896D01*
X25275062Y98598896D02*
X25560776Y98598896D01*
X25560776Y98598896D02*
X25739348Y98503658D01*
X27167920Y99265562D02*
X27548872Y99265562D01*
X27548872Y99265562D02*
X27727443Y99170324D01*
X27727443Y99170324D02*
X27894110Y98979848D01*
X27894110Y98979848D02*
X27941729Y98598896D01*
X27941729Y98598896D02*
X27858396Y97932229D01*
X27858396Y97932229D02*
X27715539Y97551277D01*
X27715539Y97551277D02*
X27501253Y97360800D01*
X27501253Y97360800D02*
X27298872Y97265562D01*
X27298872Y97265562D02*
X26917920Y97265562D01*
X26917920Y97265562D02*
X26739348Y97360800D01*
X26739348Y97360800D02*
X26572682Y97551277D01*
X26572682Y97551277D02*
X26525062Y97932229D01*
X26525062Y97932229D02*
X26608396Y98598896D01*
X26608396Y98598896D02*
X26751253Y98979848D01*
X26751253Y98979848D02*
X26965539Y99170324D01*
X26965539Y99170324D02*
X27167920Y99265562D01*
X28548872Y97360800D02*
X28822681Y97265562D01*
X28822681Y97265562D02*
X29298872Y97265562D01*
X29298872Y97265562D02*
X29501253Y97360800D01*
X29501253Y97360800D02*
X29608396Y97456039D01*
X29608396Y97456039D02*
X29727443Y97646515D01*
X29727443Y97646515D02*
X29751253Y97836991D01*
X29751253Y97836991D02*
X29679824Y98027467D01*
X29679824Y98027467D02*
X29596491Y98122705D01*
X29596491Y98122705D02*
X29417920Y98217943D01*
X29417920Y98217943D02*
X29048872Y98313181D01*
X29048872Y98313181D02*
X28870300Y98408420D01*
X28870300Y98408420D02*
X28786967Y98503658D01*
X28786967Y98503658D02*
X28715539Y98694134D01*
X28715539Y98694134D02*
X28739348Y98884610D01*
X28739348Y98884610D02*
X28858396Y99075086D01*
X28858396Y99075086D02*
X28965539Y99170324D01*
X28965539Y99170324D02*
X29167920Y99265562D01*
X29167920Y99265562D02*
X29644110Y99265562D01*
X29644110Y99265562D02*
X29917920Y99170324D01*
X33203634Y97265562D02*
X32656015Y98217943D01*
X32060777Y97265562D02*
X32310777Y99265562D01*
X32310777Y99265562D02*
X33072682Y99265562D01*
X33072682Y99265562D02*
X33251253Y99170324D01*
X33251253Y99170324D02*
X33334587Y99075086D01*
X33334587Y99075086D02*
X33406015Y98884610D01*
X33406015Y98884610D02*
X33370301Y98598896D01*
X33370301Y98598896D02*
X33251253Y98408420D01*
X33251253Y98408420D02*
X33144111Y98313181D01*
X33144111Y98313181D02*
X32941730Y98217943D01*
X32941730Y98217943D02*
X32179825Y98217943D01*
X34346492Y97265562D02*
X34167920Y97360800D01*
X34167920Y97360800D02*
X34084587Y97456039D01*
X34084587Y97456039D02*
X34013158Y97646515D01*
X34013158Y97646515D02*
X34084587Y98217943D01*
X34084587Y98217943D02*
X34203634Y98408420D01*
X34203634Y98408420D02*
X34310777Y98503658D01*
X34310777Y98503658D02*
X34513158Y98598896D01*
X34513158Y98598896D02*
X34798872Y98598896D01*
X34798872Y98598896D02*
X34977444Y98503658D01*
X34977444Y98503658D02*
X35060777Y98408420D01*
X35060777Y98408420D02*
X35132206Y98217943D01*
X35132206Y98217943D02*
X35060777Y97646515D01*
X35060777Y97646515D02*
X34941730Y97456039D01*
X34941730Y97456039D02*
X34834587Y97360800D01*
X34834587Y97360800D02*
X34632206Y97265562D01*
X34632206Y97265562D02*
X34346492Y97265562D01*
X35870301Y97265562D02*
X36120301Y99265562D01*
X36025063Y98503658D02*
X36227444Y98598896D01*
X36227444Y98598896D02*
X36608396Y98598896D01*
X36608396Y98598896D02*
X36786968Y98503658D01*
X36786968Y98503658D02*
X36870301Y98408420D01*
X36870301Y98408420D02*
X36941730Y98217943D01*
X36941730Y98217943D02*
X36870301Y97646515D01*
X36870301Y97646515D02*
X36751254Y97456039D01*
X36751254Y97456039D02*
X36644111Y97360800D01*
X36644111Y97360800D02*
X36441730Y97265562D01*
X36441730Y97265562D02*
X36060777Y97265562D01*
X36060777Y97265562D02*
X35882206Y97360800D01*
X37965540Y97265562D02*
X37786968Y97360800D01*
X37786968Y97360800D02*
X37703635Y97456039D01*
X37703635Y97456039D02*
X37632206Y97646515D01*
X37632206Y97646515D02*
X37703635Y98217943D01*
X37703635Y98217943D02*
X37822682Y98408420D01*
X37822682Y98408420D02*
X37929825Y98503658D01*
X37929825Y98503658D02*
X38132206Y98598896D01*
X38132206Y98598896D02*
X38417920Y98598896D01*
X38417920Y98598896D02*
X38596492Y98503658D01*
X38596492Y98503658D02*
X38679825Y98408420D01*
X38679825Y98408420D02*
X38751254Y98217943D01*
X38751254Y98217943D02*
X38679825Y97646515D01*
X38679825Y97646515D02*
X38560778Y97456039D01*
X38560778Y97456039D02*
X38453635Y97360800D01*
X38453635Y97360800D02*
X38251254Y97265562D01*
X38251254Y97265562D02*
X37965540Y97265562D01*
X39370302Y98598896D02*
X40132206Y98598896D01*
X39739349Y99265562D02*
X39525064Y97551277D01*
X39525064Y97551277D02*
X39596492Y97360800D01*
X39596492Y97360800D02*
X39775064Y97265562D01*
X39775064Y97265562D02*
X39965540Y97265562D01*
X42156016Y97265562D02*
X42406016Y99265562D01*
X42406016Y99265562D02*
X43167921Y99265562D01*
X43167921Y99265562D02*
X43346492Y99170324D01*
X43346492Y99170324D02*
X43429826Y99075086D01*
X43429826Y99075086D02*
X43501254Y98884610D01*
X43501254Y98884610D02*
X43465540Y98598896D01*
X43465540Y98598896D02*
X43346492Y98408420D01*
X43346492Y98408420D02*
X43239350Y98313181D01*
X43239350Y98313181D02*
X43036969Y98217943D01*
X43036969Y98217943D02*
X42275064Y98217943D01*
X44441731Y97265562D02*
X44263159Y97360800D01*
X44263159Y97360800D02*
X44179826Y97456039D01*
X44179826Y97456039D02*
X44108397Y97646515D01*
X44108397Y97646515D02*
X44179826Y98217943D01*
X44179826Y98217943D02*
X44298873Y98408420D01*
X44298873Y98408420D02*
X44406016Y98503658D01*
X44406016Y98503658D02*
X44608397Y98598896D01*
X44608397Y98598896D02*
X44894111Y98598896D01*
X44894111Y98598896D02*
X45072683Y98503658D01*
X45072683Y98503658D02*
X45156016Y98408420D01*
X45156016Y98408420D02*
X45227445Y98217943D01*
X45227445Y98217943D02*
X45156016Y97646515D01*
X45156016Y97646515D02*
X45036969Y97456039D01*
X45036969Y97456039D02*
X44929826Y97360800D01*
X44929826Y97360800D02*
X44727445Y97265562D01*
X44727445Y97265562D02*
X44441731Y97265562D01*
X45941731Y98598896D02*
X46156016Y97265562D01*
X46156016Y97265562D02*
X46656016Y98217943D01*
X46656016Y98217943D02*
X46917921Y97265562D01*
X46917921Y97265562D02*
X47465540Y98598896D01*
X48834588Y97360800D02*
X48632207Y97265562D01*
X48632207Y97265562D02*
X48251254Y97265562D01*
X48251254Y97265562D02*
X48072683Y97360800D01*
X48072683Y97360800D02*
X48001254Y97551277D01*
X48001254Y97551277D02*
X48096493Y98313181D01*
X48096493Y98313181D02*
X48215540Y98503658D01*
X48215540Y98503658D02*
X48417921Y98598896D01*
X48417921Y98598896D02*
X48798873Y98598896D01*
X48798873Y98598896D02*
X48977445Y98503658D01*
X48977445Y98503658D02*
X49048873Y98313181D01*
X49048873Y98313181D02*
X49025064Y98122705D01*
X49025064Y98122705D02*
X48048873Y97932229D01*
X49775064Y97265562D02*
X49941731Y98598896D01*
X49894112Y98217943D02*
X50013159Y98408420D01*
X50013159Y98408420D02*
X50120302Y98503658D01*
X50120302Y98503658D02*
X50322683Y98598896D01*
X50322683Y98598896D02*
X50513159Y98598896D01*
X53334588Y98313181D02*
X53608398Y98217943D01*
X53608398Y98217943D02*
X53691731Y98122705D01*
X53691731Y98122705D02*
X53763160Y97932229D01*
X53763160Y97932229D02*
X53727445Y97646515D01*
X53727445Y97646515D02*
X53608398Y97456039D01*
X53608398Y97456039D02*
X53501255Y97360800D01*
X53501255Y97360800D02*
X53298874Y97265562D01*
X53298874Y97265562D02*
X52536969Y97265562D01*
X52536969Y97265562D02*
X52786969Y99265562D01*
X52786969Y99265562D02*
X53453636Y99265562D01*
X53453636Y99265562D02*
X53632207Y99170324D01*
X53632207Y99170324D02*
X53715541Y99075086D01*
X53715541Y99075086D02*
X53786969Y98884610D01*
X53786969Y98884610D02*
X53763160Y98694134D01*
X53763160Y98694134D02*
X53644112Y98503658D01*
X53644112Y98503658D02*
X53536969Y98408420D01*
X53536969Y98408420D02*
X53334588Y98313181D01*
X53334588Y98313181D02*
X52667922Y98313181D01*
X54822684Y97265562D02*
X54644112Y97360800D01*
X54644112Y97360800D02*
X54560779Y97456039D01*
X54560779Y97456039D02*
X54489350Y97646515D01*
X54489350Y97646515D02*
X54560779Y98217943D01*
X54560779Y98217943D02*
X54679826Y98408420D01*
X54679826Y98408420D02*
X54786969Y98503658D01*
X54786969Y98503658D02*
X54989350Y98598896D01*
X54989350Y98598896D02*
X55275064Y98598896D01*
X55275064Y98598896D02*
X55453636Y98503658D01*
X55453636Y98503658D02*
X55536969Y98408420D01*
X55536969Y98408420D02*
X55608398Y98217943D01*
X55608398Y98217943D02*
X55536969Y97646515D01*
X55536969Y97646515D02*
X55417922Y97456039D01*
X55417922Y97456039D02*
X55310779Y97360800D01*
X55310779Y97360800D02*
X55108398Y97265562D01*
X55108398Y97265562D02*
X54822684Y97265562D01*
X57203636Y97265562D02*
X57334588Y98313181D01*
X57334588Y98313181D02*
X57263160Y98503658D01*
X57263160Y98503658D02*
X57084588Y98598896D01*
X57084588Y98598896D02*
X56703636Y98598896D01*
X56703636Y98598896D02*
X56501255Y98503658D01*
X57215541Y97360800D02*
X57013160Y97265562D01*
X57013160Y97265562D02*
X56536969Y97265562D01*
X56536969Y97265562D02*
X56358398Y97360800D01*
X56358398Y97360800D02*
X56286969Y97551277D01*
X56286969Y97551277D02*
X56310779Y97741753D01*
X56310779Y97741753D02*
X56429827Y97932229D01*
X56429827Y97932229D02*
X56632208Y98027467D01*
X56632208Y98027467D02*
X57108398Y98027467D01*
X57108398Y98027467D02*
X57310779Y98122705D01*
X58156017Y97265562D02*
X58322684Y98598896D01*
X58275065Y98217943D02*
X58394112Y98408420D01*
X58394112Y98408420D02*
X58501255Y98503658D01*
X58501255Y98503658D02*
X58703636Y98598896D01*
X58703636Y98598896D02*
X58894112Y98598896D01*
X60251255Y97265562D02*
X60501255Y99265562D01*
X60263160Y97360800D02*
X60060779Y97265562D01*
X60060779Y97265562D02*
X59679827Y97265562D01*
X59679827Y97265562D02*
X59501255Y97360800D01*
X59501255Y97360800D02*
X59417922Y97456039D01*
X59417922Y97456039D02*
X59346493Y97646515D01*
X59346493Y97646515D02*
X59417922Y98217943D01*
X59417922Y98217943D02*
X59536969Y98408420D01*
X59536969Y98408420D02*
X59644112Y98503658D01*
X59644112Y98503658D02*
X59846493Y98598896D01*
X59846493Y98598896D02*
X60227446Y98598896D01*
X60227446Y98598896D02*
X60406017Y98503658D01*
X63870303Y97265562D02*
X63322684Y98217943D01*
X62727446Y97265562D02*
X62977446Y99265562D01*
X62977446Y99265562D02*
X63739351Y99265562D01*
X63739351Y99265562D02*
X63917922Y99170324D01*
X63917922Y99170324D02*
X64001256Y99075086D01*
X64001256Y99075086D02*
X64072684Y98884610D01*
X64072684Y98884610D02*
X64036970Y98598896D01*
X64036970Y98598896D02*
X63917922Y98408420D01*
X63917922Y98408420D02*
X63810780Y98313181D01*
X63810780Y98313181D02*
X63608399Y98217943D01*
X63608399Y98217943D02*
X62846494Y98217943D01*
X64858399Y99075086D02*
X64965541Y99170324D01*
X64965541Y99170324D02*
X65167922Y99265562D01*
X65167922Y99265562D02*
X65644113Y99265562D01*
X65644113Y99265562D02*
X65822684Y99170324D01*
X65822684Y99170324D02*
X65906018Y99075086D01*
X65906018Y99075086D02*
X65977446Y98884610D01*
X65977446Y98884610D02*
X65953637Y98694134D01*
X65953637Y98694134D02*
X65822684Y98408420D01*
X65822684Y98408420D02*
X64536970Y97265562D01*
X64536970Y97265562D02*
X65775065Y97265562D01*
X66656018Y97456039D02*
X66739351Y97360800D01*
X66739351Y97360800D02*
X66632208Y97265562D01*
X66632208Y97265562D02*
X66548875Y97360800D01*
X66548875Y97360800D02*
X66656018Y97456039D01*
X66656018Y97456039D02*
X66632208Y97265562D01*
X68215542Y99265562D02*
X68406018Y99265562D01*
X68406018Y99265562D02*
X68584589Y99170324D01*
X68584589Y99170324D02*
X68667923Y99075086D01*
X68667923Y99075086D02*
X68739351Y98884610D01*
X68739351Y98884610D02*
X68786970Y98503658D01*
X68786970Y98503658D02*
X68727446Y98027467D01*
X68727446Y98027467D02*
X68584589Y97646515D01*
X68584589Y97646515D02*
X68465542Y97456039D01*
X68465542Y97456039D02*
X68358399Y97360800D01*
X68358399Y97360800D02*
X68156018Y97265562D01*
X68156018Y97265562D02*
X67965542Y97265562D01*
X67965542Y97265562D02*
X67786970Y97360800D01*
X67786970Y97360800D02*
X67703637Y97456039D01*
X67703637Y97456039D02*
X67632208Y97646515D01*
X67632208Y97646515D02*
X67584589Y98027467D01*
X67584589Y98027467D02*
X67644113Y98503658D01*
X67644113Y98503658D02*
X67786970Y98884610D01*
X67786970Y98884610D02*
X67906018Y99075086D01*
X67906018Y99075086D02*
X68013161Y99170324D01*
X68013161Y99170324D02*
X68215542Y99265562D01*
D10*
X71689819Y11726780D02*
X70689819Y11726780D01*
X70689819Y11726780D02*
X70689819Y12107732D01*
X70689819Y12107732D02*
X70737438Y12202970D01*
X70737438Y12202970D02*
X70785057Y12250589D01*
X70785057Y12250589D02*
X70880295Y12298208D01*
X70880295Y12298208D02*
X71023152Y12298208D01*
X71023152Y12298208D02*
X71118390Y12250589D01*
X71118390Y12250589D02*
X71166009Y12202970D01*
X71166009Y12202970D02*
X71213628Y12107732D01*
X71213628Y12107732D02*
X71213628Y11726780D01*
X71689819Y12726780D02*
X71023152Y12726780D01*
X70689819Y12726780D02*
X70737438Y12679161D01*
X70737438Y12679161D02*
X70785057Y12726780D01*
X70785057Y12726780D02*
X70737438Y12774399D01*
X70737438Y12774399D02*
X70689819Y12726780D01*
X70689819Y12726780D02*
X70785057Y12726780D01*
X71023152Y13202970D02*
X71689819Y13202970D01*
X71118390Y13202970D02*
X71070771Y13250589D01*
X71070771Y13250589D02*
X71023152Y13345827D01*
X71023152Y13345827D02*
X71023152Y13488684D01*
X71023152Y13488684D02*
X71070771Y13583922D01*
X71070771Y13583922D02*
X71166009Y13631541D01*
X71166009Y13631541D02*
X71689819Y13631541D01*
X71642200Y14060113D02*
X71689819Y14155351D01*
X71689819Y14155351D02*
X71689819Y14345827D01*
X71689819Y14345827D02*
X71642200Y14441065D01*
X71642200Y14441065D02*
X71546961Y14488684D01*
X71546961Y14488684D02*
X71499342Y14488684D01*
X71499342Y14488684D02*
X71404104Y14441065D01*
X71404104Y14441065D02*
X71356485Y14345827D01*
X71356485Y14345827D02*
X71356485Y14202970D01*
X71356485Y14202970D02*
X71308866Y14107732D01*
X71308866Y14107732D02*
X71213628Y14060113D01*
X71213628Y14060113D02*
X71166009Y14060113D01*
X71166009Y14060113D02*
X71070771Y14107732D01*
X71070771Y14107732D02*
X71023152Y14202970D01*
X71023152Y14202970D02*
X71023152Y14345827D01*
X71023152Y14345827D02*
X71070771Y14441065D01*
X5956779Y51345181D02*
X5956779Y52345181D01*
X5956779Y52345181D02*
X6290112Y51630896D01*
X6290112Y51630896D02*
X6623445Y52345181D01*
X6623445Y52345181D02*
X6623445Y51345181D01*
X7099636Y51345181D02*
X7099636Y52345181D01*
X7528207Y51392800D02*
X7671064Y51345181D01*
X7671064Y51345181D02*
X7909159Y51345181D01*
X7909159Y51345181D02*
X8004397Y51392800D01*
X8004397Y51392800D02*
X8052016Y51440420D01*
X8052016Y51440420D02*
X8099635Y51535658D01*
X8099635Y51535658D02*
X8099635Y51630896D01*
X8099635Y51630896D02*
X8052016Y51726134D01*
X8052016Y51726134D02*
X8004397Y51773753D01*
X8004397Y51773753D02*
X7909159Y51821372D01*
X7909159Y51821372D02*
X7718683Y51868991D01*
X7718683Y51868991D02*
X7623445Y51916610D01*
X7623445Y51916610D02*
X7575826Y51964229D01*
X7575826Y51964229D02*
X7528207Y52059467D01*
X7528207Y52059467D02*
X7528207Y52154705D01*
X7528207Y52154705D02*
X7575826Y52249943D01*
X7575826Y52249943D02*
X7623445Y52297562D01*
X7623445Y52297562D02*
X7718683Y52345181D01*
X7718683Y52345181D02*
X7956778Y52345181D01*
X7956778Y52345181D02*
X8099635Y52297562D01*
X8718683Y52345181D02*
X8909159Y52345181D01*
X8909159Y52345181D02*
X9004397Y52297562D01*
X9004397Y52297562D02*
X9099635Y52202324D01*
X9099635Y52202324D02*
X9147254Y52011848D01*
X9147254Y52011848D02*
X9147254Y51678515D01*
X9147254Y51678515D02*
X9099635Y51488039D01*
X9099635Y51488039D02*
X9004397Y51392800D01*
X9004397Y51392800D02*
X8909159Y51345181D01*
X8909159Y51345181D02*
X8718683Y51345181D01*
X8718683Y51345181D02*
X8623445Y51392800D01*
X8623445Y51392800D02*
X8528207Y51488039D01*
X8528207Y51488039D02*
X8480588Y51678515D01*
X8480588Y51678515D02*
X8480588Y52011848D01*
X8480588Y52011848D02*
X8528207Y52202324D01*
X8528207Y52202324D02*
X8623445Y52297562D01*
X8623445Y52297562D02*
X8718683Y52345181D01*
X5956779Y47345181D02*
X5956779Y46535658D01*
X5956779Y46535658D02*
X6004398Y46440420D01*
X6004398Y46440420D02*
X6052017Y46392800D01*
X6052017Y46392800D02*
X6147255Y46345181D01*
X6147255Y46345181D02*
X6337731Y46345181D01*
X6337731Y46345181D02*
X6432969Y46392800D01*
X6432969Y46392800D02*
X6480588Y46440420D01*
X6480588Y46440420D02*
X6528207Y46535658D01*
X6528207Y46535658D02*
X6528207Y47345181D01*
X7004398Y46345181D02*
X7004398Y47345181D01*
X7004398Y47345181D02*
X7575826Y46345181D01*
X7575826Y46345181D02*
X7575826Y47345181D01*
X8052017Y47345181D02*
X8052017Y46535658D01*
X8052017Y46535658D02*
X8099636Y46440420D01*
X8099636Y46440420D02*
X8147255Y46392800D01*
X8147255Y46392800D02*
X8242493Y46345181D01*
X8242493Y46345181D02*
X8432969Y46345181D01*
X8432969Y46345181D02*
X8528207Y46392800D01*
X8528207Y46392800D02*
X8575826Y46440420D01*
X8575826Y46440420D02*
X8623445Y46535658D01*
X8623445Y46535658D02*
X8623445Y47345181D01*
X9052017Y46392800D02*
X9194874Y46345181D01*
X9194874Y46345181D02*
X9432969Y46345181D01*
X9432969Y46345181D02*
X9528207Y46392800D01*
X9528207Y46392800D02*
X9575826Y46440420D01*
X9575826Y46440420D02*
X9623445Y46535658D01*
X9623445Y46535658D02*
X9623445Y46630896D01*
X9623445Y46630896D02*
X9575826Y46726134D01*
X9575826Y46726134D02*
X9528207Y46773753D01*
X9528207Y46773753D02*
X9432969Y46821372D01*
X9432969Y46821372D02*
X9242493Y46868991D01*
X9242493Y46868991D02*
X9147255Y46916610D01*
X9147255Y46916610D02*
X9099636Y46964229D01*
X9099636Y46964229D02*
X9052017Y47059467D01*
X9052017Y47059467D02*
X9052017Y47154705D01*
X9052017Y47154705D02*
X9099636Y47249943D01*
X9099636Y47249943D02*
X9147255Y47297562D01*
X9147255Y47297562D02*
X9242493Y47345181D01*
X9242493Y47345181D02*
X9480588Y47345181D01*
X9480588Y47345181D02*
X9623445Y47297562D01*
X10052017Y46868991D02*
X10385350Y46868991D01*
X10528207Y46345181D02*
X10052017Y46345181D01*
X10052017Y46345181D02*
X10052017Y47345181D01*
X10052017Y47345181D02*
X10528207Y47345181D01*
X10956779Y46345181D02*
X10956779Y47345181D01*
X10956779Y47345181D02*
X11194874Y47345181D01*
X11194874Y47345181D02*
X11337731Y47297562D01*
X11337731Y47297562D02*
X11432969Y47202324D01*
X11432969Y47202324D02*
X11480588Y47107086D01*
X11480588Y47107086D02*
X11528207Y46916610D01*
X11528207Y46916610D02*
X11528207Y46773753D01*
X11528207Y46773753D02*
X11480588Y46583277D01*
X11480588Y46583277D02*
X11432969Y46488039D01*
X11432969Y46488039D02*
X11337731Y46392800D01*
X11337731Y46392800D02*
X11194874Y46345181D01*
X11194874Y46345181D02*
X10956779Y46345181D01*
X73387438Y7900589D02*
X73339819Y7805351D01*
X73339819Y7805351D02*
X73339819Y7662494D01*
X73339819Y7662494D02*
X73387438Y7519637D01*
X73387438Y7519637D02*
X73482676Y7424399D01*
X73482676Y7424399D02*
X73577914Y7376780D01*
X73577914Y7376780D02*
X73768390Y7329161D01*
X73768390Y7329161D02*
X73911247Y7329161D01*
X73911247Y7329161D02*
X74101723Y7376780D01*
X74101723Y7376780D02*
X74196961Y7424399D01*
X74196961Y7424399D02*
X74292200Y7519637D01*
X74292200Y7519637D02*
X74339819Y7662494D01*
X74339819Y7662494D02*
X74339819Y7757732D01*
X74339819Y7757732D02*
X74292200Y7900589D01*
X74292200Y7900589D02*
X74244580Y7948208D01*
X74244580Y7948208D02*
X73911247Y7948208D01*
X73911247Y7948208D02*
X73911247Y7757732D01*
X73673152Y8376780D02*
X74339819Y8376780D01*
X73768390Y8376780D02*
X73720771Y8424399D01*
X73720771Y8424399D02*
X73673152Y8519637D01*
X73673152Y8519637D02*
X73673152Y8662494D01*
X73673152Y8662494D02*
X73720771Y8757732D01*
X73720771Y8757732D02*
X73816009Y8805351D01*
X73816009Y8805351D02*
X74339819Y8805351D01*
X74339819Y9710113D02*
X73339819Y9710113D01*
X74292200Y9710113D02*
X74339819Y9614875D01*
X74339819Y9614875D02*
X74339819Y9424399D01*
X74339819Y9424399D02*
X74292200Y9329161D01*
X74292200Y9329161D02*
X74244580Y9281542D01*
X74244580Y9281542D02*
X74149342Y9233923D01*
X74149342Y9233923D02*
X73863628Y9233923D01*
X73863628Y9233923D02*
X73768390Y9281542D01*
X73768390Y9281542D02*
X73720771Y9329161D01*
X73720771Y9329161D02*
X73673152Y9424399D01*
X73673152Y9424399D02*
X73673152Y9614875D01*
X73673152Y9614875D02*
X73720771Y9710113D01*
X64359160Y2552744D02*
X64502017Y2505125D01*
X64502017Y2505125D02*
X64740112Y2505125D01*
X64740112Y2505125D02*
X64835350Y2552744D01*
X64835350Y2552744D02*
X64882969Y2600364D01*
X64882969Y2600364D02*
X64930588Y2695602D01*
X64930588Y2695602D02*
X64930588Y2790840D01*
X64930588Y2790840D02*
X64882969Y2886078D01*
X64882969Y2886078D02*
X64835350Y2933697D01*
X64835350Y2933697D02*
X64740112Y2981316D01*
X64740112Y2981316D02*
X64549636Y3028935D01*
X64549636Y3028935D02*
X64454398Y3076554D01*
X64454398Y3076554D02*
X64406779Y3124173D01*
X64406779Y3124173D02*
X64359160Y3219411D01*
X64359160Y3219411D02*
X64359160Y3314649D01*
X64359160Y3314649D02*
X64406779Y3409887D01*
X64406779Y3409887D02*
X64454398Y3457506D01*
X64454398Y3457506D02*
X64549636Y3505125D01*
X64549636Y3505125D02*
X64787731Y3505125D01*
X64787731Y3505125D02*
X64930588Y3457506D01*
X65692493Y3028935D02*
X65835350Y2981316D01*
X65835350Y2981316D02*
X65882969Y2933697D01*
X65882969Y2933697D02*
X65930588Y2838459D01*
X65930588Y2838459D02*
X65930588Y2695602D01*
X65930588Y2695602D02*
X65882969Y2600364D01*
X65882969Y2600364D02*
X65835350Y2552744D01*
X65835350Y2552744D02*
X65740112Y2505125D01*
X65740112Y2505125D02*
X65359160Y2505125D01*
X65359160Y2505125D02*
X65359160Y3505125D01*
X65359160Y3505125D02*
X65692493Y3505125D01*
X65692493Y3505125D02*
X65787731Y3457506D01*
X65787731Y3457506D02*
X65835350Y3409887D01*
X65835350Y3409887D02*
X65882969Y3314649D01*
X65882969Y3314649D02*
X65882969Y3219411D01*
X65882969Y3219411D02*
X65835350Y3124173D01*
X65835350Y3124173D02*
X65787731Y3076554D01*
X65787731Y3076554D02*
X65692493Y3028935D01*
X65692493Y3028935D02*
X65359160Y3028935D01*
X66930588Y2600364D02*
X66882969Y2552744D01*
X66882969Y2552744D02*
X66740112Y2505125D01*
X66740112Y2505125D02*
X66644874Y2505125D01*
X66644874Y2505125D02*
X66502017Y2552744D01*
X66502017Y2552744D02*
X66406779Y2647983D01*
X66406779Y2647983D02*
X66359160Y2743221D01*
X66359160Y2743221D02*
X66311541Y2933697D01*
X66311541Y2933697D02*
X66311541Y3076554D01*
X66311541Y3076554D02*
X66359160Y3267030D01*
X66359160Y3267030D02*
X66406779Y3362268D01*
X66406779Y3362268D02*
X66502017Y3457506D01*
X66502017Y3457506D02*
X66644874Y3505125D01*
X66644874Y3505125D02*
X66740112Y3505125D01*
X66740112Y3505125D02*
X66882969Y3457506D01*
X66882969Y3457506D02*
X66930588Y3409887D01*
X68121065Y3171792D02*
X68121065Y2171792D01*
X68121065Y3124173D02*
X68216303Y3171792D01*
X68216303Y3171792D02*
X68406779Y3171792D01*
X68406779Y3171792D02*
X68502017Y3124173D01*
X68502017Y3124173D02*
X68549636Y3076554D01*
X68549636Y3076554D02*
X68597255Y2981316D01*
X68597255Y2981316D02*
X68597255Y2695602D01*
X68597255Y2695602D02*
X68549636Y2600364D01*
X68549636Y2600364D02*
X68502017Y2552744D01*
X68502017Y2552744D02*
X68406779Y2505125D01*
X68406779Y2505125D02*
X68216303Y2505125D01*
X68216303Y2505125D02*
X68121065Y2552744D01*
X69168684Y2505125D02*
X69073446Y2552744D01*
X69073446Y2552744D02*
X69025827Y2600364D01*
X69025827Y2600364D02*
X68978208Y2695602D01*
X68978208Y2695602D02*
X68978208Y2981316D01*
X68978208Y2981316D02*
X69025827Y3076554D01*
X69025827Y3076554D02*
X69073446Y3124173D01*
X69073446Y3124173D02*
X69168684Y3171792D01*
X69168684Y3171792D02*
X69311541Y3171792D01*
X69311541Y3171792D02*
X69406779Y3124173D01*
X69406779Y3124173D02*
X69454398Y3076554D01*
X69454398Y3076554D02*
X69502017Y2981316D01*
X69502017Y2981316D02*
X69502017Y2695602D01*
X69502017Y2695602D02*
X69454398Y2600364D01*
X69454398Y2600364D02*
X69406779Y2552744D01*
X69406779Y2552744D02*
X69311541Y2505125D01*
X69311541Y2505125D02*
X69168684Y2505125D01*
X69835351Y3171792D02*
X70025827Y2505125D01*
X70025827Y2505125D02*
X70216303Y2981316D01*
X70216303Y2981316D02*
X70406779Y2505125D01*
X70406779Y2505125D02*
X70597255Y3171792D01*
X71359160Y2552744D02*
X71263922Y2505125D01*
X71263922Y2505125D02*
X71073446Y2505125D01*
X71073446Y2505125D02*
X70978208Y2552744D01*
X70978208Y2552744D02*
X70930589Y2647983D01*
X70930589Y2647983D02*
X70930589Y3028935D01*
X70930589Y3028935D02*
X70978208Y3124173D01*
X70978208Y3124173D02*
X71073446Y3171792D01*
X71073446Y3171792D02*
X71263922Y3171792D01*
X71263922Y3171792D02*
X71359160Y3124173D01*
X71359160Y3124173D02*
X71406779Y3028935D01*
X71406779Y3028935D02*
X71406779Y2933697D01*
X71406779Y2933697D02*
X70930589Y2838459D01*
X71835351Y2505125D02*
X71835351Y3171792D01*
X71835351Y2981316D02*
X71882970Y3076554D01*
X71882970Y3076554D02*
X71930589Y3124173D01*
X71930589Y3124173D02*
X72025827Y3171792D01*
X72025827Y3171792D02*
X72121065Y3171792D01*
X64406779Y1895181D02*
X64406779Y1085658D01*
X64406779Y1085658D02*
X64454398Y990420D01*
X64454398Y990420D02*
X64502017Y942800D01*
X64502017Y942800D02*
X64597255Y895181D01*
X64597255Y895181D02*
X64787731Y895181D01*
X64787731Y895181D02*
X64882969Y942800D01*
X64882969Y942800D02*
X64930588Y990420D01*
X64930588Y990420D02*
X64978207Y1085658D01*
X64978207Y1085658D02*
X64978207Y1895181D01*
X65406779Y942800D02*
X65502017Y895181D01*
X65502017Y895181D02*
X65692493Y895181D01*
X65692493Y895181D02*
X65787731Y942800D01*
X65787731Y942800D02*
X65835350Y1038039D01*
X65835350Y1038039D02*
X65835350Y1085658D01*
X65835350Y1085658D02*
X65787731Y1180896D01*
X65787731Y1180896D02*
X65692493Y1228515D01*
X65692493Y1228515D02*
X65549636Y1228515D01*
X65549636Y1228515D02*
X65454398Y1276134D01*
X65454398Y1276134D02*
X65406779Y1371372D01*
X65406779Y1371372D02*
X65406779Y1418991D01*
X65406779Y1418991D02*
X65454398Y1514229D01*
X65454398Y1514229D02*
X65549636Y1561848D01*
X65549636Y1561848D02*
X65692493Y1561848D01*
X65692493Y1561848D02*
X65787731Y1514229D01*
X66644874Y942800D02*
X66549636Y895181D01*
X66549636Y895181D02*
X66359160Y895181D01*
X66359160Y895181D02*
X66263922Y942800D01*
X66263922Y942800D02*
X66216303Y1038039D01*
X66216303Y1038039D02*
X66216303Y1418991D01*
X66216303Y1418991D02*
X66263922Y1514229D01*
X66263922Y1514229D02*
X66359160Y1561848D01*
X66359160Y1561848D02*
X66549636Y1561848D01*
X66549636Y1561848D02*
X66644874Y1514229D01*
X66644874Y1514229D02*
X66692493Y1418991D01*
X66692493Y1418991D02*
X66692493Y1323753D01*
X66692493Y1323753D02*
X66216303Y1228515D01*
X68168684Y1895181D02*
X68168684Y1180896D01*
X68168684Y1180896D02*
X68121065Y1038039D01*
X68121065Y1038039D02*
X68025827Y942800D01*
X68025827Y942800D02*
X67882970Y895181D01*
X67882970Y895181D02*
X67787732Y895181D01*
X68692494Y895181D02*
X68882970Y895181D01*
X68882970Y895181D02*
X68978208Y942800D01*
X68978208Y942800D02*
X69025827Y990420D01*
X69025827Y990420D02*
X69121065Y1133277D01*
X69121065Y1133277D02*
X69168684Y1323753D01*
X69168684Y1323753D02*
X69168684Y1704705D01*
X69168684Y1704705D02*
X69121065Y1799943D01*
X69121065Y1799943D02*
X69073446Y1847562D01*
X69073446Y1847562D02*
X68978208Y1895181D01*
X68978208Y1895181D02*
X68787732Y1895181D01*
X68787732Y1895181D02*
X68692494Y1847562D01*
X68692494Y1847562D02*
X68644875Y1799943D01*
X68644875Y1799943D02*
X68597256Y1704705D01*
X68597256Y1704705D02*
X68597256Y1466610D01*
X68597256Y1466610D02*
X68644875Y1371372D01*
X68644875Y1371372D02*
X68692494Y1323753D01*
X68692494Y1323753D02*
X68787732Y1276134D01*
X68787732Y1276134D02*
X68978208Y1276134D01*
X68978208Y1276134D02*
X69073446Y1323753D01*
X69073446Y1323753D02*
X69121065Y1371372D01*
X69121065Y1371372D02*
X69168684Y1466610D01*
X70216304Y1561848D02*
X70597256Y1561848D01*
X70359161Y1895181D02*
X70359161Y1038039D01*
X70359161Y1038039D02*
X70406780Y942800D01*
X70406780Y942800D02*
X70502018Y895181D01*
X70502018Y895181D02*
X70597256Y895181D01*
X71073447Y895181D02*
X70978209Y942800D01*
X70978209Y942800D02*
X70930590Y990420D01*
X70930590Y990420D02*
X70882971Y1085658D01*
X70882971Y1085658D02*
X70882971Y1371372D01*
X70882971Y1371372D02*
X70930590Y1466610D01*
X70930590Y1466610D02*
X70978209Y1514229D01*
X70978209Y1514229D02*
X71073447Y1561848D01*
X71073447Y1561848D02*
X71216304Y1561848D01*
X71216304Y1561848D02*
X71311542Y1514229D01*
X71311542Y1514229D02*
X71359161Y1466610D01*
X71359161Y1466610D02*
X71406780Y1371372D01*
X71406780Y1371372D02*
X71406780Y1085658D01*
X71406780Y1085658D02*
X71359161Y990420D01*
X71359161Y990420D02*
X71311542Y942800D01*
X71311542Y942800D02*
X71216304Y895181D01*
X71216304Y895181D02*
X71073447Y895181D01*
X72549638Y942800D02*
X72644876Y895181D01*
X72644876Y895181D02*
X72835352Y895181D01*
X72835352Y895181D02*
X72930590Y942800D01*
X72930590Y942800D02*
X72978209Y1038039D01*
X72978209Y1038039D02*
X72978209Y1085658D01*
X72978209Y1085658D02*
X72930590Y1180896D01*
X72930590Y1180896D02*
X72835352Y1228515D01*
X72835352Y1228515D02*
X72692495Y1228515D01*
X72692495Y1228515D02*
X72597257Y1276134D01*
X72597257Y1276134D02*
X72549638Y1371372D01*
X72549638Y1371372D02*
X72549638Y1418991D01*
X72549638Y1418991D02*
X72597257Y1514229D01*
X72597257Y1514229D02*
X72692495Y1561848D01*
X72692495Y1561848D02*
X72835352Y1561848D01*
X72835352Y1561848D02*
X72930590Y1514229D01*
X73787733Y942800D02*
X73692495Y895181D01*
X73692495Y895181D02*
X73502019Y895181D01*
X73502019Y895181D02*
X73406781Y942800D01*
X73406781Y942800D02*
X73359162Y1038039D01*
X73359162Y1038039D02*
X73359162Y1418991D01*
X73359162Y1418991D02*
X73406781Y1514229D01*
X73406781Y1514229D02*
X73502019Y1561848D01*
X73502019Y1561848D02*
X73692495Y1561848D01*
X73692495Y1561848D02*
X73787733Y1514229D01*
X73787733Y1514229D02*
X73835352Y1418991D01*
X73835352Y1418991D02*
X73835352Y1323753D01*
X73835352Y1323753D02*
X73359162Y1228515D01*
X74406781Y895181D02*
X74311543Y942800D01*
X74311543Y942800D02*
X74263924Y1038039D01*
X74263924Y1038039D02*
X74263924Y1895181D01*
X75168686Y942800D02*
X75073448Y895181D01*
X75073448Y895181D02*
X74882972Y895181D01*
X74882972Y895181D02*
X74787734Y942800D01*
X74787734Y942800D02*
X74740115Y1038039D01*
X74740115Y1038039D02*
X74740115Y1418991D01*
X74740115Y1418991D02*
X74787734Y1514229D01*
X74787734Y1514229D02*
X74882972Y1561848D01*
X74882972Y1561848D02*
X75073448Y1561848D01*
X75073448Y1561848D02*
X75168686Y1514229D01*
X75168686Y1514229D02*
X75216305Y1418991D01*
X75216305Y1418991D02*
X75216305Y1323753D01*
X75216305Y1323753D02*
X74740115Y1228515D01*
X76073448Y942800D02*
X75978210Y895181D01*
X75978210Y895181D02*
X75787734Y895181D01*
X75787734Y895181D02*
X75692496Y942800D01*
X75692496Y942800D02*
X75644877Y990420D01*
X75644877Y990420D02*
X75597258Y1085658D01*
X75597258Y1085658D02*
X75597258Y1371372D01*
X75597258Y1371372D02*
X75644877Y1466610D01*
X75644877Y1466610D02*
X75692496Y1514229D01*
X75692496Y1514229D02*
X75787734Y1561848D01*
X75787734Y1561848D02*
X75978210Y1561848D01*
X75978210Y1561848D02*
X76073448Y1514229D01*
X76359163Y1561848D02*
X76740115Y1561848D01*
X76502020Y1895181D02*
X76502020Y1038039D01*
X76502020Y1038039D02*
X76549639Y942800D01*
X76549639Y942800D02*
X76644877Y895181D01*
X76644877Y895181D02*
X76740115Y895181D01*
X77835354Y1895181D02*
X77835354Y1085658D01*
X77835354Y1085658D02*
X77882973Y990420D01*
X77882973Y990420D02*
X77930592Y942800D01*
X77930592Y942800D02*
X78025830Y895181D01*
X78025830Y895181D02*
X78216306Y895181D01*
X78216306Y895181D02*
X78311544Y942800D01*
X78311544Y942800D02*
X78359163Y990420D01*
X78359163Y990420D02*
X78406782Y1085658D01*
X78406782Y1085658D02*
X78406782Y1895181D01*
X78835354Y942800D02*
X78978211Y895181D01*
X78978211Y895181D02*
X79216306Y895181D01*
X79216306Y895181D02*
X79311544Y942800D01*
X79311544Y942800D02*
X79359163Y990420D01*
X79359163Y990420D02*
X79406782Y1085658D01*
X79406782Y1085658D02*
X79406782Y1180896D01*
X79406782Y1180896D02*
X79359163Y1276134D01*
X79359163Y1276134D02*
X79311544Y1323753D01*
X79311544Y1323753D02*
X79216306Y1371372D01*
X79216306Y1371372D02*
X79025830Y1418991D01*
X79025830Y1418991D02*
X78930592Y1466610D01*
X78930592Y1466610D02*
X78882973Y1514229D01*
X78882973Y1514229D02*
X78835354Y1609467D01*
X78835354Y1609467D02*
X78835354Y1704705D01*
X78835354Y1704705D02*
X78882973Y1799943D01*
X78882973Y1799943D02*
X78930592Y1847562D01*
X78930592Y1847562D02*
X79025830Y1895181D01*
X79025830Y1895181D02*
X79263925Y1895181D01*
X79263925Y1895181D02*
X79406782Y1847562D01*
X80168687Y1418991D02*
X80311544Y1371372D01*
X80311544Y1371372D02*
X80359163Y1323753D01*
X80359163Y1323753D02*
X80406782Y1228515D01*
X80406782Y1228515D02*
X80406782Y1085658D01*
X80406782Y1085658D02*
X80359163Y990420D01*
X80359163Y990420D02*
X80311544Y942800D01*
X80311544Y942800D02*
X80216306Y895181D01*
X80216306Y895181D02*
X79835354Y895181D01*
X79835354Y895181D02*
X79835354Y1895181D01*
X79835354Y1895181D02*
X80168687Y1895181D01*
X80168687Y1895181D02*
X80263925Y1847562D01*
X80263925Y1847562D02*
X80311544Y1799943D01*
X80311544Y1799943D02*
X80359163Y1704705D01*
X80359163Y1704705D02*
X80359163Y1609467D01*
X80359163Y1609467D02*
X80311544Y1514229D01*
X80311544Y1514229D02*
X80263925Y1466610D01*
X80263925Y1466610D02*
X80168687Y1418991D01*
X80168687Y1418991D02*
X79835354Y1418991D01*
X81740116Y895181D02*
X81644878Y942800D01*
X81644878Y942800D02*
X81597259Y990420D01*
X81597259Y990420D02*
X81549640Y1085658D01*
X81549640Y1085658D02*
X81549640Y1371372D01*
X81549640Y1371372D02*
X81597259Y1466610D01*
X81597259Y1466610D02*
X81644878Y1514229D01*
X81644878Y1514229D02*
X81740116Y1561848D01*
X81740116Y1561848D02*
X81882973Y1561848D01*
X81882973Y1561848D02*
X81978211Y1514229D01*
X81978211Y1514229D02*
X82025830Y1466610D01*
X82025830Y1466610D02*
X82073449Y1371372D01*
X82073449Y1371372D02*
X82073449Y1085658D01*
X82073449Y1085658D02*
X82025830Y990420D01*
X82025830Y990420D02*
X81978211Y942800D01*
X81978211Y942800D02*
X81882973Y895181D01*
X81882973Y895181D02*
X81740116Y895181D01*
X82502021Y895181D02*
X82502021Y1561848D01*
X82502021Y1371372D02*
X82549640Y1466610D01*
X82549640Y1466610D02*
X82597259Y1514229D01*
X82597259Y1514229D02*
X82692497Y1561848D01*
X82692497Y1561848D02*
X82787735Y1561848D01*
X83882974Y895181D02*
X83882974Y1895181D01*
X83882974Y1895181D02*
X84263926Y1895181D01*
X84263926Y1895181D02*
X84359164Y1847562D01*
X84359164Y1847562D02*
X84406783Y1799943D01*
X84406783Y1799943D02*
X84454402Y1704705D01*
X84454402Y1704705D02*
X84454402Y1561848D01*
X84454402Y1561848D02*
X84406783Y1466610D01*
X84406783Y1466610D02*
X84359164Y1418991D01*
X84359164Y1418991D02*
X84263926Y1371372D01*
X84263926Y1371372D02*
X83882974Y1371372D01*
X84882974Y895181D02*
X84882974Y1895181D01*
X85359164Y895181D02*
X85359164Y1895181D01*
X85359164Y1895181D02*
X85930592Y895181D01*
X85930592Y895181D02*
X85930592Y1895181D01*
X86359164Y942800D02*
X86502021Y895181D01*
X86502021Y895181D02*
X86740116Y895181D01*
X86740116Y895181D02*
X86835354Y942800D01*
X86835354Y942800D02*
X86882973Y990420D01*
X86882973Y990420D02*
X86930592Y1085658D01*
X86930592Y1085658D02*
X86930592Y1180896D01*
X86930592Y1180896D02*
X86882973Y1276134D01*
X86882973Y1276134D02*
X86835354Y1323753D01*
X86835354Y1323753D02*
X86740116Y1371372D01*
X86740116Y1371372D02*
X86549640Y1418991D01*
X86549640Y1418991D02*
X86454402Y1466610D01*
X86454402Y1466610D02*
X86406783Y1514229D01*
X86406783Y1514229D02*
X86359164Y1609467D01*
X86359164Y1609467D02*
X86359164Y1704705D01*
X86359164Y1704705D02*
X86406783Y1799943D01*
X86406783Y1799943D02*
X86454402Y1847562D01*
X86454402Y1847562D02*
X86549640Y1895181D01*
X86549640Y1895181D02*
X86787735Y1895181D01*
X86787735Y1895181D02*
X86930592Y1847562D01*
X80336541Y13520181D02*
X80955588Y13520181D01*
X80955588Y13520181D02*
X80622255Y13139229D01*
X80622255Y13139229D02*
X80765112Y13139229D01*
X80765112Y13139229D02*
X80860350Y13091610D01*
X80860350Y13091610D02*
X80907969Y13043991D01*
X80907969Y13043991D02*
X80955588Y12948753D01*
X80955588Y12948753D02*
X80955588Y12710658D01*
X80955588Y12710658D02*
X80907969Y12615420D01*
X80907969Y12615420D02*
X80860350Y12567800D01*
X80860350Y12567800D02*
X80765112Y12520181D01*
X80765112Y12520181D02*
X80479398Y12520181D01*
X80479398Y12520181D02*
X80384160Y12567800D01*
X80384160Y12567800D02*
X80336541Y12615420D01*
X81241303Y13520181D02*
X81574636Y12520181D01*
X81574636Y12520181D02*
X81907969Y13520181D01*
X82146065Y13520181D02*
X82765112Y13520181D01*
X82765112Y13520181D02*
X82431779Y13139229D01*
X82431779Y13139229D02*
X82574636Y13139229D01*
X82574636Y13139229D02*
X82669874Y13091610D01*
X82669874Y13091610D02*
X82717493Y13043991D01*
X82717493Y13043991D02*
X82765112Y12948753D01*
X82765112Y12948753D02*
X82765112Y12710658D01*
X82765112Y12710658D02*
X82717493Y12615420D01*
X82717493Y12615420D02*
X82669874Y12567800D01*
X82669874Y12567800D02*
X82574636Y12520181D01*
X82574636Y12520181D02*
X82288922Y12520181D01*
X82288922Y12520181D02*
X82193684Y12567800D01*
X82193684Y12567800D02*
X82146065Y12615420D01*
X83955589Y12520181D02*
X83955589Y13520181D01*
X83955589Y13520181D02*
X84336541Y13520181D01*
X84336541Y13520181D02*
X84431779Y13472562D01*
X84431779Y13472562D02*
X84479398Y13424943D01*
X84479398Y13424943D02*
X84527017Y13329705D01*
X84527017Y13329705D02*
X84527017Y13186848D01*
X84527017Y13186848D02*
X84479398Y13091610D01*
X84479398Y13091610D02*
X84431779Y13043991D01*
X84431779Y13043991D02*
X84336541Y12996372D01*
X84336541Y12996372D02*
X83955589Y12996372D01*
X85336541Y12567800D02*
X85241303Y12520181D01*
X85241303Y12520181D02*
X85050827Y12520181D01*
X85050827Y12520181D02*
X84955589Y12567800D01*
X84955589Y12567800D02*
X84907970Y12663039D01*
X84907970Y12663039D02*
X84907970Y13043991D01*
X84907970Y13043991D02*
X84955589Y13139229D01*
X84955589Y13139229D02*
X85050827Y13186848D01*
X85050827Y13186848D02*
X85241303Y13186848D01*
X85241303Y13186848D02*
X85336541Y13139229D01*
X85336541Y13139229D02*
X85384160Y13043991D01*
X85384160Y13043991D02*
X85384160Y12948753D01*
X85384160Y12948753D02*
X84907970Y12853515D01*
X85812732Y12520181D02*
X85812732Y13186848D01*
X85812732Y12996372D02*
X85860351Y13091610D01*
X85860351Y13091610D02*
X85907970Y13139229D01*
X85907970Y13139229D02*
X86003208Y13186848D01*
X86003208Y13186848D02*
X86098446Y13186848D01*
X86431780Y12520181D02*
X86431780Y13186848D01*
X86431780Y13520181D02*
X86384161Y13472562D01*
X86384161Y13472562D02*
X86431780Y13424943D01*
X86431780Y13424943D02*
X86479399Y13472562D01*
X86479399Y13472562D02*
X86431780Y13520181D01*
X86431780Y13520181D02*
X86431780Y13424943D01*
X86907970Y13186848D02*
X86907970Y12186848D01*
X86907970Y13139229D02*
X87003208Y13186848D01*
X87003208Y13186848D02*
X87193684Y13186848D01*
X87193684Y13186848D02*
X87288922Y13139229D01*
X87288922Y13139229D02*
X87336541Y13091610D01*
X87336541Y13091610D02*
X87384160Y12996372D01*
X87384160Y12996372D02*
X87384160Y12710658D01*
X87384160Y12710658D02*
X87336541Y12615420D01*
X87336541Y12615420D02*
X87288922Y12567800D01*
X87288922Y12567800D02*
X87193684Y12520181D01*
X87193684Y12520181D02*
X87003208Y12520181D01*
X87003208Y12520181D02*
X86907970Y12567800D01*
X87812732Y12520181D02*
X87812732Y13520181D01*
X88241303Y12520181D02*
X88241303Y13043991D01*
X88241303Y13043991D02*
X88193684Y13139229D01*
X88193684Y13139229D02*
X88098446Y13186848D01*
X88098446Y13186848D02*
X87955589Y13186848D01*
X87955589Y13186848D02*
X87860351Y13139229D01*
X87860351Y13139229D02*
X87812732Y13091610D01*
X89098446Y12567800D02*
X89003208Y12520181D01*
X89003208Y12520181D02*
X88812732Y12520181D01*
X88812732Y12520181D02*
X88717494Y12567800D01*
X88717494Y12567800D02*
X88669875Y12663039D01*
X88669875Y12663039D02*
X88669875Y13043991D01*
X88669875Y13043991D02*
X88717494Y13139229D01*
X88717494Y13139229D02*
X88812732Y13186848D01*
X88812732Y13186848D02*
X89003208Y13186848D01*
X89003208Y13186848D02*
X89098446Y13139229D01*
X89098446Y13139229D02*
X89146065Y13043991D01*
X89146065Y13043991D02*
X89146065Y12948753D01*
X89146065Y12948753D02*
X88669875Y12853515D01*
X89574637Y12520181D02*
X89574637Y13186848D01*
X89574637Y12996372D02*
X89622256Y13091610D01*
X89622256Y13091610D02*
X89669875Y13139229D01*
X89669875Y13139229D02*
X89765113Y13186848D01*
X89765113Y13186848D02*
X89860351Y13186848D01*
X90622256Y12520181D02*
X90622256Y13043991D01*
X90622256Y13043991D02*
X90574637Y13139229D01*
X90574637Y13139229D02*
X90479399Y13186848D01*
X90479399Y13186848D02*
X90288923Y13186848D01*
X90288923Y13186848D02*
X90193685Y13139229D01*
X90622256Y12567800D02*
X90527018Y12520181D01*
X90527018Y12520181D02*
X90288923Y12520181D01*
X90288923Y12520181D02*
X90193685Y12567800D01*
X90193685Y12567800D02*
X90146066Y12663039D01*
X90146066Y12663039D02*
X90146066Y12758277D01*
X90146066Y12758277D02*
X90193685Y12853515D01*
X90193685Y12853515D02*
X90288923Y12901134D01*
X90288923Y12901134D02*
X90527018Y12901134D01*
X90527018Y12901134D02*
X90622256Y12948753D01*
X91241304Y12520181D02*
X91146066Y12567800D01*
X91146066Y12567800D02*
X91098447Y12663039D01*
X91098447Y12663039D02*
X91098447Y13520181D01*
X92384162Y12520181D02*
X92384162Y13520181D01*
X92384162Y13520181D02*
X92765114Y13520181D01*
X92765114Y13520181D02*
X92860352Y13472562D01*
X92860352Y13472562D02*
X92907971Y13424943D01*
X92907971Y13424943D02*
X92955590Y13329705D01*
X92955590Y13329705D02*
X92955590Y13186848D01*
X92955590Y13186848D02*
X92907971Y13091610D01*
X92907971Y13091610D02*
X92860352Y13043991D01*
X92860352Y13043991D02*
X92765114Y12996372D01*
X92765114Y12996372D02*
X92384162Y12996372D01*
X93527019Y12520181D02*
X93431781Y12567800D01*
X93431781Y12567800D02*
X93384162Y12615420D01*
X93384162Y12615420D02*
X93336543Y12710658D01*
X93336543Y12710658D02*
X93336543Y12996372D01*
X93336543Y12996372D02*
X93384162Y13091610D01*
X93384162Y13091610D02*
X93431781Y13139229D01*
X93431781Y13139229D02*
X93527019Y13186848D01*
X93527019Y13186848D02*
X93669876Y13186848D01*
X93669876Y13186848D02*
X93765114Y13139229D01*
X93765114Y13139229D02*
X93812733Y13091610D01*
X93812733Y13091610D02*
X93860352Y12996372D01*
X93860352Y12996372D02*
X93860352Y12710658D01*
X93860352Y12710658D02*
X93812733Y12615420D01*
X93812733Y12615420D02*
X93765114Y12567800D01*
X93765114Y12567800D02*
X93669876Y12520181D01*
X93669876Y12520181D02*
X93527019Y12520181D01*
X94193686Y13186848D02*
X94384162Y12520181D01*
X94384162Y12520181D02*
X94574638Y12996372D01*
X94574638Y12996372D02*
X94765114Y12520181D01*
X94765114Y12520181D02*
X94955590Y13186848D01*
X95717495Y12567800D02*
X95622257Y12520181D01*
X95622257Y12520181D02*
X95431781Y12520181D01*
X95431781Y12520181D02*
X95336543Y12567800D01*
X95336543Y12567800D02*
X95288924Y12663039D01*
X95288924Y12663039D02*
X95288924Y13043991D01*
X95288924Y13043991D02*
X95336543Y13139229D01*
X95336543Y13139229D02*
X95431781Y13186848D01*
X95431781Y13186848D02*
X95622257Y13186848D01*
X95622257Y13186848D02*
X95717495Y13139229D01*
X95717495Y13139229D02*
X95765114Y13043991D01*
X95765114Y13043991D02*
X95765114Y12948753D01*
X95765114Y12948753D02*
X95288924Y12853515D01*
X96193686Y12520181D02*
X96193686Y13186848D01*
X96193686Y12996372D02*
X96241305Y13091610D01*
X96241305Y13091610D02*
X96288924Y13139229D01*
X96288924Y13139229D02*
X96384162Y13186848D01*
X96384162Y13186848D02*
X96479400Y13186848D01*
X95794819Y16637970D02*
X95794819Y16161780D01*
X95794819Y16161780D02*
X94794819Y16161780D01*
X95794819Y16971304D02*
X95128152Y16971304D01*
X94794819Y16971304D02*
X94842438Y16923685D01*
X94842438Y16923685D02*
X94890057Y16971304D01*
X94890057Y16971304D02*
X94842438Y17018923D01*
X94842438Y17018923D02*
X94794819Y16971304D01*
X94794819Y16971304D02*
X94890057Y16971304D01*
X95794819Y17447494D02*
X94794819Y17447494D01*
X94794819Y17447494D02*
X94794819Y17828446D01*
X94794819Y17828446D02*
X94842438Y17923684D01*
X94842438Y17923684D02*
X94890057Y17971303D01*
X94890057Y17971303D02*
X94985295Y18018922D01*
X94985295Y18018922D02*
X95128152Y18018922D01*
X95128152Y18018922D02*
X95223390Y17971303D01*
X95223390Y17971303D02*
X95271009Y17923684D01*
X95271009Y17923684D02*
X95318628Y17828446D01*
X95318628Y17828446D02*
X95318628Y17447494D01*
X95794819Y18590351D02*
X95747200Y18495113D01*
X95747200Y18495113D02*
X95699580Y18447494D01*
X95699580Y18447494D02*
X95604342Y18399875D01*
X95604342Y18399875D02*
X95318628Y18399875D01*
X95318628Y18399875D02*
X95223390Y18447494D01*
X95223390Y18447494D02*
X95175771Y18495113D01*
X95175771Y18495113D02*
X95128152Y18590351D01*
X95128152Y18590351D02*
X95128152Y18733208D01*
X95128152Y18733208D02*
X95175771Y18828446D01*
X95175771Y18828446D02*
X95223390Y18876065D01*
X95223390Y18876065D02*
X95318628Y18923684D01*
X95318628Y18923684D02*
X95604342Y18923684D01*
X95604342Y18923684D02*
X95699580Y18876065D01*
X95699580Y18876065D02*
X95747200Y18828446D01*
X95747200Y18828446D02*
X95794819Y18733208D01*
X95794819Y18733208D02*
X95794819Y18590351D01*
X95271009Y20447494D02*
X95318628Y20590351D01*
X95318628Y20590351D02*
X95366247Y20637970D01*
X95366247Y20637970D02*
X95461485Y20685589D01*
X95461485Y20685589D02*
X95604342Y20685589D01*
X95604342Y20685589D02*
X95699580Y20637970D01*
X95699580Y20637970D02*
X95747200Y20590351D01*
X95747200Y20590351D02*
X95794819Y20495113D01*
X95794819Y20495113D02*
X95794819Y20114161D01*
X95794819Y20114161D02*
X94794819Y20114161D01*
X94794819Y20114161D02*
X94794819Y20447494D01*
X94794819Y20447494D02*
X94842438Y20542732D01*
X94842438Y20542732D02*
X94890057Y20590351D01*
X94890057Y20590351D02*
X94985295Y20637970D01*
X94985295Y20637970D02*
X95080533Y20637970D01*
X95080533Y20637970D02*
X95175771Y20590351D01*
X95175771Y20590351D02*
X95223390Y20542732D01*
X95223390Y20542732D02*
X95271009Y20447494D01*
X95271009Y20447494D02*
X95271009Y20114161D01*
X95794819Y21542732D02*
X95271009Y21542732D01*
X95271009Y21542732D02*
X95175771Y21495113D01*
X95175771Y21495113D02*
X95128152Y21399875D01*
X95128152Y21399875D02*
X95128152Y21209399D01*
X95128152Y21209399D02*
X95175771Y21114161D01*
X95747200Y21542732D02*
X95794819Y21447494D01*
X95794819Y21447494D02*
X95794819Y21209399D01*
X95794819Y21209399D02*
X95747200Y21114161D01*
X95747200Y21114161D02*
X95651961Y21066542D01*
X95651961Y21066542D02*
X95556723Y21066542D01*
X95556723Y21066542D02*
X95461485Y21114161D01*
X95461485Y21114161D02*
X95413866Y21209399D01*
X95413866Y21209399D02*
X95413866Y21447494D01*
X95413866Y21447494D02*
X95366247Y21542732D01*
X95794819Y22161780D02*
X95747200Y22066542D01*
X95747200Y22066542D02*
X95651961Y22018923D01*
X95651961Y22018923D02*
X94794819Y22018923D01*
X95794819Y22971304D02*
X95271009Y22971304D01*
X95271009Y22971304D02*
X95175771Y22923685D01*
X95175771Y22923685D02*
X95128152Y22828447D01*
X95128152Y22828447D02*
X95128152Y22637971D01*
X95128152Y22637971D02*
X95175771Y22542733D01*
X95747200Y22971304D02*
X95794819Y22876066D01*
X95794819Y22876066D02*
X95794819Y22637971D01*
X95794819Y22637971D02*
X95747200Y22542733D01*
X95747200Y22542733D02*
X95651961Y22495114D01*
X95651961Y22495114D02*
X95556723Y22495114D01*
X95556723Y22495114D02*
X95461485Y22542733D01*
X95461485Y22542733D02*
X95413866Y22637971D01*
X95413866Y22637971D02*
X95413866Y22876066D01*
X95413866Y22876066D02*
X95366247Y22971304D01*
X95128152Y23447495D02*
X95794819Y23447495D01*
X95223390Y23447495D02*
X95175771Y23495114D01*
X95175771Y23495114D02*
X95128152Y23590352D01*
X95128152Y23590352D02*
X95128152Y23733209D01*
X95128152Y23733209D02*
X95175771Y23828447D01*
X95175771Y23828447D02*
X95271009Y23876066D01*
X95271009Y23876066D02*
X95794819Y23876066D01*
X95747200Y24780828D02*
X95794819Y24685590D01*
X95794819Y24685590D02*
X95794819Y24495114D01*
X95794819Y24495114D02*
X95747200Y24399876D01*
X95747200Y24399876D02*
X95699580Y24352257D01*
X95699580Y24352257D02*
X95604342Y24304638D01*
X95604342Y24304638D02*
X95318628Y24304638D01*
X95318628Y24304638D02*
X95223390Y24352257D01*
X95223390Y24352257D02*
X95175771Y24399876D01*
X95175771Y24399876D02*
X95128152Y24495114D01*
X95128152Y24495114D02*
X95128152Y24685590D01*
X95128152Y24685590D02*
X95175771Y24780828D01*
X95747200Y25590352D02*
X95794819Y25495114D01*
X95794819Y25495114D02*
X95794819Y25304638D01*
X95794819Y25304638D02*
X95747200Y25209400D01*
X95747200Y25209400D02*
X95651961Y25161781D01*
X95651961Y25161781D02*
X95271009Y25161781D01*
X95271009Y25161781D02*
X95175771Y25209400D01*
X95175771Y25209400D02*
X95128152Y25304638D01*
X95128152Y25304638D02*
X95128152Y25495114D01*
X95128152Y25495114D02*
X95175771Y25590352D01*
X95175771Y25590352D02*
X95271009Y25637971D01*
X95271009Y25637971D02*
X95366247Y25637971D01*
X95366247Y25637971D02*
X95461485Y25161781D01*
X45939819Y7052970D02*
X45939819Y6576780D01*
X45939819Y6576780D02*
X46416009Y6529161D01*
X46416009Y6529161D02*
X46368390Y6576780D01*
X46368390Y6576780D02*
X46320771Y6672018D01*
X46320771Y6672018D02*
X46320771Y6910113D01*
X46320771Y6910113D02*
X46368390Y7005351D01*
X46368390Y7005351D02*
X46416009Y7052970D01*
X46416009Y7052970D02*
X46511247Y7100589D01*
X46511247Y7100589D02*
X46749342Y7100589D01*
X46749342Y7100589D02*
X46844580Y7052970D01*
X46844580Y7052970D02*
X46892200Y7005351D01*
X46892200Y7005351D02*
X46939819Y6910113D01*
X46939819Y6910113D02*
X46939819Y6672018D01*
X46939819Y6672018D02*
X46892200Y6576780D01*
X46892200Y6576780D02*
X46844580Y6529161D01*
X45939819Y7386304D02*
X46939819Y7719637D01*
X46939819Y7719637D02*
X45939819Y8052970D01*
X65689819Y11701780D02*
X66499342Y11701780D01*
X66499342Y11701780D02*
X66594580Y11749399D01*
X66594580Y11749399D02*
X66642200Y11797018D01*
X66642200Y11797018D02*
X66689819Y11892256D01*
X66689819Y11892256D02*
X66689819Y12082732D01*
X66689819Y12082732D02*
X66642200Y12177970D01*
X66642200Y12177970D02*
X66594580Y12225589D01*
X66594580Y12225589D02*
X66499342Y12273208D01*
X66499342Y12273208D02*
X65689819Y12273208D01*
X66642200Y12701780D02*
X66689819Y12844637D01*
X66689819Y12844637D02*
X66689819Y13082732D01*
X66689819Y13082732D02*
X66642200Y13177970D01*
X66642200Y13177970D02*
X66594580Y13225589D01*
X66594580Y13225589D02*
X66499342Y13273208D01*
X66499342Y13273208D02*
X66404104Y13273208D01*
X66404104Y13273208D02*
X66308866Y13225589D01*
X66308866Y13225589D02*
X66261247Y13177970D01*
X66261247Y13177970D02*
X66213628Y13082732D01*
X66213628Y13082732D02*
X66166009Y12892256D01*
X66166009Y12892256D02*
X66118390Y12797018D01*
X66118390Y12797018D02*
X66070771Y12749399D01*
X66070771Y12749399D02*
X65975533Y12701780D01*
X65975533Y12701780D02*
X65880295Y12701780D01*
X65880295Y12701780D02*
X65785057Y12749399D01*
X65785057Y12749399D02*
X65737438Y12797018D01*
X65737438Y12797018D02*
X65689819Y12892256D01*
X65689819Y12892256D02*
X65689819Y13130351D01*
X65689819Y13130351D02*
X65737438Y13273208D01*
X66166009Y14035113D02*
X66213628Y14177970D01*
X66213628Y14177970D02*
X66261247Y14225589D01*
X66261247Y14225589D02*
X66356485Y14273208D01*
X66356485Y14273208D02*
X66499342Y14273208D01*
X66499342Y14273208D02*
X66594580Y14225589D01*
X66594580Y14225589D02*
X66642200Y14177970D01*
X66642200Y14177970D02*
X66689819Y14082732D01*
X66689819Y14082732D02*
X66689819Y13701780D01*
X66689819Y13701780D02*
X65689819Y13701780D01*
X65689819Y13701780D02*
X65689819Y14035113D01*
X65689819Y14035113D02*
X65737438Y14130351D01*
X65737438Y14130351D02*
X65785057Y14177970D01*
X65785057Y14177970D02*
X65880295Y14225589D01*
X65880295Y14225589D02*
X65975533Y14225589D01*
X65975533Y14225589D02*
X66070771Y14177970D01*
X66070771Y14177970D02*
X66118390Y14130351D01*
X66118390Y14130351D02*
X66166009Y14035113D01*
X66166009Y14035113D02*
X66166009Y13701780D01*
X5909160Y53992800D02*
X6052017Y53945181D01*
X6052017Y53945181D02*
X6290112Y53945181D01*
X6290112Y53945181D02*
X6385350Y53992800D01*
X6385350Y53992800D02*
X6432969Y54040420D01*
X6432969Y54040420D02*
X6480588Y54135658D01*
X6480588Y54135658D02*
X6480588Y54230896D01*
X6480588Y54230896D02*
X6432969Y54326134D01*
X6432969Y54326134D02*
X6385350Y54373753D01*
X6385350Y54373753D02*
X6290112Y54421372D01*
X6290112Y54421372D02*
X6099636Y54468991D01*
X6099636Y54468991D02*
X6004398Y54516610D01*
X6004398Y54516610D02*
X5956779Y54564229D01*
X5956779Y54564229D02*
X5909160Y54659467D01*
X5909160Y54659467D02*
X5909160Y54754705D01*
X5909160Y54754705D02*
X5956779Y54849943D01*
X5956779Y54849943D02*
X6004398Y54897562D01*
X6004398Y54897562D02*
X6099636Y54945181D01*
X6099636Y54945181D02*
X6337731Y54945181D01*
X6337731Y54945181D02*
X6480588Y54897562D01*
X7480588Y54040420D02*
X7432969Y53992800D01*
X7432969Y53992800D02*
X7290112Y53945181D01*
X7290112Y53945181D02*
X7194874Y53945181D01*
X7194874Y53945181D02*
X7052017Y53992800D01*
X7052017Y53992800D02*
X6956779Y54088039D01*
X6956779Y54088039D02*
X6909160Y54183277D01*
X6909160Y54183277D02*
X6861541Y54373753D01*
X6861541Y54373753D02*
X6861541Y54516610D01*
X6861541Y54516610D02*
X6909160Y54707086D01*
X6909160Y54707086D02*
X6956779Y54802324D01*
X6956779Y54802324D02*
X7052017Y54897562D01*
X7052017Y54897562D02*
X7194874Y54945181D01*
X7194874Y54945181D02*
X7290112Y54945181D01*
X7290112Y54945181D02*
X7432969Y54897562D01*
X7432969Y54897562D02*
X7480588Y54849943D01*
X7909160Y53945181D02*
X7909160Y54945181D01*
X8480588Y53945181D02*
X8052017Y54516610D01*
X8480588Y54945181D02*
X7909160Y54373753D01*
X48514819Y6483923D02*
X49514819Y6817256D01*
X49514819Y6817256D02*
X48514819Y7150589D01*
X49610057Y7245827D02*
X49610057Y8007732D01*
X48991009Y8579161D02*
X49038628Y8722018D01*
X49038628Y8722018D02*
X49086247Y8769637D01*
X49086247Y8769637D02*
X49181485Y8817256D01*
X49181485Y8817256D02*
X49324342Y8817256D01*
X49324342Y8817256D02*
X49419580Y8769637D01*
X49419580Y8769637D02*
X49467200Y8722018D01*
X49467200Y8722018D02*
X49514819Y8626780D01*
X49514819Y8626780D02*
X49514819Y8245828D01*
X49514819Y8245828D02*
X48514819Y8245828D01*
X48514819Y8245828D02*
X48514819Y8579161D01*
X48514819Y8579161D02*
X48562438Y8674399D01*
X48562438Y8674399D02*
X48610057Y8722018D01*
X48610057Y8722018D02*
X48705295Y8769637D01*
X48705295Y8769637D02*
X48800533Y8769637D01*
X48800533Y8769637D02*
X48895771Y8722018D01*
X48895771Y8722018D02*
X48943390Y8674399D01*
X48943390Y8674399D02*
X48991009Y8579161D01*
X48991009Y8579161D02*
X48991009Y8245828D01*
X49514819Y9674399D02*
X48991009Y9674399D01*
X48991009Y9674399D02*
X48895771Y9626780D01*
X48895771Y9626780D02*
X48848152Y9531542D01*
X48848152Y9531542D02*
X48848152Y9341066D01*
X48848152Y9341066D02*
X48895771Y9245828D01*
X49467200Y9674399D02*
X49514819Y9579161D01*
X49514819Y9579161D02*
X49514819Y9341066D01*
X49514819Y9341066D02*
X49467200Y9245828D01*
X49467200Y9245828D02*
X49371961Y9198209D01*
X49371961Y9198209D02*
X49276723Y9198209D01*
X49276723Y9198209D02*
X49181485Y9245828D01*
X49181485Y9245828D02*
X49133866Y9341066D01*
X49133866Y9341066D02*
X49133866Y9579161D01*
X49133866Y9579161D02*
X49086247Y9674399D01*
X48848152Y10007733D02*
X48848152Y10388685D01*
X48514819Y10150590D02*
X49371961Y10150590D01*
X49371961Y10150590D02*
X49467200Y10198209D01*
X49467200Y10198209D02*
X49514819Y10293447D01*
X49514819Y10293447D02*
X49514819Y10388685D01*
X91931779Y76901134D02*
X92693684Y76901134D01*
X92312731Y76520181D02*
X92312731Y77282086D01*
X80907969Y16020181D02*
X80431779Y16020181D01*
X80431779Y16020181D02*
X80384160Y15543991D01*
X80384160Y15543991D02*
X80431779Y15591610D01*
X80431779Y15591610D02*
X80527017Y15639229D01*
X80527017Y15639229D02*
X80765112Y15639229D01*
X80765112Y15639229D02*
X80860350Y15591610D01*
X80860350Y15591610D02*
X80907969Y15543991D01*
X80907969Y15543991D02*
X80955588Y15448753D01*
X80955588Y15448753D02*
X80955588Y15210658D01*
X80955588Y15210658D02*
X80907969Y15115420D01*
X80907969Y15115420D02*
X80860350Y15067800D01*
X80860350Y15067800D02*
X80765112Y15020181D01*
X80765112Y15020181D02*
X80527017Y15020181D01*
X80527017Y15020181D02*
X80431779Y15067800D01*
X80431779Y15067800D02*
X80384160Y15115420D01*
X81241303Y16020181D02*
X81574636Y15020181D01*
X81574636Y15020181D02*
X81907969Y16020181D01*
X82955589Y15067800D02*
X83098446Y15020181D01*
X83098446Y15020181D02*
X83336541Y15020181D01*
X83336541Y15020181D02*
X83431779Y15067800D01*
X83431779Y15067800D02*
X83479398Y15115420D01*
X83479398Y15115420D02*
X83527017Y15210658D01*
X83527017Y15210658D02*
X83527017Y15305896D01*
X83527017Y15305896D02*
X83479398Y15401134D01*
X83479398Y15401134D02*
X83431779Y15448753D01*
X83431779Y15448753D02*
X83336541Y15496372D01*
X83336541Y15496372D02*
X83146065Y15543991D01*
X83146065Y15543991D02*
X83050827Y15591610D01*
X83050827Y15591610D02*
X83003208Y15639229D01*
X83003208Y15639229D02*
X82955589Y15734467D01*
X82955589Y15734467D02*
X82955589Y15829705D01*
X82955589Y15829705D02*
X83003208Y15924943D01*
X83003208Y15924943D02*
X83050827Y15972562D01*
X83050827Y15972562D02*
X83146065Y16020181D01*
X83146065Y16020181D02*
X83384160Y16020181D01*
X83384160Y16020181D02*
X83527017Y15972562D01*
X84288922Y15543991D02*
X84431779Y15496372D01*
X84431779Y15496372D02*
X84479398Y15448753D01*
X84479398Y15448753D02*
X84527017Y15353515D01*
X84527017Y15353515D02*
X84527017Y15210658D01*
X84527017Y15210658D02*
X84479398Y15115420D01*
X84479398Y15115420D02*
X84431779Y15067800D01*
X84431779Y15067800D02*
X84336541Y15020181D01*
X84336541Y15020181D02*
X83955589Y15020181D01*
X83955589Y15020181D02*
X83955589Y16020181D01*
X83955589Y16020181D02*
X84288922Y16020181D01*
X84288922Y16020181D02*
X84384160Y15972562D01*
X84384160Y15972562D02*
X84431779Y15924943D01*
X84431779Y15924943D02*
X84479398Y15829705D01*
X84479398Y15829705D02*
X84479398Y15734467D01*
X84479398Y15734467D02*
X84431779Y15639229D01*
X84431779Y15639229D02*
X84384160Y15591610D01*
X84384160Y15591610D02*
X84288922Y15543991D01*
X84288922Y15543991D02*
X83955589Y15543991D01*
X85527017Y15115420D02*
X85479398Y15067800D01*
X85479398Y15067800D02*
X85336541Y15020181D01*
X85336541Y15020181D02*
X85241303Y15020181D01*
X85241303Y15020181D02*
X85098446Y15067800D01*
X85098446Y15067800D02*
X85003208Y15163039D01*
X85003208Y15163039D02*
X84955589Y15258277D01*
X84955589Y15258277D02*
X84907970Y15448753D01*
X84907970Y15448753D02*
X84907970Y15591610D01*
X84907970Y15591610D02*
X84955589Y15782086D01*
X84955589Y15782086D02*
X85003208Y15877324D01*
X85003208Y15877324D02*
X85098446Y15972562D01*
X85098446Y15972562D02*
X85241303Y16020181D01*
X85241303Y16020181D02*
X85336541Y16020181D01*
X85336541Y16020181D02*
X85479398Y15972562D01*
X85479398Y15972562D02*
X85527017Y15924943D01*
X86717494Y15686848D02*
X86717494Y14686848D01*
X86717494Y15639229D02*
X86812732Y15686848D01*
X86812732Y15686848D02*
X87003208Y15686848D01*
X87003208Y15686848D02*
X87098446Y15639229D01*
X87098446Y15639229D02*
X87146065Y15591610D01*
X87146065Y15591610D02*
X87193684Y15496372D01*
X87193684Y15496372D02*
X87193684Y15210658D01*
X87193684Y15210658D02*
X87146065Y15115420D01*
X87146065Y15115420D02*
X87098446Y15067800D01*
X87098446Y15067800D02*
X87003208Y15020181D01*
X87003208Y15020181D02*
X86812732Y15020181D01*
X86812732Y15020181D02*
X86717494Y15067800D01*
X87765113Y15020181D02*
X87669875Y15067800D01*
X87669875Y15067800D02*
X87622256Y15115420D01*
X87622256Y15115420D02*
X87574637Y15210658D01*
X87574637Y15210658D02*
X87574637Y15496372D01*
X87574637Y15496372D02*
X87622256Y15591610D01*
X87622256Y15591610D02*
X87669875Y15639229D01*
X87669875Y15639229D02*
X87765113Y15686848D01*
X87765113Y15686848D02*
X87907970Y15686848D01*
X87907970Y15686848D02*
X88003208Y15639229D01*
X88003208Y15639229D02*
X88050827Y15591610D01*
X88050827Y15591610D02*
X88098446Y15496372D01*
X88098446Y15496372D02*
X88098446Y15210658D01*
X88098446Y15210658D02*
X88050827Y15115420D01*
X88050827Y15115420D02*
X88003208Y15067800D01*
X88003208Y15067800D02*
X87907970Y15020181D01*
X87907970Y15020181D02*
X87765113Y15020181D01*
X88431780Y15686848D02*
X88622256Y15020181D01*
X88622256Y15020181D02*
X88812732Y15496372D01*
X88812732Y15496372D02*
X89003208Y15020181D01*
X89003208Y15020181D02*
X89193684Y15686848D01*
X89955589Y15067800D02*
X89860351Y15020181D01*
X89860351Y15020181D02*
X89669875Y15020181D01*
X89669875Y15020181D02*
X89574637Y15067800D01*
X89574637Y15067800D02*
X89527018Y15163039D01*
X89527018Y15163039D02*
X89527018Y15543991D01*
X89527018Y15543991D02*
X89574637Y15639229D01*
X89574637Y15639229D02*
X89669875Y15686848D01*
X89669875Y15686848D02*
X89860351Y15686848D01*
X89860351Y15686848D02*
X89955589Y15639229D01*
X89955589Y15639229D02*
X90003208Y15543991D01*
X90003208Y15543991D02*
X90003208Y15448753D01*
X90003208Y15448753D02*
X89527018Y15353515D01*
X90431780Y15020181D02*
X90431780Y15686848D01*
X90431780Y15496372D02*
X90479399Y15591610D01*
X90479399Y15591610D02*
X90527018Y15639229D01*
X90527018Y15639229D02*
X90622256Y15686848D01*
X90622256Y15686848D02*
X90717494Y15686848D01*
X41012438Y6750589D02*
X40964819Y6655351D01*
X40964819Y6655351D02*
X40964819Y6512494D01*
X40964819Y6512494D02*
X41012438Y6369637D01*
X41012438Y6369637D02*
X41107676Y6274399D01*
X41107676Y6274399D02*
X41202914Y6226780D01*
X41202914Y6226780D02*
X41393390Y6179161D01*
X41393390Y6179161D02*
X41536247Y6179161D01*
X41536247Y6179161D02*
X41726723Y6226780D01*
X41726723Y6226780D02*
X41821961Y6274399D01*
X41821961Y6274399D02*
X41917200Y6369637D01*
X41917200Y6369637D02*
X41964819Y6512494D01*
X41964819Y6512494D02*
X41964819Y6607732D01*
X41964819Y6607732D02*
X41917200Y6750589D01*
X41917200Y6750589D02*
X41869580Y6798208D01*
X41869580Y6798208D02*
X41536247Y6798208D01*
X41536247Y6798208D02*
X41536247Y6607732D01*
X41298152Y7226780D02*
X41964819Y7226780D01*
X41393390Y7226780D02*
X41345771Y7274399D01*
X41345771Y7274399D02*
X41298152Y7369637D01*
X41298152Y7369637D02*
X41298152Y7512494D01*
X41298152Y7512494D02*
X41345771Y7607732D01*
X41345771Y7607732D02*
X41441009Y7655351D01*
X41441009Y7655351D02*
X41964819Y7655351D01*
X41964819Y8560113D02*
X40964819Y8560113D01*
X41917200Y8560113D02*
X41964819Y8464875D01*
X41964819Y8464875D02*
X41964819Y8274399D01*
X41964819Y8274399D02*
X41917200Y8179161D01*
X41917200Y8179161D02*
X41869580Y8131542D01*
X41869580Y8131542D02*
X41774342Y8083923D01*
X41774342Y8083923D02*
X41488628Y8083923D01*
X41488628Y8083923D02*
X41393390Y8131542D01*
X41393390Y8131542D02*
X41345771Y8179161D01*
X41345771Y8179161D02*
X41298152Y8274399D01*
X41298152Y8274399D02*
X41298152Y8464875D01*
X41298152Y8464875D02*
X41345771Y8560113D01*
X32361666Y61505181D02*
X32361666Y60790896D01*
X32361666Y60790896D02*
X32314047Y60648039D01*
X32314047Y60648039D02*
X32218809Y60552800D01*
X32218809Y60552800D02*
X32075952Y60505181D01*
X32075952Y60505181D02*
X31980714Y60505181D01*
X32742619Y61505181D02*
X33409285Y61505181D01*
X33409285Y61505181D02*
X32980714Y60505181D01*
X36311666Y35808991D02*
X35978333Y35808991D01*
X35978333Y35285181D02*
X35978333Y36285181D01*
X35978333Y36285181D02*
X36454523Y36285181D01*
X37264047Y35951848D02*
X37264047Y35285181D01*
X37025952Y36332800D02*
X36787857Y35618515D01*
X36787857Y35618515D02*
X37406904Y35618515D01*
X33914819Y43248334D02*
X33914819Y42772144D01*
X33914819Y42772144D02*
X32914819Y42772144D01*
X33010057Y43534049D02*
X32962438Y43581668D01*
X32962438Y43581668D02*
X32914819Y43676906D01*
X32914819Y43676906D02*
X32914819Y43915001D01*
X32914819Y43915001D02*
X32962438Y44010239D01*
X32962438Y44010239D02*
X33010057Y44057858D01*
X33010057Y44057858D02*
X33105295Y44105477D01*
X33105295Y44105477D02*
X33200533Y44105477D01*
X33200533Y44105477D02*
X33343390Y44057858D01*
X33343390Y44057858D02*
X33914819Y43486430D01*
X33914819Y43486430D02*
X33914819Y44105477D01*
X57958095Y41958181D02*
X58529523Y41958181D01*
X58243809Y40958181D02*
X58243809Y41958181D01*
X58862857Y40958181D02*
X58862857Y41958181D01*
X58862857Y41958181D02*
X59243809Y41958181D01*
X59243809Y41958181D02*
X59339047Y41910562D01*
X59339047Y41910562D02*
X59386666Y41862943D01*
X59386666Y41862943D02*
X59434285Y41767705D01*
X59434285Y41767705D02*
X59434285Y41624848D01*
X59434285Y41624848D02*
X59386666Y41529610D01*
X59386666Y41529610D02*
X59339047Y41481991D01*
X59339047Y41481991D02*
X59243809Y41434372D01*
X59243809Y41434372D02*
X58862857Y41434372D01*
X60386666Y40958181D02*
X59815238Y40958181D01*
X60100952Y40958181D02*
X60100952Y41958181D01*
X60100952Y41958181D02*
X60005714Y41815324D01*
X60005714Y41815324D02*
X59910476Y41720086D01*
X59910476Y41720086D02*
X59815238Y41672467D01*
X73179819Y15706667D02*
X73894104Y15706667D01*
X73894104Y15706667D02*
X74036961Y15659048D01*
X74036961Y15659048D02*
X74132200Y15563810D01*
X74132200Y15563810D02*
X74179819Y15420953D01*
X74179819Y15420953D02*
X74179819Y15325715D01*
X74179819Y16230477D02*
X74179819Y16420953D01*
X74179819Y16420953D02*
X74132200Y16516191D01*
X74132200Y16516191D02*
X74084580Y16563810D01*
X74084580Y16563810D02*
X73941723Y16659048D01*
X73941723Y16659048D02*
X73751247Y16706667D01*
X73751247Y16706667D02*
X73370295Y16706667D01*
X73370295Y16706667D02*
X73275057Y16659048D01*
X73275057Y16659048D02*
X73227438Y16611429D01*
X73227438Y16611429D02*
X73179819Y16516191D01*
X73179819Y16516191D02*
X73179819Y16325715D01*
X73179819Y16325715D02*
X73227438Y16230477D01*
X73227438Y16230477D02*
X73275057Y16182858D01*
X73275057Y16182858D02*
X73370295Y16135239D01*
X73370295Y16135239D02*
X73608390Y16135239D01*
X73608390Y16135239D02*
X73703628Y16182858D01*
X73703628Y16182858D02*
X73751247Y16230477D01*
X73751247Y16230477D02*
X73798866Y16325715D01*
X73798866Y16325715D02*
X73798866Y16516191D01*
X73798866Y16516191D02*
X73751247Y16611429D01*
X73751247Y16611429D02*
X73703628Y16659048D01*
X73703628Y16659048D02*
X73608390Y16706667D01*
X91611666Y55130181D02*
X91611666Y54415896D01*
X91611666Y54415896D02*
X91564047Y54273039D01*
X91564047Y54273039D02*
X91468809Y54177800D01*
X91468809Y54177800D02*
X91325952Y54130181D01*
X91325952Y54130181D02*
X91230714Y54130181D01*
X92040238Y55034943D02*
X92087857Y55082562D01*
X92087857Y55082562D02*
X92183095Y55130181D01*
X92183095Y55130181D02*
X92421190Y55130181D01*
X92421190Y55130181D02*
X92516428Y55082562D01*
X92516428Y55082562D02*
X92564047Y55034943D01*
X92564047Y55034943D02*
X92611666Y54939705D01*
X92611666Y54939705D02*
X92611666Y54844467D01*
X92611666Y54844467D02*
X92564047Y54701610D01*
X92564047Y54701610D02*
X91992619Y54130181D01*
X91992619Y54130181D02*
X92611666Y54130181D01*
X61708095Y38537181D02*
X62279523Y38537181D01*
X61993809Y37537181D02*
X61993809Y38537181D01*
X62612857Y37537181D02*
X62612857Y38537181D01*
X62612857Y38537181D02*
X62993809Y38537181D01*
X62993809Y38537181D02*
X63089047Y38489562D01*
X63089047Y38489562D02*
X63136666Y38441943D01*
X63136666Y38441943D02*
X63184285Y38346705D01*
X63184285Y38346705D02*
X63184285Y38203848D01*
X63184285Y38203848D02*
X63136666Y38108610D01*
X63136666Y38108610D02*
X63089047Y38060991D01*
X63089047Y38060991D02*
X62993809Y38013372D01*
X62993809Y38013372D02*
X62612857Y38013372D01*
X63517619Y38537181D02*
X64136666Y38537181D01*
X64136666Y38537181D02*
X63803333Y38156229D01*
X63803333Y38156229D02*
X63946190Y38156229D01*
X63946190Y38156229D02*
X64041428Y38108610D01*
X64041428Y38108610D02*
X64089047Y38060991D01*
X64089047Y38060991D02*
X64136666Y37965753D01*
X64136666Y37965753D02*
X64136666Y37727658D01*
X64136666Y37727658D02*
X64089047Y37632420D01*
X64089047Y37632420D02*
X64041428Y37584800D01*
X64041428Y37584800D02*
X63946190Y37537181D01*
X63946190Y37537181D02*
X63660476Y37537181D01*
X63660476Y37537181D02*
X63565238Y37584800D01*
X63565238Y37584800D02*
X63517619Y37632420D01*
X3321666Y56555181D02*
X3321666Y55840896D01*
X3321666Y55840896D02*
X3274047Y55698039D01*
X3274047Y55698039D02*
X3178809Y55602800D01*
X3178809Y55602800D02*
X3035952Y55555181D01*
X3035952Y55555181D02*
X2940714Y55555181D01*
X4274047Y56555181D02*
X3797857Y56555181D01*
X3797857Y56555181D02*
X3750238Y56078991D01*
X3750238Y56078991D02*
X3797857Y56126610D01*
X3797857Y56126610D02*
X3893095Y56174229D01*
X3893095Y56174229D02*
X4131190Y56174229D01*
X4131190Y56174229D02*
X4226428Y56126610D01*
X4226428Y56126610D02*
X4274047Y56078991D01*
X4274047Y56078991D02*
X4321666Y55983753D01*
X4321666Y55983753D02*
X4321666Y55745658D01*
X4321666Y55745658D02*
X4274047Y55650420D01*
X4274047Y55650420D02*
X4226428Y55602800D01*
X4226428Y55602800D02*
X4131190Y55555181D01*
X4131190Y55555181D02*
X3893095Y55555181D01*
X3893095Y55555181D02*
X3797857Y55602800D01*
X3797857Y55602800D02*
X3750238Y55650420D01*
X51208095Y36058181D02*
X51779523Y36058181D01*
X51493809Y35058181D02*
X51493809Y36058181D01*
X52112857Y35058181D02*
X52112857Y36058181D01*
X52112857Y36058181D02*
X52493809Y36058181D01*
X52493809Y36058181D02*
X52589047Y36010562D01*
X52589047Y36010562D02*
X52636666Y35962943D01*
X52636666Y35962943D02*
X52684285Y35867705D01*
X52684285Y35867705D02*
X52684285Y35724848D01*
X52684285Y35724848D02*
X52636666Y35629610D01*
X52636666Y35629610D02*
X52589047Y35581991D01*
X52589047Y35581991D02*
X52493809Y35534372D01*
X52493809Y35534372D02*
X52112857Y35534372D01*
X53065238Y35962943D02*
X53112857Y36010562D01*
X53112857Y36010562D02*
X53208095Y36058181D01*
X53208095Y36058181D02*
X53446190Y36058181D01*
X53446190Y36058181D02*
X53541428Y36010562D01*
X53541428Y36010562D02*
X53589047Y35962943D01*
X53589047Y35962943D02*
X53636666Y35867705D01*
X53636666Y35867705D02*
X53636666Y35772467D01*
X53636666Y35772467D02*
X53589047Y35629610D01*
X53589047Y35629610D02*
X53017619Y35058181D01*
X53017619Y35058181D02*
X53636666Y35058181D01*
X32361666Y85765181D02*
X32361666Y85050896D01*
X32361666Y85050896D02*
X32314047Y84908039D01*
X32314047Y84908039D02*
X32218809Y84812800D01*
X32218809Y84812800D02*
X32075952Y84765181D01*
X32075952Y84765181D02*
X31980714Y84765181D01*
X33266428Y85765181D02*
X33075952Y85765181D01*
X33075952Y85765181D02*
X32980714Y85717562D01*
X32980714Y85717562D02*
X32933095Y85669943D01*
X32933095Y85669943D02*
X32837857Y85527086D01*
X32837857Y85527086D02*
X32790238Y85336610D01*
X32790238Y85336610D02*
X32790238Y84955658D01*
X32790238Y84955658D02*
X32837857Y84860420D01*
X32837857Y84860420D02*
X32885476Y84812800D01*
X32885476Y84812800D02*
X32980714Y84765181D01*
X32980714Y84765181D02*
X33171190Y84765181D01*
X33171190Y84765181D02*
X33266428Y84812800D01*
X33266428Y84812800D02*
X33314047Y84860420D01*
X33314047Y84860420D02*
X33361666Y84955658D01*
X33361666Y84955658D02*
X33361666Y85193753D01*
X33361666Y85193753D02*
X33314047Y85288991D01*
X33314047Y85288991D02*
X33266428Y85336610D01*
X33266428Y85336610D02*
X33171190Y85384229D01*
X33171190Y85384229D02*
X32980714Y85384229D01*
X32980714Y85384229D02*
X32885476Y85336610D01*
X32885476Y85336610D02*
X32837857Y85288991D01*
X32837857Y85288991D02*
X32790238Y85193753D01*
X18233095Y82795181D02*
X18233095Y81985658D01*
X18233095Y81985658D02*
X18280714Y81890420D01*
X18280714Y81890420D02*
X18328333Y81842800D01*
X18328333Y81842800D02*
X18423571Y81795181D01*
X18423571Y81795181D02*
X18614047Y81795181D01*
X18614047Y81795181D02*
X18709285Y81842800D01*
X18709285Y81842800D02*
X18756904Y81890420D01*
X18756904Y81890420D02*
X18804523Y81985658D01*
X18804523Y81985658D02*
X18804523Y82795181D01*
X19233095Y82699943D02*
X19280714Y82747562D01*
X19280714Y82747562D02*
X19375952Y82795181D01*
X19375952Y82795181D02*
X19614047Y82795181D01*
X19614047Y82795181D02*
X19709285Y82747562D01*
X19709285Y82747562D02*
X19756904Y82699943D01*
X19756904Y82699943D02*
X19804523Y82604705D01*
X19804523Y82604705D02*
X19804523Y82509467D01*
X19804523Y82509467D02*
X19756904Y82366610D01*
X19756904Y82366610D02*
X19185476Y81795181D01*
X19185476Y81795181D02*
X19804523Y81795181D01*
X56653333Y23135181D02*
X56177143Y23135181D01*
X56177143Y23135181D02*
X56177143Y24135181D01*
X57510476Y23135181D02*
X56939048Y23135181D01*
X57224762Y23135181D02*
X57224762Y24135181D01*
X57224762Y24135181D02*
X57129524Y23992324D01*
X57129524Y23992324D02*
X57034286Y23897086D01*
X57034286Y23897086D02*
X56939048Y23849467D01*
X74817856Y33652800D02*
X74960713Y33605181D01*
X74960713Y33605181D02*
X75198808Y33605181D01*
X75198808Y33605181D02*
X75294046Y33652800D01*
X75294046Y33652800D02*
X75341665Y33700420D01*
X75341665Y33700420D02*
X75389284Y33795658D01*
X75389284Y33795658D02*
X75389284Y33890896D01*
X75389284Y33890896D02*
X75341665Y33986134D01*
X75341665Y33986134D02*
X75294046Y34033753D01*
X75294046Y34033753D02*
X75198808Y34081372D01*
X75198808Y34081372D02*
X75008332Y34128991D01*
X75008332Y34128991D02*
X74913094Y34176610D01*
X74913094Y34176610D02*
X74865475Y34224229D01*
X74865475Y34224229D02*
X74817856Y34319467D01*
X74817856Y34319467D02*
X74817856Y34414705D01*
X74817856Y34414705D02*
X74865475Y34509943D01*
X74865475Y34509943D02*
X74913094Y34557562D01*
X74913094Y34557562D02*
X75008332Y34605181D01*
X75008332Y34605181D02*
X75246427Y34605181D01*
X75246427Y34605181D02*
X75389284Y34557562D01*
X76246427Y33605181D02*
X76246427Y34128991D01*
X76246427Y34128991D02*
X76198808Y34224229D01*
X76198808Y34224229D02*
X76103570Y34271848D01*
X76103570Y34271848D02*
X75913094Y34271848D01*
X75913094Y34271848D02*
X75817856Y34224229D01*
X76246427Y33652800D02*
X76151189Y33605181D01*
X76151189Y33605181D02*
X75913094Y33605181D01*
X75913094Y33605181D02*
X75817856Y33652800D01*
X75817856Y33652800D02*
X75770237Y33748039D01*
X75770237Y33748039D02*
X75770237Y33843277D01*
X75770237Y33843277D02*
X75817856Y33938515D01*
X75817856Y33938515D02*
X75913094Y33986134D01*
X75913094Y33986134D02*
X76151189Y33986134D01*
X76151189Y33986134D02*
X76246427Y34033753D01*
X76579761Y34271848D02*
X76960713Y34271848D01*
X76722618Y33605181D02*
X76722618Y34462324D01*
X76722618Y34462324D02*
X76770237Y34557562D01*
X76770237Y34557562D02*
X76865475Y34605181D01*
X76865475Y34605181D02*
X76960713Y34605181D01*
X77674999Y33652800D02*
X77579761Y33605181D01*
X77579761Y33605181D02*
X77389285Y33605181D01*
X77389285Y33605181D02*
X77294047Y33652800D01*
X77294047Y33652800D02*
X77246428Y33748039D01*
X77246428Y33748039D02*
X77246428Y34128991D01*
X77246428Y34128991D02*
X77294047Y34224229D01*
X77294047Y34224229D02*
X77389285Y34271848D01*
X77389285Y34271848D02*
X77579761Y34271848D01*
X77579761Y34271848D02*
X77674999Y34224229D01*
X77674999Y34224229D02*
X77722618Y34128991D01*
X77722618Y34128991D02*
X77722618Y34033753D01*
X77722618Y34033753D02*
X77246428Y33938515D01*
X78008333Y34271848D02*
X78389285Y34271848D01*
X78151190Y34605181D02*
X78151190Y33748039D01*
X78151190Y33748039D02*
X78198809Y33652800D01*
X78198809Y33652800D02*
X78294047Y33605181D01*
X78294047Y33605181D02*
X78389285Y33605181D01*
X78627381Y34271848D02*
X78865476Y33605181D01*
X79103571Y34271848D02*
X78865476Y33605181D01*
X78865476Y33605181D02*
X78770238Y33367086D01*
X78770238Y33367086D02*
X78722619Y33319467D01*
X78722619Y33319467D02*
X78627381Y33271848D01*
X80246429Y33605181D02*
X80246429Y34271848D01*
X80246429Y34081372D02*
X80294048Y34176610D01*
X80294048Y34176610D02*
X80341667Y34224229D01*
X80341667Y34224229D02*
X80436905Y34271848D01*
X80436905Y34271848D02*
X80532143Y34271848D01*
X81246429Y33652800D02*
X81151191Y33605181D01*
X81151191Y33605181D02*
X80960715Y33605181D01*
X80960715Y33605181D02*
X80865477Y33652800D01*
X80865477Y33652800D02*
X80817858Y33748039D01*
X80817858Y33748039D02*
X80817858Y34128991D01*
X80817858Y34128991D02*
X80865477Y34224229D01*
X80865477Y34224229D02*
X80960715Y34271848D01*
X80960715Y34271848D02*
X81151191Y34271848D01*
X81151191Y34271848D02*
X81246429Y34224229D01*
X81246429Y34224229D02*
X81294048Y34128991D01*
X81294048Y34128991D02*
X81294048Y34033753D01*
X81294048Y34033753D02*
X80817858Y33938515D01*
X81675001Y33652800D02*
X81770239Y33605181D01*
X81770239Y33605181D02*
X81960715Y33605181D01*
X81960715Y33605181D02*
X82055953Y33652800D01*
X82055953Y33652800D02*
X82103572Y33748039D01*
X82103572Y33748039D02*
X82103572Y33795658D01*
X82103572Y33795658D02*
X82055953Y33890896D01*
X82055953Y33890896D02*
X81960715Y33938515D01*
X81960715Y33938515D02*
X81817858Y33938515D01*
X81817858Y33938515D02*
X81722620Y33986134D01*
X81722620Y33986134D02*
X81675001Y34081372D01*
X81675001Y34081372D02*
X81675001Y34128991D01*
X81675001Y34128991D02*
X81722620Y34224229D01*
X81722620Y34224229D02*
X81817858Y34271848D01*
X81817858Y34271848D02*
X81960715Y34271848D01*
X81960715Y34271848D02*
X82055953Y34224229D01*
X82913096Y33652800D02*
X82817858Y33605181D01*
X82817858Y33605181D02*
X82627382Y33605181D01*
X82627382Y33605181D02*
X82532144Y33652800D01*
X82532144Y33652800D02*
X82484525Y33748039D01*
X82484525Y33748039D02*
X82484525Y34128991D01*
X82484525Y34128991D02*
X82532144Y34224229D01*
X82532144Y34224229D02*
X82627382Y34271848D01*
X82627382Y34271848D02*
X82817858Y34271848D01*
X82817858Y34271848D02*
X82913096Y34224229D01*
X82913096Y34224229D02*
X82960715Y34128991D01*
X82960715Y34128991D02*
X82960715Y34033753D01*
X82960715Y34033753D02*
X82484525Y33938515D01*
X83246430Y34271848D02*
X83627382Y34271848D01*
X83389287Y34605181D02*
X83389287Y33748039D01*
X83389287Y33748039D02*
X83436906Y33652800D01*
X83436906Y33652800D02*
X83532144Y33605181D01*
X83532144Y33605181D02*
X83627382Y33605181D01*
X49259819Y34256667D02*
X49974104Y34256667D01*
X49974104Y34256667D02*
X50116961Y34209048D01*
X50116961Y34209048D02*
X50212200Y34113810D01*
X50212200Y34113810D02*
X50259819Y33970953D01*
X50259819Y33970953D02*
X50259819Y33875715D01*
X49688390Y34875715D02*
X49640771Y34780477D01*
X49640771Y34780477D02*
X49593152Y34732858D01*
X49593152Y34732858D02*
X49497914Y34685239D01*
X49497914Y34685239D02*
X49450295Y34685239D01*
X49450295Y34685239D02*
X49355057Y34732858D01*
X49355057Y34732858D02*
X49307438Y34780477D01*
X49307438Y34780477D02*
X49259819Y34875715D01*
X49259819Y34875715D02*
X49259819Y35066191D01*
X49259819Y35066191D02*
X49307438Y35161429D01*
X49307438Y35161429D02*
X49355057Y35209048D01*
X49355057Y35209048D02*
X49450295Y35256667D01*
X49450295Y35256667D02*
X49497914Y35256667D01*
X49497914Y35256667D02*
X49593152Y35209048D01*
X49593152Y35209048D02*
X49640771Y35161429D01*
X49640771Y35161429D02*
X49688390Y35066191D01*
X49688390Y35066191D02*
X49688390Y34875715D01*
X49688390Y34875715D02*
X49736009Y34780477D01*
X49736009Y34780477D02*
X49783628Y34732858D01*
X49783628Y34732858D02*
X49878866Y34685239D01*
X49878866Y34685239D02*
X50069342Y34685239D01*
X50069342Y34685239D02*
X50164580Y34732858D01*
X50164580Y34732858D02*
X50212200Y34780477D01*
X50212200Y34780477D02*
X50259819Y34875715D01*
X50259819Y34875715D02*
X50259819Y35066191D01*
X50259819Y35066191D02*
X50212200Y35161429D01*
X50212200Y35161429D02*
X50164580Y35209048D01*
X50164580Y35209048D02*
X50069342Y35256667D01*
X50069342Y35256667D02*
X49878866Y35256667D01*
X49878866Y35256667D02*
X49783628Y35209048D01*
X49783628Y35209048D02*
X49736009Y35161429D01*
X49736009Y35161429D02*
X49688390Y35066191D01*
X50404580Y47623334D02*
X50452200Y47575715D01*
X50452200Y47575715D02*
X50499819Y47432858D01*
X50499819Y47432858D02*
X50499819Y47337620D01*
X50499819Y47337620D02*
X50452200Y47194763D01*
X50452200Y47194763D02*
X50356961Y47099525D01*
X50356961Y47099525D02*
X50261723Y47051906D01*
X50261723Y47051906D02*
X50071247Y47004287D01*
X50071247Y47004287D02*
X49928390Y47004287D01*
X49928390Y47004287D02*
X49737914Y47051906D01*
X49737914Y47051906D02*
X49642676Y47099525D01*
X49642676Y47099525D02*
X49547438Y47194763D01*
X49547438Y47194763D02*
X49499819Y47337620D01*
X49499819Y47337620D02*
X49499819Y47432858D01*
X49499819Y47432858D02*
X49547438Y47575715D01*
X49547438Y47575715D02*
X49595057Y47623334D01*
X49499819Y48480477D02*
X49499819Y48290001D01*
X49499819Y48290001D02*
X49547438Y48194763D01*
X49547438Y48194763D02*
X49595057Y48147144D01*
X49595057Y48147144D02*
X49737914Y48051906D01*
X49737914Y48051906D02*
X49928390Y48004287D01*
X49928390Y48004287D02*
X50309342Y48004287D01*
X50309342Y48004287D02*
X50404580Y48051906D01*
X50404580Y48051906D02*
X50452200Y48099525D01*
X50452200Y48099525D02*
X50499819Y48194763D01*
X50499819Y48194763D02*
X50499819Y48385239D01*
X50499819Y48385239D02*
X50452200Y48480477D01*
X50452200Y48480477D02*
X50404580Y48528096D01*
X50404580Y48528096D02*
X50309342Y48575715D01*
X50309342Y48575715D02*
X50071247Y48575715D01*
X50071247Y48575715D02*
X49976009Y48528096D01*
X49976009Y48528096D02*
X49928390Y48480477D01*
X49928390Y48480477D02*
X49880771Y48385239D01*
X49880771Y48385239D02*
X49880771Y48194763D01*
X49880771Y48194763D02*
X49928390Y48099525D01*
X49928390Y48099525D02*
X49976009Y48051906D01*
X49976009Y48051906D02*
X50071247Y48004287D01*
X52408095Y31460181D02*
X52408095Y30650658D01*
X52408095Y30650658D02*
X52455714Y30555420D01*
X52455714Y30555420D02*
X52503333Y30507800D01*
X52503333Y30507800D02*
X52598571Y30460181D01*
X52598571Y30460181D02*
X52789047Y30460181D01*
X52789047Y30460181D02*
X52884285Y30507800D01*
X52884285Y30507800D02*
X52931904Y30555420D01*
X52931904Y30555420D02*
X52979523Y30650658D01*
X52979523Y30650658D02*
X52979523Y31460181D01*
X53884285Y31126848D02*
X53884285Y30460181D01*
X53646190Y31507800D02*
X53408095Y30793515D01*
X53408095Y30793515D02*
X54027142Y30793515D01*
X41417200Y73528096D02*
X41464819Y73670953D01*
X41464819Y73670953D02*
X41464819Y73909048D01*
X41464819Y73909048D02*
X41417200Y74004286D01*
X41417200Y74004286D02*
X41369580Y74051905D01*
X41369580Y74051905D02*
X41274342Y74099524D01*
X41274342Y74099524D02*
X41179104Y74099524D01*
X41179104Y74099524D02*
X41083866Y74051905D01*
X41083866Y74051905D02*
X41036247Y74004286D01*
X41036247Y74004286D02*
X40988628Y73909048D01*
X40988628Y73909048D02*
X40941009Y73718572D01*
X40941009Y73718572D02*
X40893390Y73623334D01*
X40893390Y73623334D02*
X40845771Y73575715D01*
X40845771Y73575715D02*
X40750533Y73528096D01*
X40750533Y73528096D02*
X40655295Y73528096D01*
X40655295Y73528096D02*
X40560057Y73575715D01*
X40560057Y73575715D02*
X40512438Y73623334D01*
X40512438Y73623334D02*
X40464819Y73718572D01*
X40464819Y73718572D02*
X40464819Y73956667D01*
X40464819Y73956667D02*
X40512438Y74099524D01*
X41464819Y75051905D02*
X41464819Y74480477D01*
X41464819Y74766191D02*
X40464819Y74766191D01*
X40464819Y74766191D02*
X40607676Y74670953D01*
X40607676Y74670953D02*
X40702914Y74575715D01*
X40702914Y74575715D02*
X40750533Y74480477D01*
X97140476Y33580181D02*
X97140476Y32865896D01*
X97140476Y32865896D02*
X97092857Y32723039D01*
X97092857Y32723039D02*
X96997619Y32627800D01*
X96997619Y32627800D02*
X96854762Y32580181D01*
X96854762Y32580181D02*
X96759524Y32580181D01*
X98140476Y32580181D02*
X97569048Y32580181D01*
X97854762Y32580181D02*
X97854762Y33580181D01*
X97854762Y33580181D02*
X97759524Y33437324D01*
X97759524Y33437324D02*
X97664286Y33342086D01*
X97664286Y33342086D02*
X97569048Y33294467D01*
X98997619Y33246848D02*
X98997619Y32580181D01*
X98759524Y33627800D02*
X98521429Y32913515D01*
X98521429Y32913515D02*
X99140476Y32913515D01*
X79949819Y80855477D02*
X80664104Y80855477D01*
X80664104Y80855477D02*
X80806961Y80807858D01*
X80806961Y80807858D02*
X80902200Y80712620D01*
X80902200Y80712620D02*
X80949819Y80569763D01*
X80949819Y80569763D02*
X80949819Y80474525D01*
X80949819Y81855477D02*
X80949819Y81284049D01*
X80949819Y81569763D02*
X79949819Y81569763D01*
X79949819Y81569763D02*
X80092676Y81474525D01*
X80092676Y81474525D02*
X80187914Y81379287D01*
X80187914Y81379287D02*
X80235533Y81284049D01*
X80949819Y82807858D02*
X80949819Y82236430D01*
X80949819Y82522144D02*
X79949819Y82522144D01*
X79949819Y82522144D02*
X80092676Y82426906D01*
X80092676Y82426906D02*
X80187914Y82331668D01*
X80187914Y82331668D02*
X80235533Y82236430D01*
X94026009Y83646905D02*
X94073628Y83789762D01*
X94073628Y83789762D02*
X94121247Y83837381D01*
X94121247Y83837381D02*
X94216485Y83885000D01*
X94216485Y83885000D02*
X94359342Y83885000D01*
X94359342Y83885000D02*
X94454580Y83837381D01*
X94454580Y83837381D02*
X94502200Y83789762D01*
X94502200Y83789762D02*
X94549819Y83694524D01*
X94549819Y83694524D02*
X94549819Y83313572D01*
X94549819Y83313572D02*
X93549819Y83313572D01*
X93549819Y83313572D02*
X93549819Y83646905D01*
X93549819Y83646905D02*
X93597438Y83742143D01*
X93597438Y83742143D02*
X93645057Y83789762D01*
X93645057Y83789762D02*
X93740295Y83837381D01*
X93740295Y83837381D02*
X93835533Y83837381D01*
X93835533Y83837381D02*
X93930771Y83789762D01*
X93930771Y83789762D02*
X93978390Y83742143D01*
X93978390Y83742143D02*
X94026009Y83646905D01*
X94026009Y83646905D02*
X94026009Y83313572D01*
X94549819Y84742143D02*
X94026009Y84742143D01*
X94026009Y84742143D02*
X93930771Y84694524D01*
X93930771Y84694524D02*
X93883152Y84599286D01*
X93883152Y84599286D02*
X93883152Y84408810D01*
X93883152Y84408810D02*
X93930771Y84313572D01*
X94502200Y84742143D02*
X94549819Y84646905D01*
X94549819Y84646905D02*
X94549819Y84408810D01*
X94549819Y84408810D02*
X94502200Y84313572D01*
X94502200Y84313572D02*
X94406961Y84265953D01*
X94406961Y84265953D02*
X94311723Y84265953D01*
X94311723Y84265953D02*
X94216485Y84313572D01*
X94216485Y84313572D02*
X94168866Y84408810D01*
X94168866Y84408810D02*
X94168866Y84646905D01*
X94168866Y84646905D02*
X94121247Y84742143D01*
X93883152Y85075477D02*
X93883152Y85456429D01*
X93549819Y85218334D02*
X94406961Y85218334D01*
X94406961Y85218334D02*
X94502200Y85265953D01*
X94502200Y85265953D02*
X94549819Y85361191D01*
X94549819Y85361191D02*
X94549819Y85456429D01*
X94645057Y85551667D02*
X94645057Y86313572D01*
X94549819Y86551668D02*
X93883152Y86551668D01*
X93549819Y86551668D02*
X93597438Y86504049D01*
X93597438Y86504049D02*
X93645057Y86551668D01*
X93645057Y86551668D02*
X93597438Y86599287D01*
X93597438Y86599287D02*
X93549819Y86551668D01*
X93549819Y86551668D02*
X93645057Y86551668D01*
X93883152Y87027858D02*
X94549819Y87027858D01*
X93978390Y87027858D02*
X93930771Y87075477D01*
X93930771Y87075477D02*
X93883152Y87170715D01*
X93883152Y87170715D02*
X93883152Y87313572D01*
X93883152Y87313572D02*
X93930771Y87408810D01*
X93930771Y87408810D02*
X94026009Y87456429D01*
X94026009Y87456429D02*
X94549819Y87456429D01*
X18333095Y59015181D02*
X18333095Y58205658D01*
X18333095Y58205658D02*
X18380714Y58110420D01*
X18380714Y58110420D02*
X18428333Y58062800D01*
X18428333Y58062800D02*
X18523571Y58015181D01*
X18523571Y58015181D02*
X18714047Y58015181D01*
X18714047Y58015181D02*
X18809285Y58062800D01*
X18809285Y58062800D02*
X18856904Y58110420D01*
X18856904Y58110420D02*
X18904523Y58205658D01*
X18904523Y58205658D02*
X18904523Y59015181D01*
X19285476Y59015181D02*
X19904523Y59015181D01*
X19904523Y59015181D02*
X19571190Y58634229D01*
X19571190Y58634229D02*
X19714047Y58634229D01*
X19714047Y58634229D02*
X19809285Y58586610D01*
X19809285Y58586610D02*
X19856904Y58538991D01*
X19856904Y58538991D02*
X19904523Y58443753D01*
X19904523Y58443753D02*
X19904523Y58205658D01*
X19904523Y58205658D02*
X19856904Y58110420D01*
X19856904Y58110420D02*
X19809285Y58062800D01*
X19809285Y58062800D02*
X19714047Y58015181D01*
X19714047Y58015181D02*
X19428333Y58015181D01*
X19428333Y58015181D02*
X19333095Y58062800D01*
X19333095Y58062800D02*
X19285476Y58110420D01*
X49884104Y22555715D02*
X49884104Y23031905D01*
X50169819Y22460477D02*
X49169819Y22793810D01*
X49169819Y22793810D02*
X50169819Y23127143D01*
X50169819Y23984286D02*
X50169819Y23412858D01*
X50169819Y23698572D02*
X49169819Y23698572D01*
X49169819Y23698572D02*
X49312676Y23603334D01*
X49312676Y23603334D02*
X49407914Y23508096D01*
X49407914Y23508096D02*
X49455533Y23412858D01*
X9620180Y24531905D02*
X8810657Y24531905D01*
X8810657Y24531905D02*
X8715419Y24484286D01*
X8715419Y24484286D02*
X8667800Y24436667D01*
X8667800Y24436667D02*
X8620180Y24341429D01*
X8620180Y24341429D02*
X8620180Y24150953D01*
X8620180Y24150953D02*
X8667800Y24055715D01*
X8667800Y24055715D02*
X8715419Y24008096D01*
X8715419Y24008096D02*
X8810657Y23960477D01*
X8810657Y23960477D02*
X9620180Y23960477D01*
X8667800Y23531905D02*
X8620180Y23389048D01*
X8620180Y23389048D02*
X8620180Y23150953D01*
X8620180Y23150953D02*
X8667800Y23055715D01*
X8667800Y23055715D02*
X8715419Y23008096D01*
X8715419Y23008096D02*
X8810657Y22960477D01*
X8810657Y22960477D02*
X8905895Y22960477D01*
X8905895Y22960477D02*
X9001133Y23008096D01*
X9001133Y23008096D02*
X9048752Y23055715D01*
X9048752Y23055715D02*
X9096371Y23150953D01*
X9096371Y23150953D02*
X9143990Y23341429D01*
X9143990Y23341429D02*
X9191609Y23436667D01*
X9191609Y23436667D02*
X9239228Y23484286D01*
X9239228Y23484286D02*
X9334466Y23531905D01*
X9334466Y23531905D02*
X9429704Y23531905D01*
X9429704Y23531905D02*
X9524942Y23484286D01*
X9524942Y23484286D02*
X9572561Y23436667D01*
X9572561Y23436667D02*
X9620180Y23341429D01*
X9620180Y23341429D02*
X9620180Y23103334D01*
X9620180Y23103334D02*
X9572561Y22960477D01*
X9143990Y22198572D02*
X9096371Y22055715D01*
X9096371Y22055715D02*
X9048752Y22008096D01*
X9048752Y22008096D02*
X8953514Y21960477D01*
X8953514Y21960477D02*
X8810657Y21960477D01*
X8810657Y21960477D02*
X8715419Y22008096D01*
X8715419Y22008096D02*
X8667800Y22055715D01*
X8667800Y22055715D02*
X8620180Y22150953D01*
X8620180Y22150953D02*
X8620180Y22531905D01*
X8620180Y22531905D02*
X9620180Y22531905D01*
X9620180Y22531905D02*
X9620180Y22198572D01*
X9620180Y22198572D02*
X9572561Y22103334D01*
X9572561Y22103334D02*
X9524942Y22055715D01*
X9524942Y22055715D02*
X9429704Y22008096D01*
X9429704Y22008096D02*
X9334466Y22008096D01*
X9334466Y22008096D02*
X9239228Y22055715D01*
X9239228Y22055715D02*
X9191609Y22103334D01*
X9191609Y22103334D02*
X9143990Y22198572D01*
X9143990Y22198572D02*
X9143990Y22531905D01*
X63248616Y21531991D02*
X62915283Y21531991D01*
X62915283Y21008181D02*
X62915283Y22008181D01*
X62915283Y22008181D02*
X63391473Y22008181D01*
X63724807Y21912943D02*
X63772426Y21960562D01*
X63772426Y21960562D02*
X63867664Y22008181D01*
X63867664Y22008181D02*
X64105759Y22008181D01*
X64105759Y22008181D02*
X64200997Y21960562D01*
X64200997Y21960562D02*
X64248616Y21912943D01*
X64248616Y21912943D02*
X64296235Y21817705D01*
X64296235Y21817705D02*
X64296235Y21722467D01*
X64296235Y21722467D02*
X64248616Y21579610D01*
X64248616Y21579610D02*
X63677188Y21008181D01*
X63677188Y21008181D02*
X64296235Y21008181D01*
X36503333Y39155420D02*
X36455714Y39107800D01*
X36455714Y39107800D02*
X36312857Y39060181D01*
X36312857Y39060181D02*
X36217619Y39060181D01*
X36217619Y39060181D02*
X36074762Y39107800D01*
X36074762Y39107800D02*
X35979524Y39203039D01*
X35979524Y39203039D02*
X35931905Y39298277D01*
X35931905Y39298277D02*
X35884286Y39488753D01*
X35884286Y39488753D02*
X35884286Y39631610D01*
X35884286Y39631610D02*
X35931905Y39822086D01*
X35931905Y39822086D02*
X35979524Y39917324D01*
X35979524Y39917324D02*
X36074762Y40012562D01*
X36074762Y40012562D02*
X36217619Y40060181D01*
X36217619Y40060181D02*
X36312857Y40060181D01*
X36312857Y40060181D02*
X36455714Y40012562D01*
X36455714Y40012562D02*
X36503333Y39964943D01*
X36836667Y40060181D02*
X37503333Y40060181D01*
X37503333Y40060181D02*
X37074762Y39060181D01*
X3321666Y77845181D02*
X3321666Y77130896D01*
X3321666Y77130896D02*
X3274047Y76988039D01*
X3274047Y76988039D02*
X3178809Y76892800D01*
X3178809Y76892800D02*
X3035952Y76845181D01*
X3035952Y76845181D02*
X2940714Y76845181D01*
X4321666Y76845181D02*
X3750238Y76845181D01*
X4035952Y76845181D02*
X4035952Y77845181D01*
X4035952Y77845181D02*
X3940714Y77702324D01*
X3940714Y77702324D02*
X3845476Y77607086D01*
X3845476Y77607086D02*
X3750238Y77559467D01*
X30533095Y46783181D02*
X31104523Y46783181D01*
X30818809Y45783181D02*
X30818809Y46783181D01*
X31437857Y45783181D02*
X31437857Y46783181D01*
X31437857Y46783181D02*
X31818809Y46783181D01*
X31818809Y46783181D02*
X31914047Y46735562D01*
X31914047Y46735562D02*
X31961666Y46687943D01*
X31961666Y46687943D02*
X32009285Y46592705D01*
X32009285Y46592705D02*
X32009285Y46449848D01*
X32009285Y46449848D02*
X31961666Y46354610D01*
X31961666Y46354610D02*
X31914047Y46306991D01*
X31914047Y46306991D02*
X31818809Y46259372D01*
X31818809Y46259372D02*
X31437857Y46259372D01*
X32342619Y46783181D02*
X33009285Y46783181D01*
X33009285Y46783181D02*
X32580714Y45783181D01*
X79949819Y72930477D02*
X80664104Y72930477D01*
X80664104Y72930477D02*
X80806961Y72882858D01*
X80806961Y72882858D02*
X80902200Y72787620D01*
X80902200Y72787620D02*
X80949819Y72644763D01*
X80949819Y72644763D02*
X80949819Y72549525D01*
X80949819Y73930477D02*
X80949819Y73359049D01*
X80949819Y73644763D02*
X79949819Y73644763D01*
X79949819Y73644763D02*
X80092676Y73549525D01*
X80092676Y73549525D02*
X80187914Y73454287D01*
X80187914Y73454287D02*
X80235533Y73359049D01*
X80045057Y74311430D02*
X79997438Y74359049D01*
X79997438Y74359049D02*
X79949819Y74454287D01*
X79949819Y74454287D02*
X79949819Y74692382D01*
X79949819Y74692382D02*
X79997438Y74787620D01*
X79997438Y74787620D02*
X80045057Y74835239D01*
X80045057Y74835239D02*
X80140295Y74882858D01*
X80140295Y74882858D02*
X80235533Y74882858D01*
X80235533Y74882858D02*
X80378390Y74835239D01*
X80378390Y74835239D02*
X80949819Y74263811D01*
X80949819Y74263811D02*
X80949819Y74882858D01*
X94549819Y69492143D02*
X93549819Y69492143D01*
X93549819Y69492143D02*
X94264104Y69825476D01*
X94264104Y69825476D02*
X93549819Y70158809D01*
X93549819Y70158809D02*
X94549819Y70158809D01*
X94549819Y70777857D02*
X94502200Y70682619D01*
X94502200Y70682619D02*
X94454580Y70635000D01*
X94454580Y70635000D02*
X94359342Y70587381D01*
X94359342Y70587381D02*
X94073628Y70587381D01*
X94073628Y70587381D02*
X93978390Y70635000D01*
X93978390Y70635000D02*
X93930771Y70682619D01*
X93930771Y70682619D02*
X93883152Y70777857D01*
X93883152Y70777857D02*
X93883152Y70920714D01*
X93883152Y70920714D02*
X93930771Y71015952D01*
X93930771Y71015952D02*
X93978390Y71063571D01*
X93978390Y71063571D02*
X94073628Y71111190D01*
X94073628Y71111190D02*
X94359342Y71111190D01*
X94359342Y71111190D02*
X94454580Y71063571D01*
X94454580Y71063571D02*
X94502200Y71015952D01*
X94502200Y71015952D02*
X94549819Y70920714D01*
X94549819Y70920714D02*
X94549819Y70777857D01*
X93883152Y71396905D02*
X93883152Y71777857D01*
X93549819Y71539762D02*
X94406961Y71539762D01*
X94406961Y71539762D02*
X94502200Y71587381D01*
X94502200Y71587381D02*
X94549819Y71682619D01*
X94549819Y71682619D02*
X94549819Y71777857D01*
X94549819Y72254048D02*
X94502200Y72158810D01*
X94502200Y72158810D02*
X94454580Y72111191D01*
X94454580Y72111191D02*
X94359342Y72063572D01*
X94359342Y72063572D02*
X94073628Y72063572D01*
X94073628Y72063572D02*
X93978390Y72111191D01*
X93978390Y72111191D02*
X93930771Y72158810D01*
X93930771Y72158810D02*
X93883152Y72254048D01*
X93883152Y72254048D02*
X93883152Y72396905D01*
X93883152Y72396905D02*
X93930771Y72492143D01*
X93930771Y72492143D02*
X93978390Y72539762D01*
X93978390Y72539762D02*
X94073628Y72587381D01*
X94073628Y72587381D02*
X94359342Y72587381D01*
X94359342Y72587381D02*
X94454580Y72539762D01*
X94454580Y72539762D02*
X94502200Y72492143D01*
X94502200Y72492143D02*
X94549819Y72396905D01*
X94549819Y72396905D02*
X94549819Y72254048D01*
X94549819Y73015953D02*
X93883152Y73015953D01*
X94073628Y73015953D02*
X93978390Y73063572D01*
X93978390Y73063572D02*
X93930771Y73111191D01*
X93930771Y73111191D02*
X93883152Y73206429D01*
X93883152Y73206429D02*
X93883152Y73301667D01*
X94549819Y74396906D02*
X93549819Y74396906D01*
X93549819Y74396906D02*
X93549819Y74777858D01*
X93549819Y74777858D02*
X93597438Y74873096D01*
X93597438Y74873096D02*
X93645057Y74920715D01*
X93645057Y74920715D02*
X93740295Y74968334D01*
X93740295Y74968334D02*
X93883152Y74968334D01*
X93883152Y74968334D02*
X93978390Y74920715D01*
X93978390Y74920715D02*
X94026009Y74873096D01*
X94026009Y74873096D02*
X94073628Y74777858D01*
X94073628Y74777858D02*
X94073628Y74396906D01*
X93549819Y75301668D02*
X94549819Y75539763D01*
X94549819Y75539763D02*
X93835533Y75730239D01*
X93835533Y75730239D02*
X94549819Y75920715D01*
X94549819Y75920715D02*
X93549819Y76158810D01*
X94549819Y77111191D02*
X94073628Y76777858D01*
X94549819Y76539763D02*
X93549819Y76539763D01*
X93549819Y76539763D02*
X93549819Y76920715D01*
X93549819Y76920715D02*
X93597438Y77015953D01*
X93597438Y77015953D02*
X93645057Y77063572D01*
X93645057Y77063572D02*
X93740295Y77111191D01*
X93740295Y77111191D02*
X93883152Y77111191D01*
X93883152Y77111191D02*
X93978390Y77063572D01*
X93978390Y77063572D02*
X94026009Y77015953D01*
X94026009Y77015953D02*
X94073628Y76920715D01*
X94073628Y76920715D02*
X94073628Y76539763D01*
X94549819Y78825477D02*
X94549819Y78254049D01*
X94549819Y78539763D02*
X93549819Y78539763D01*
X93549819Y78539763D02*
X93692676Y78444525D01*
X93692676Y78444525D02*
X93787914Y78349287D01*
X93787914Y78349287D02*
X93835533Y78254049D01*
X64601004Y50939820D02*
X64601004Y51749343D01*
X64601004Y51749343D02*
X64553385Y51844581D01*
X64553385Y51844581D02*
X64505766Y51892200D01*
X64505766Y51892200D02*
X64410528Y51939820D01*
X64410528Y51939820D02*
X64220052Y51939820D01*
X64220052Y51939820D02*
X64124814Y51892200D01*
X64124814Y51892200D02*
X64077195Y51844581D01*
X64077195Y51844581D02*
X64029576Y51749343D01*
X64029576Y51749343D02*
X64029576Y50939820D01*
X63077195Y50939820D02*
X63553385Y50939820D01*
X63553385Y50939820D02*
X63601004Y51416010D01*
X63601004Y51416010D02*
X63553385Y51368391D01*
X63553385Y51368391D02*
X63458147Y51320772D01*
X63458147Y51320772D02*
X63220052Y51320772D01*
X63220052Y51320772D02*
X63124814Y51368391D01*
X63124814Y51368391D02*
X63077195Y51416010D01*
X63077195Y51416010D02*
X63029576Y51511248D01*
X63029576Y51511248D02*
X63029576Y51749343D01*
X63029576Y51749343D02*
X63077195Y51844581D01*
X63077195Y51844581D02*
X63124814Y51892200D01*
X63124814Y51892200D02*
X63220052Y51939820D01*
X63220052Y51939820D02*
X63458147Y51939820D01*
X63458147Y51939820D02*
X63553385Y51892200D01*
X63553385Y51892200D02*
X63601004Y51844581D01*
X66849000Y48423381D02*
X66849000Y48185286D01*
X66610905Y48280524D02*
X66849000Y48185286D01*
X66849000Y48185286D02*
X67087095Y48280524D01*
X66706143Y47994810D02*
X66849000Y48185286D01*
X66849000Y48185286D02*
X66991857Y47994810D01*
X66848999Y47333020D02*
X66848999Y47571115D01*
X67087094Y47475877D02*
X66848999Y47571115D01*
X66848999Y47571115D02*
X66610904Y47475877D01*
X66991856Y47761591D02*
X66848999Y47571115D01*
X66848999Y47571115D02*
X66706142Y47761591D01*
X51433095Y49833181D02*
X52004523Y49833181D01*
X51718809Y48833181D02*
X51718809Y49833181D01*
X52337857Y48833181D02*
X52337857Y49833181D01*
X52337857Y49833181D02*
X52718809Y49833181D01*
X52718809Y49833181D02*
X52814047Y49785562D01*
X52814047Y49785562D02*
X52861666Y49737943D01*
X52861666Y49737943D02*
X52909285Y49642705D01*
X52909285Y49642705D02*
X52909285Y49499848D01*
X52909285Y49499848D02*
X52861666Y49404610D01*
X52861666Y49404610D02*
X52814047Y49356991D01*
X52814047Y49356991D02*
X52718809Y49309372D01*
X52718809Y49309372D02*
X52337857Y49309372D01*
X53766428Y49499848D02*
X53766428Y48833181D01*
X53528333Y49880800D02*
X53290238Y49166515D01*
X53290238Y49166515D02*
X53909285Y49166515D01*
X53933095Y50383181D02*
X54504523Y50383181D01*
X54218809Y49383181D02*
X54218809Y50383181D01*
X54837857Y49383181D02*
X54837857Y50383181D01*
X54837857Y50383181D02*
X55218809Y50383181D01*
X55218809Y50383181D02*
X55314047Y50335562D01*
X55314047Y50335562D02*
X55361666Y50287943D01*
X55361666Y50287943D02*
X55409285Y50192705D01*
X55409285Y50192705D02*
X55409285Y50049848D01*
X55409285Y50049848D02*
X55361666Y49954610D01*
X55361666Y49954610D02*
X55314047Y49906991D01*
X55314047Y49906991D02*
X55218809Y49859372D01*
X55218809Y49859372D02*
X54837857Y49859372D01*
X55980714Y49954610D02*
X55885476Y50002229D01*
X55885476Y50002229D02*
X55837857Y50049848D01*
X55837857Y50049848D02*
X55790238Y50145086D01*
X55790238Y50145086D02*
X55790238Y50192705D01*
X55790238Y50192705D02*
X55837857Y50287943D01*
X55837857Y50287943D02*
X55885476Y50335562D01*
X55885476Y50335562D02*
X55980714Y50383181D01*
X55980714Y50383181D02*
X56171190Y50383181D01*
X56171190Y50383181D02*
X56266428Y50335562D01*
X56266428Y50335562D02*
X56314047Y50287943D01*
X56314047Y50287943D02*
X56361666Y50192705D01*
X56361666Y50192705D02*
X56361666Y50145086D01*
X56361666Y50145086D02*
X56314047Y50049848D01*
X56314047Y50049848D02*
X56266428Y50002229D01*
X56266428Y50002229D02*
X56171190Y49954610D01*
X56171190Y49954610D02*
X55980714Y49954610D01*
X55980714Y49954610D02*
X55885476Y49906991D01*
X55885476Y49906991D02*
X55837857Y49859372D01*
X55837857Y49859372D02*
X55790238Y49764134D01*
X55790238Y49764134D02*
X55790238Y49573658D01*
X55790238Y49573658D02*
X55837857Y49478420D01*
X55837857Y49478420D02*
X55885476Y49430800D01*
X55885476Y49430800D02*
X55980714Y49383181D01*
X55980714Y49383181D02*
X56171190Y49383181D01*
X56171190Y49383181D02*
X56266428Y49430800D01*
X56266428Y49430800D02*
X56314047Y49478420D01*
X56314047Y49478420D02*
X56361666Y49573658D01*
X56361666Y49573658D02*
X56361666Y49764134D01*
X56361666Y49764134D02*
X56314047Y49859372D01*
X56314047Y49859372D02*
X56266428Y49906991D01*
X56266428Y49906991D02*
X56171190Y49954610D01*
X70526009Y70186667D02*
X70526009Y69853334D01*
X71049819Y69853334D02*
X70049819Y69853334D01*
X70049819Y69853334D02*
X70049819Y70329524D01*
X71049819Y71234286D02*
X71049819Y70662858D01*
X71049819Y70948572D02*
X70049819Y70948572D01*
X70049819Y70948572D02*
X70192676Y70853334D01*
X70192676Y70853334D02*
X70287914Y70758096D01*
X70287914Y70758096D02*
X70335533Y70662858D01*
X87508333Y29825181D02*
X87175000Y30301372D01*
X86936905Y29825181D02*
X86936905Y30825181D01*
X86936905Y30825181D02*
X87317857Y30825181D01*
X87317857Y30825181D02*
X87413095Y30777562D01*
X87413095Y30777562D02*
X87460714Y30729943D01*
X87460714Y30729943D02*
X87508333Y30634705D01*
X87508333Y30634705D02*
X87508333Y30491848D01*
X87508333Y30491848D02*
X87460714Y30396610D01*
X87460714Y30396610D02*
X87413095Y30348991D01*
X87413095Y30348991D02*
X87317857Y30301372D01*
X87317857Y30301372D02*
X86936905Y30301372D01*
X88365476Y30825181D02*
X88175000Y30825181D01*
X88175000Y30825181D02*
X88079762Y30777562D01*
X88079762Y30777562D02*
X88032143Y30729943D01*
X88032143Y30729943D02*
X87936905Y30587086D01*
X87936905Y30587086D02*
X87889286Y30396610D01*
X87889286Y30396610D02*
X87889286Y30015658D01*
X87889286Y30015658D02*
X87936905Y29920420D01*
X87936905Y29920420D02*
X87984524Y29872800D01*
X87984524Y29872800D02*
X88079762Y29825181D01*
X88079762Y29825181D02*
X88270238Y29825181D01*
X88270238Y29825181D02*
X88365476Y29872800D01*
X88365476Y29872800D02*
X88413095Y29920420D01*
X88413095Y29920420D02*
X88460714Y30015658D01*
X88460714Y30015658D02*
X88460714Y30253753D01*
X88460714Y30253753D02*
X88413095Y30348991D01*
X88413095Y30348991D02*
X88365476Y30396610D01*
X88365476Y30396610D02*
X88270238Y30444229D01*
X88270238Y30444229D02*
X88079762Y30444229D01*
X88079762Y30444229D02*
X87984524Y30396610D01*
X87984524Y30396610D02*
X87936905Y30348991D01*
X87936905Y30348991D02*
X87889286Y30253753D01*
X43808095Y44335181D02*
X43808095Y43525658D01*
X43808095Y43525658D02*
X43855714Y43430420D01*
X43855714Y43430420D02*
X43903333Y43382800D01*
X43903333Y43382800D02*
X43998571Y43335181D01*
X43998571Y43335181D02*
X44189047Y43335181D01*
X44189047Y43335181D02*
X44284285Y43382800D01*
X44284285Y43382800D02*
X44331904Y43430420D01*
X44331904Y43430420D02*
X44379523Y43525658D01*
X44379523Y43525658D02*
X44379523Y44335181D01*
X45379523Y43335181D02*
X44808095Y43335181D01*
X45093809Y43335181D02*
X45093809Y44335181D01*
X45093809Y44335181D02*
X44998571Y44192324D01*
X44998571Y44192324D02*
X44903333Y44097086D01*
X44903333Y44097086D02*
X44808095Y44049467D01*
X79179819Y54556667D02*
X79894104Y54556667D01*
X79894104Y54556667D02*
X80036961Y54509048D01*
X80036961Y54509048D02*
X80132200Y54413810D01*
X80132200Y54413810D02*
X80179819Y54270953D01*
X80179819Y54270953D02*
X80179819Y54175715D01*
X79513152Y55461429D02*
X80179819Y55461429D01*
X79132200Y55223334D02*
X79846485Y54985239D01*
X79846485Y54985239D02*
X79846485Y55604286D01*
X38679819Y3080477D02*
X39394104Y3080477D01*
X39394104Y3080477D02*
X39536961Y3032858D01*
X39536961Y3032858D02*
X39632200Y2937620D01*
X39632200Y2937620D02*
X39679819Y2794763D01*
X39679819Y2794763D02*
X39679819Y2699525D01*
X39679819Y4080477D02*
X39679819Y3509049D01*
X39679819Y3794763D02*
X38679819Y3794763D01*
X38679819Y3794763D02*
X38822676Y3699525D01*
X38822676Y3699525D02*
X38917914Y3604287D01*
X38917914Y3604287D02*
X38965533Y3509049D01*
X38679819Y4985239D02*
X38679819Y4509049D01*
X38679819Y4509049D02*
X39156009Y4461430D01*
X39156009Y4461430D02*
X39108390Y4509049D01*
X39108390Y4509049D02*
X39060771Y4604287D01*
X39060771Y4604287D02*
X39060771Y4842382D01*
X39060771Y4842382D02*
X39108390Y4937620D01*
X39108390Y4937620D02*
X39156009Y4985239D01*
X39156009Y4985239D02*
X39251247Y5032858D01*
X39251247Y5032858D02*
X39489342Y5032858D01*
X39489342Y5032858D02*
X39584580Y4985239D01*
X39584580Y4985239D02*
X39632200Y4937620D01*
X39632200Y4937620D02*
X39679819Y4842382D01*
X39679819Y4842382D02*
X39679819Y4604287D01*
X39679819Y4604287D02*
X39632200Y4509049D01*
X39632200Y4509049D02*
X39584580Y4461430D01*
X79874819Y62055477D02*
X80589104Y62055477D01*
X80589104Y62055477D02*
X80731961Y62007858D01*
X80731961Y62007858D02*
X80827200Y61912620D01*
X80827200Y61912620D02*
X80874819Y61769763D01*
X80874819Y61769763D02*
X80874819Y61674525D01*
X80874819Y63055477D02*
X80874819Y62484049D01*
X80874819Y62769763D02*
X79874819Y62769763D01*
X79874819Y62769763D02*
X80017676Y62674525D01*
X80017676Y62674525D02*
X80112914Y62579287D01*
X80112914Y62579287D02*
X80160533Y62484049D01*
X79874819Y63388811D02*
X79874819Y64007858D01*
X79874819Y64007858D02*
X80255771Y63674525D01*
X80255771Y63674525D02*
X80255771Y63817382D01*
X80255771Y63817382D02*
X80303390Y63912620D01*
X80303390Y63912620D02*
X80351009Y63960239D01*
X80351009Y63960239D02*
X80446247Y64007858D01*
X80446247Y64007858D02*
X80684342Y64007858D01*
X80684342Y64007858D02*
X80779580Y63960239D01*
X80779580Y63960239D02*
X80827200Y63912620D01*
X80827200Y63912620D02*
X80874819Y63817382D01*
X80874819Y63817382D02*
X80874819Y63531668D01*
X80874819Y63531668D02*
X80827200Y63436430D01*
X80827200Y63436430D02*
X80779580Y63388811D01*
X94549819Y58242143D02*
X93549819Y58242143D01*
X93549819Y58242143D02*
X94264104Y58575476D01*
X94264104Y58575476D02*
X93549819Y58908809D01*
X93549819Y58908809D02*
X94549819Y58908809D01*
X94549819Y59527857D02*
X94502200Y59432619D01*
X94502200Y59432619D02*
X94454580Y59385000D01*
X94454580Y59385000D02*
X94359342Y59337381D01*
X94359342Y59337381D02*
X94073628Y59337381D01*
X94073628Y59337381D02*
X93978390Y59385000D01*
X93978390Y59385000D02*
X93930771Y59432619D01*
X93930771Y59432619D02*
X93883152Y59527857D01*
X93883152Y59527857D02*
X93883152Y59670714D01*
X93883152Y59670714D02*
X93930771Y59765952D01*
X93930771Y59765952D02*
X93978390Y59813571D01*
X93978390Y59813571D02*
X94073628Y59861190D01*
X94073628Y59861190D02*
X94359342Y59861190D01*
X94359342Y59861190D02*
X94454580Y59813571D01*
X94454580Y59813571D02*
X94502200Y59765952D01*
X94502200Y59765952D02*
X94549819Y59670714D01*
X94549819Y59670714D02*
X94549819Y59527857D01*
X93883152Y60146905D02*
X93883152Y60527857D01*
X93549819Y60289762D02*
X94406961Y60289762D01*
X94406961Y60289762D02*
X94502200Y60337381D01*
X94502200Y60337381D02*
X94549819Y60432619D01*
X94549819Y60432619D02*
X94549819Y60527857D01*
X94549819Y61004048D02*
X94502200Y60908810D01*
X94502200Y60908810D02*
X94454580Y60861191D01*
X94454580Y60861191D02*
X94359342Y60813572D01*
X94359342Y60813572D02*
X94073628Y60813572D01*
X94073628Y60813572D02*
X93978390Y60861191D01*
X93978390Y60861191D02*
X93930771Y60908810D01*
X93930771Y60908810D02*
X93883152Y61004048D01*
X93883152Y61004048D02*
X93883152Y61146905D01*
X93883152Y61146905D02*
X93930771Y61242143D01*
X93930771Y61242143D02*
X93978390Y61289762D01*
X93978390Y61289762D02*
X94073628Y61337381D01*
X94073628Y61337381D02*
X94359342Y61337381D01*
X94359342Y61337381D02*
X94454580Y61289762D01*
X94454580Y61289762D02*
X94502200Y61242143D01*
X94502200Y61242143D02*
X94549819Y61146905D01*
X94549819Y61146905D02*
X94549819Y61004048D01*
X94549819Y61765953D02*
X93883152Y61765953D01*
X94073628Y61765953D02*
X93978390Y61813572D01*
X93978390Y61813572D02*
X93930771Y61861191D01*
X93930771Y61861191D02*
X93883152Y61956429D01*
X93883152Y61956429D02*
X93883152Y62051667D01*
X94549819Y63146906D02*
X93549819Y63146906D01*
X93549819Y63146906D02*
X93549819Y63527858D01*
X93549819Y63527858D02*
X93597438Y63623096D01*
X93597438Y63623096D02*
X93645057Y63670715D01*
X93645057Y63670715D02*
X93740295Y63718334D01*
X93740295Y63718334D02*
X93883152Y63718334D01*
X93883152Y63718334D02*
X93978390Y63670715D01*
X93978390Y63670715D02*
X94026009Y63623096D01*
X94026009Y63623096D02*
X94073628Y63527858D01*
X94073628Y63527858D02*
X94073628Y63146906D01*
X93549819Y64051668D02*
X94549819Y64289763D01*
X94549819Y64289763D02*
X93835533Y64480239D01*
X93835533Y64480239D02*
X94549819Y64670715D01*
X94549819Y64670715D02*
X93549819Y64908810D01*
X94549819Y65861191D02*
X94073628Y65527858D01*
X94549819Y65289763D02*
X93549819Y65289763D01*
X93549819Y65289763D02*
X93549819Y65670715D01*
X93549819Y65670715D02*
X93597438Y65765953D01*
X93597438Y65765953D02*
X93645057Y65813572D01*
X93645057Y65813572D02*
X93740295Y65861191D01*
X93740295Y65861191D02*
X93883152Y65861191D01*
X93883152Y65861191D02*
X93978390Y65813572D01*
X93978390Y65813572D02*
X94026009Y65765953D01*
X94026009Y65765953D02*
X94073628Y65670715D01*
X94073628Y65670715D02*
X94073628Y65289763D01*
X93645057Y67004049D02*
X93597438Y67051668D01*
X93597438Y67051668D02*
X93549819Y67146906D01*
X93549819Y67146906D02*
X93549819Y67385001D01*
X93549819Y67385001D02*
X93597438Y67480239D01*
X93597438Y67480239D02*
X93645057Y67527858D01*
X93645057Y67527858D02*
X93740295Y67575477D01*
X93740295Y67575477D02*
X93835533Y67575477D01*
X93835533Y67575477D02*
X93978390Y67527858D01*
X93978390Y67527858D02*
X94549819Y66956430D01*
X94549819Y66956430D02*
X94549819Y67575477D01*
X68079819Y4981667D02*
X68794104Y4981667D01*
X68794104Y4981667D02*
X68936961Y4934048D01*
X68936961Y4934048D02*
X69032200Y4838810D01*
X69032200Y4838810D02*
X69079819Y4695953D01*
X69079819Y4695953D02*
X69079819Y4600715D01*
X68079819Y5362620D02*
X68079819Y5981667D01*
X68079819Y5981667D02*
X68460771Y5648334D01*
X68460771Y5648334D02*
X68460771Y5791191D01*
X68460771Y5791191D02*
X68508390Y5886429D01*
X68508390Y5886429D02*
X68556009Y5934048D01*
X68556009Y5934048D02*
X68651247Y5981667D01*
X68651247Y5981667D02*
X68889342Y5981667D01*
X68889342Y5981667D02*
X68984580Y5934048D01*
X68984580Y5934048D02*
X69032200Y5886429D01*
X69032200Y5886429D02*
X69079819Y5791191D01*
X69079819Y5791191D02*
X69079819Y5505477D01*
X69079819Y5505477D02*
X69032200Y5410239D01*
X69032200Y5410239D02*
X68984580Y5362620D01*
X75043680Y42068095D02*
X76043680Y42068095D01*
X75043680Y41496667D02*
X75615109Y41925238D01*
X76043680Y41496667D02*
X75472252Y42068095D01*
X75948442Y41115714D02*
X75996061Y41068095D01*
X75996061Y41068095D02*
X76043680Y40972857D01*
X76043680Y40972857D02*
X76043680Y40734762D01*
X76043680Y40734762D02*
X75996061Y40639524D01*
X75996061Y40639524D02*
X75948442Y40591905D01*
X75948442Y40591905D02*
X75853204Y40544286D01*
X75853204Y40544286D02*
X75757966Y40544286D01*
X75757966Y40544286D02*
X75615109Y40591905D01*
X75615109Y40591905D02*
X75043680Y41163333D01*
X75043680Y41163333D02*
X75043680Y40544286D01*
X87953152Y45140001D02*
X88191247Y45140001D01*
X88096009Y44901906D02*
X88191247Y45140001D01*
X88191247Y45140001D02*
X88096009Y45378096D01*
X88381723Y44997144D02*
X88191247Y45140001D01*
X88191247Y45140001D02*
X88381723Y45282858D01*
X89043513Y45140000D02*
X88805418Y45140000D01*
X88900656Y45378095D02*
X88805418Y45140000D01*
X88805418Y45140000D02*
X88900656Y44901905D01*
X88614942Y45282857D02*
X88805418Y45140000D01*
X88805418Y45140000D02*
X88614942Y44997143D01*
D12*
G04 #@! TO.C,J7*
X31365000Y59960000D02*
X32695000Y59960000D01*
X31365000Y58630000D02*
X31365000Y59960000D01*
X31365000Y57360000D02*
X31365000Y49680000D01*
X31365000Y57360000D02*
X34025000Y57360000D01*
X31365000Y49680000D02*
X34025000Y49680000D01*
X34025000Y57360000D02*
X34025000Y49680000D01*
D10*
G04 #@! TO.C,D6*
X67920000Y17930000D02*
X67920000Y21940000D01*
X67920000Y17930000D02*
X69920000Y17930000D01*
X69920000Y17930000D02*
X69920000Y21940000D01*
D12*
G04 #@! TO.C,F4*
X34181252Y37500000D02*
X31408748Y37500000D01*
X34181252Y34080000D02*
X31408748Y34080000D01*
D10*
G04 #@! TO.C,D4*
X76345000Y14680000D02*
X79035000Y14680000D01*
X79035000Y16600000D02*
X76345000Y16600000D01*
X79035000Y14680000D02*
X79035000Y16600000D01*
D13*
G04 #@! TO.C,L2*
X34695000Y43315000D02*
X34695000Y43515000D01*
X37895000Y43315000D02*
X37895000Y43515000D01*
D12*
G04 #@! TO.C,TP1*
X60170000Y39765000D02*
G75*
G02*
X58270000Y39765000I-950000J0D01*
G01*
X58270000Y39765000D02*
G75*
G02*
X60170000Y39765000I950000J0D01*
G01*
G04 #@! TO.C,J9*
X64985000Y17370000D02*
X64985000Y14710000D01*
X70125000Y17370000D02*
X64985000Y17370000D01*
X70125000Y17370000D02*
X70125000Y14710000D01*
X70125000Y14710000D02*
X64985000Y14710000D01*
X71395000Y17370000D02*
X72725000Y17370000D01*
X72725000Y17370000D02*
X72725000Y16040000D01*
D10*
G04 #@! TO.C,D7*
X32385000Y10390000D02*
X32385000Y7700000D01*
X32385000Y7700000D02*
X34305000Y7700000D01*
X34305000Y7700000D02*
X34305000Y10390000D01*
D12*
G04 #@! TO.C,J2*
X90615000Y50545000D02*
X90615000Y32705000D01*
X90615000Y50545000D02*
X93275000Y50545000D01*
X90615000Y32705000D02*
X93275000Y32705000D01*
X91945000Y53145000D02*
X93275000Y53145000D01*
X93275000Y53145000D02*
X93275000Y51815000D01*
X93275000Y50545000D02*
X93275000Y32705000D01*
G04 #@! TO.C,TP3*
X63920000Y39640000D02*
G75*
G02*
X62020000Y39640000I-950000J0D01*
G01*
X62020000Y39640000D02*
G75*
G02*
X63920000Y39640000I950000J0D01*
G01*
G04 #@! TO.C,J5*
X2325000Y55010000D02*
X3655000Y55010000D01*
X2325000Y53680000D02*
X2325000Y55010000D01*
X2325000Y52410000D02*
X2325000Y44730000D01*
X2325000Y52410000D02*
X4985000Y52410000D01*
X2325000Y44730000D02*
X4985000Y44730000D01*
X4985000Y52410000D02*
X4985000Y44730000D01*
G04 #@! TO.C,TP2*
X53420000Y33865000D02*
G75*
G02*
X51520000Y33865000I-950000J0D01*
G01*
X51520000Y33865000D02*
G75*
G02*
X53420000Y33865000I950000J0D01*
G01*
G04 #@! TO.C,J6*
X31365000Y81180000D02*
X31365000Y70960000D01*
X31365000Y81180000D02*
X34025000Y81180000D01*
X31365000Y70960000D02*
X34025000Y70960000D01*
X32695000Y83780000D02*
X34025000Y83780000D01*
X34025000Y83780000D02*
X34025000Y82450000D01*
X34025000Y81180000D02*
X34025000Y70960000D01*
G04 #@! TO.C,U2*
X16345000Y81250000D02*
X16345000Y60810000D01*
X16345000Y60810000D02*
X21645000Y60810000D01*
X17995000Y81250000D02*
X16345000Y81250000D01*
X21645000Y81250000D02*
X19995000Y81250000D01*
X21645000Y60810000D02*
X21645000Y81250000D01*
X19995000Y81250000D02*
G75*
G02*
X17995000Y81250000I-1000000J0D01*
G01*
D14*
G04 #@! TO.C,L1*
X56070000Y30540000D02*
X56070000Y30410000D01*
X56070000Y30540000D02*
X62070000Y30540000D01*
X56070000Y24540000D02*
X56070000Y24670000D01*
X56070000Y24540000D02*
X62070000Y24540000D01*
X62070000Y30540000D02*
X62070000Y30410000D01*
X62070000Y24540000D02*
X62070000Y24670000D01*
G04 #@! TO.C,S2*
X84998500Y34030000D02*
X84998500Y33800000D01*
X84998500Y34030000D02*
X88998500Y34030000D01*
X84998500Y31130000D02*
X84998500Y31360000D01*
X88998500Y34030000D02*
X88998500Y33800000D01*
X88998500Y31360000D02*
X88998500Y31130000D01*
X88998500Y31130000D02*
X84998500Y31130000D01*
D12*
G04 #@! TO.C,J8*
X41065000Y35920000D02*
X41065000Y33260000D01*
X46205000Y35920000D02*
X41065000Y35920000D01*
X46205000Y35920000D02*
X46205000Y33260000D01*
X46205000Y33260000D02*
X41065000Y33260000D01*
X47475000Y35920000D02*
X48805000Y35920000D01*
X48805000Y35920000D02*
X48805000Y34590000D01*
D10*
G04 #@! TO.C,D5*
X76545000Y12410000D02*
X78835000Y12410000D01*
X78835000Y13870000D02*
X76545000Y13870000D01*
X78835000Y12410000D02*
X78835000Y13870000D01*
D14*
G04 #@! TO.C,U4*
X56625000Y33140000D02*
X56625000Y34740000D01*
X59755000Y33140000D02*
X59755000Y34740000D01*
D13*
X57090000Y31540000D02*
G75*
G02*
X56890000Y31540000I-100000J0D01*
G01*
X56890000Y31540000D02*
G75*
G02*
X57090000Y31540000I100000J0D01*
G01*
G04 #@! TO.C,S1*
X42495000Y90240000D02*
X61195000Y90240000D01*
X42495000Y58540000D02*
X42495000Y90240000D01*
X61195000Y90240000D02*
X61195000Y58540000D01*
X61195000Y58540000D02*
X42495000Y58540000D01*
D12*
G04 #@! TO.C,J14*
X96620000Y28995000D02*
X96620000Y11155000D01*
X96620000Y28995000D02*
X99280000Y28995000D01*
X96620000Y11155000D02*
X99280000Y11155000D01*
X97950000Y31595000D02*
X99280000Y31595000D01*
X99280000Y31595000D02*
X99280000Y30265000D01*
X99280000Y28995000D02*
X99280000Y11155000D01*
G04 #@! TO.C,J11*
X81139000Y90525000D02*
X91060000Y90525000D01*
X81139000Y80245000D02*
X81139000Y90525000D01*
X81139000Y80245000D02*
X91060000Y80245000D01*
X84099000Y80245000D02*
X84099000Y90525000D01*
X85125000Y88995000D02*
X85161000Y88960000D01*
X85331000Y89200000D02*
X85377000Y89153000D01*
X87423000Y86698000D02*
X87469000Y86651000D01*
X87639000Y86891000D02*
X87674000Y86856000D01*
X89000000Y80245000D02*
X89000000Y90525000D01*
X90500000Y80245000D02*
X90500000Y90525000D01*
X90560000Y80005000D02*
X91300000Y80005000D01*
X91060000Y80245000D02*
X91060000Y90525000D01*
X91300000Y80005000D02*
X91300000Y80505000D01*
X84864573Y82161958D02*
G75*
G02*
X84865000Y83529000I1535420J683041D01*
G01*
X85716958Y84380427D02*
G75*
G02*
X87084000Y84380000I683042J-1535427D01*
G01*
X87083042Y81309573D02*
G75*
G02*
X85716000Y81310000I-683041J1535420D01*
G01*
X87934756Y83528318D02*
G75*
G02*
X88080000Y82845000I-1534756J-683318D01*
G01*
X88080253Y82873805D02*
G75*
G02*
X87935000Y82161000I-1680254J-28806D01*
G01*
X88080000Y87925000D02*
G75*
G02*
X84720000Y87925000I-1680000J0D01*
G01*
X84720000Y87925000D02*
G75*
G02*
X88080000Y87925000I1680000J0D01*
G01*
G04 #@! TO.C,U3*
X16445000Y57470000D02*
X16445000Y37030000D01*
X16445000Y37030000D02*
X21745000Y37030000D01*
X18095000Y57470000D02*
X16445000Y57470000D01*
X21745000Y57470000D02*
X20095000Y57470000D01*
X21745000Y37030000D02*
X21745000Y57470000D01*
X20095000Y57470000D02*
G75*
G02*
X18095000Y57470000I-1000000J0D01*
G01*
D10*
G04 #@! TO.C,D1*
X83498500Y48120000D02*
X83498500Y51980000D01*
X83498500Y48120000D02*
X85498500Y48120000D01*
X85498500Y48120000D02*
X85498500Y51980000D01*
D12*
G04 #@! TO.C,A1*
X2595000Y27210000D02*
X13015000Y27210000D01*
X2595000Y19330000D02*
X2595000Y27210000D01*
X5135000Y32290000D02*
X5135000Y27210000D01*
X5135000Y14250000D02*
X5135000Y19330000D01*
X5135000Y14250000D02*
X48575000Y14250000D01*
X7805000Y29620000D02*
X7805000Y32290000D01*
X7805000Y16920000D02*
X7805000Y14250000D01*
X13015000Y27210000D02*
X13015000Y19330000D01*
X13015000Y19330000D02*
X2595000Y19330000D01*
X43365000Y32290000D02*
X5135000Y32290000D01*
X43365000Y29620000D02*
X7805000Y29620000D01*
X43365000Y29620000D02*
X43365000Y32290000D01*
X43365000Y29620000D02*
X45905000Y29620000D01*
X45905000Y29620000D02*
X45905000Y32290000D01*
X45905000Y16920000D02*
X7805000Y16920000D01*
X45905000Y16920000D02*
X45905000Y14250000D01*
X48575000Y32290000D02*
X45905000Y32290000D01*
X48575000Y14250000D02*
X48575000Y32290000D01*
D15*
G04 #@! TO.C,F2*
X62211801Y19126200D02*
X64952099Y19126200D01*
X64952099Y23799800D02*
X62211801Y23799800D01*
X59658750Y21463000D02*
G75*
G02*
X59404750Y21463000I-127000J0D01*
G01*
X59404750Y21463000D02*
G75*
G02*
X59658750Y21463000I127000J0D01*
G01*
D12*
G04 #@! TO.C,C7*
X34106252Y40950000D02*
X32683748Y40950000D01*
X34106252Y38230000D02*
X32683748Y38230000D01*
G04 #@! TO.C,J1*
X2325000Y76300000D02*
X3655000Y76300000D01*
X2325000Y74970000D02*
X2325000Y76300000D01*
X2325000Y73700000D02*
X2325000Y66020000D01*
X2325000Y73700000D02*
X4985000Y73700000D01*
X2325000Y66020000D02*
X4985000Y66020000D01*
X4985000Y73700000D02*
X4985000Y66020000D01*
G04 #@! TO.C,TP7*
X32745000Y44590000D02*
G75*
G02*
X30845000Y44590000I-950000J0D01*
G01*
X30845000Y44590000D02*
G75*
G02*
X32745000Y44590000I950000J0D01*
G01*
G04 #@! TO.C,J12*
X81139000Y79275000D02*
X91060000Y79275000D01*
X81139000Y68995000D02*
X81139000Y79275000D01*
X81139000Y68995000D02*
X91060000Y68995000D01*
X84099000Y68995000D02*
X84099000Y79275000D01*
X85125000Y77745000D02*
X85161000Y77710000D01*
X85331000Y77950000D02*
X85377000Y77903000D01*
X87423000Y75448000D02*
X87469000Y75401000D01*
X87639000Y75641000D02*
X87674000Y75606000D01*
X89000000Y68995000D02*
X89000000Y79275000D01*
X90500000Y68995000D02*
X90500000Y79275000D01*
X90560000Y68755000D02*
X91300000Y68755000D01*
X91060000Y68995000D02*
X91060000Y79275000D01*
X91300000Y68755000D02*
X91300000Y69255000D01*
X84864573Y70911958D02*
G75*
G02*
X84865000Y72279000I1535420J683041D01*
G01*
X85716958Y73130427D02*
G75*
G02*
X87084000Y73130000I683042J-1535427D01*
G01*
X87083042Y70059573D02*
G75*
G02*
X85716000Y70060000I-683041J1535420D01*
G01*
X87934756Y72278318D02*
G75*
G02*
X88080000Y71595000I-1534756J-683318D01*
G01*
X88080253Y71623805D02*
G75*
G02*
X87935000Y70911000I-1680254J-28806D01*
G01*
X88080000Y76675000D02*
G75*
G02*
X84720000Y76675000I-1680000J0D01*
G01*
X84720000Y76675000D02*
G75*
G02*
X88080000Y76675000I1680000J0D01*
G01*
D15*
G04 #@! TO.C,U5*
X61756300Y48906900D02*
X65921900Y48906900D01*
X65921900Y54063100D02*
X61756300Y54063100D01*
D12*
G04 #@! TO.C,TP4*
X51145000Y45390000D02*
G75*
G02*
X49245000Y45390000I-950000J0D01*
G01*
X49245000Y45390000D02*
G75*
G02*
X51145000Y45390000I950000J0D01*
G01*
G04 #@! TO.C,TP8*
X56145000Y48190000D02*
G75*
G02*
X54245000Y48190000I-950000J0D01*
G01*
X54245000Y48190000D02*
G75*
G02*
X56145000Y48190000I950000J0D01*
G01*
D10*
G04 #@! TO.C,D3*
X76285000Y17180000D02*
X78975000Y17180000D01*
X78975000Y19100000D02*
X76285000Y19100000D01*
X78975000Y17180000D02*
X78975000Y19100000D01*
D15*
G04 #@! TO.C,F1*
X65070500Y81899200D02*
X65070500Y59140800D01*
X65070500Y59140800D02*
X69316270Y59140800D01*
X69316270Y81899200D02*
X65070500Y81899200D01*
X71873730Y59140800D02*
X76119500Y59140800D01*
X76119500Y81899200D02*
X71873730Y81899200D01*
X76119500Y59140800D02*
X76119500Y81899200D01*
D12*
G04 #@! TO.C,R6*
X82365000Y27560000D02*
X83055000Y27560000D01*
X83055000Y29280000D02*
X83055000Y25840000D01*
X83055000Y25840000D02*
X92295000Y25840000D01*
X92295000Y29280000D02*
X83055000Y29280000D01*
X92295000Y25840000D02*
X92295000Y29280000D01*
X92985000Y27560000D02*
X92295000Y27560000D01*
D10*
G04 #@! TO.C,D2*
X70285000Y90640000D02*
X78795000Y90640000D01*
X70285000Y84140000D02*
X70285000Y90640000D01*
X70285000Y84140000D02*
X78795000Y84140000D01*
D12*
G04 #@! TO.C,U1*
X41345000Y47700000D02*
X40545000Y47700000D01*
X41345000Y47700000D02*
X42145000Y47700000D01*
X41345000Y44580000D02*
X40545000Y44580000D01*
X41345000Y44580000D02*
X42145000Y44580000D01*
X40045000Y47650000D02*
X39805000Y47980000D01*
X40285000Y47980000D01*
X40045000Y47650000D01*
G36*
X40045000Y47650000D02*
G01*
X39805000Y47980000D01*
X40285000Y47980000D01*
X40045000Y47650000D01*
G37*
G04 #@! TO.C,J4*
X80725000Y53560000D02*
X80725000Y54890000D01*
X82055000Y53560000D02*
X80725000Y53560000D01*
X83325000Y56220000D02*
X85925000Y56220000D01*
X83325000Y53560000D02*
X83325000Y56220000D01*
X83325000Y53560000D02*
X85925000Y53560000D01*
X85925000Y53560000D02*
X85925000Y56220000D01*
G04 #@! TO.C,J15*
X40225000Y2560000D02*
X40225000Y3890000D01*
X41555000Y2560000D02*
X40225000Y2560000D01*
X42825000Y5220000D02*
X50505000Y5220000D01*
X42825000Y2560000D02*
X42825000Y5220000D01*
X42825000Y2560000D02*
X50505000Y2560000D01*
X50505000Y2560000D02*
X50505000Y5220000D01*
G04 #@! TO.C,J13*
X81139000Y68025000D02*
X91060000Y68025000D01*
X81139000Y57745000D02*
X81139000Y68025000D01*
X81139000Y57745000D02*
X91060000Y57745000D01*
X84099000Y57745000D02*
X84099000Y68025000D01*
X85125000Y66495000D02*
X85161000Y66460000D01*
X85331000Y66700000D02*
X85377000Y66653000D01*
X87423000Y64198000D02*
X87469000Y64151000D01*
X87639000Y64391000D02*
X87674000Y64356000D01*
X89000000Y57745000D02*
X89000000Y68025000D01*
X90500000Y57745000D02*
X90500000Y68025000D01*
X90560000Y57505000D02*
X91300000Y57505000D01*
X91060000Y57745000D02*
X91060000Y68025000D01*
X91300000Y57505000D02*
X91300000Y58005000D01*
X84864573Y59661958D02*
G75*
G02*
X84865000Y61029000I1535420J683041D01*
G01*
X85716958Y61880427D02*
G75*
G02*
X87084000Y61880000I683042J-1535427D01*
G01*
X87083042Y58809573D02*
G75*
G02*
X85716000Y58810000I-683041J1535420D01*
G01*
X87934756Y61028318D02*
G75*
G02*
X88080000Y60345000I-1534756J-683318D01*
G01*
X88080253Y60373805D02*
G75*
G02*
X87935000Y59661000I-1680254J-28806D01*
G01*
X88080000Y65425000D02*
G75*
G02*
X84720000Y65425000I-1680000J0D01*
G01*
X84720000Y65425000D02*
G75*
G02*
X88080000Y65425000I1680000J0D01*
G01*
G04 #@! TO.C,J3*
X70065000Y6645000D02*
X71395000Y6645000D01*
X70065000Y5315000D02*
X70065000Y6645000D01*
X72665000Y6645000D02*
X75265000Y6645000D01*
X72665000Y3985000D02*
X72665000Y6645000D01*
X72665000Y3985000D02*
X75265000Y3985000D01*
X75265000Y3985000D02*
X75265000Y6645000D01*
D16*
G04 #@! TO.C,G\u002A\u002A\u002A*
G36*
X21817886Y95927234D02*
G01*
X22153148Y95886010D01*
X22480451Y95810434D01*
X22798445Y95701074D01*
X23105781Y95558497D01*
X23401107Y95383271D01*
X23683075Y95175965D01*
X23950333Y94937145D01*
X24026104Y94860823D01*
X24233820Y94625204D01*
X24427867Y94364298D01*
X24602257Y94087278D01*
X24751004Y93803319D01*
X24822702Y93640203D01*
X24864715Y93537087D01*
X30857153Y93532576D01*
X36849590Y93528065D01*
X36849590Y92568390D01*
X36849590Y91608715D01*
X36262125Y91603985D01*
X35674661Y91599256D01*
X35674661Y89832622D01*
X35674661Y88065989D01*
X35322073Y88065989D01*
X34969484Y88065989D01*
X35058161Y88151194D01*
X35187484Y88298385D01*
X35283792Y88459367D01*
X35346878Y88633409D01*
X35376535Y88819785D01*
X35372554Y89017767D01*
X35348296Y89169167D01*
X35296508Y89325846D01*
X35212670Y89467391D01*
X35098095Y89591867D01*
X35019841Y89654219D01*
X34929795Y89713538D01*
X34833528Y89766275D01*
X34726140Y89814217D01*
X34602727Y89859147D01*
X34458388Y89902852D01*
X34288220Y89947114D01*
X34087321Y89993719D01*
X34087161Y89993755D01*
X33922897Y90031551D01*
X33790375Y90065633D01*
X33685891Y90097819D01*
X33605741Y90129928D01*
X33546220Y90163779D01*
X33503625Y90201191D01*
X33474251Y90243982D01*
X33454393Y90293971D01*
X33450922Y90306157D01*
X33441344Y90395214D01*
X33464752Y90475275D01*
X33522550Y90550935D01*
X33526941Y90555240D01*
X33623904Y90625272D01*
X33747451Y90675470D01*
X33893995Y90705407D01*
X34059951Y90714660D01*
X34241730Y90702804D01*
X34435745Y90669415D01*
X34454763Y90665089D01*
X34558931Y90634579D01*
X34679314Y90589342D01*
X34804556Y90534516D01*
X34923301Y90475239D01*
X35024193Y90416650D01*
X35064356Y90389248D01*
X35119231Y90354647D01*
X35170406Y90331731D01*
X35197226Y90326158D01*
X35244152Y90326158D01*
X35244152Y90727940D01*
X35244152Y91129722D01*
X35114103Y91176498D01*
X34899622Y91242901D01*
X34669674Y91294788D01*
X34432151Y91331427D01*
X34194945Y91352087D01*
X33965948Y91356037D01*
X33753051Y91342543D01*
X33593690Y91317460D01*
X33374428Y91257400D01*
X33177356Y91175290D01*
X33004173Y91072869D01*
X32856576Y90951870D01*
X32736261Y90814029D01*
X32644927Y90661082D01*
X32584271Y90494766D01*
X32555990Y90316814D01*
X32554051Y90254407D01*
X32569834Y90059798D01*
X32616658Y89882236D01*
X32693982Y89722761D01*
X32801260Y89582413D01*
X32937950Y89462232D01*
X32984712Y89430201D01*
X33053223Y89388071D01*
X33122732Y89350504D01*
X33197516Y89316091D01*
X33281853Y89283424D01*
X33380024Y89251094D01*
X33496305Y89217692D01*
X33634975Y89181810D01*
X33800313Y89142039D01*
X33996598Y89096971D01*
X33997471Y89096774D01*
X34149721Y89057883D01*
X34269266Y89016412D01*
X34359276Y88970126D01*
X34422921Y88916794D01*
X34463371Y88854182D01*
X34483795Y88780058D01*
X34486720Y88752130D01*
X34488346Y88685582D01*
X34479583Y88638433D01*
X34457073Y88594899D01*
X34451496Y88586514D01*
X34383193Y88516545D01*
X34286790Y88462228D01*
X34166516Y88423664D01*
X34026602Y88400958D01*
X33871280Y88394213D01*
X33704779Y88403532D01*
X33531331Y88429018D01*
X33355166Y88470775D01*
X33180514Y88528905D01*
X33118517Y88553991D01*
X33045593Y88588094D01*
X32962185Y88631967D01*
X32875939Y88681018D01*
X32794503Y88730654D01*
X32725524Y88776283D01*
X32676649Y88813313D01*
X32660536Y88829028D01*
X32627513Y88848411D01*
X32587154Y88855254D01*
X32535536Y88855254D01*
X32535536Y88460622D01*
X32535536Y88065989D01*
X31844929Y88065989D01*
X31154322Y88065989D01*
X31154322Y89339576D01*
X31154322Y90613164D01*
X31674519Y90613164D01*
X32194717Y90613164D01*
X32194717Y90953983D01*
X32194717Y91294802D01*
X30732782Y91294802D01*
X29270847Y91294802D01*
X29270847Y90953983D01*
X29270847Y90613164D01*
X29791045Y90613164D01*
X30311243Y90613164D01*
X30311243Y89339576D01*
X30311243Y88065989D01*
X29584760Y88065989D01*
X28858277Y88065989D01*
X28858277Y89832867D01*
X28858277Y91599746D01*
X27002999Y91599746D01*
X25147722Y91599746D01*
X25136138Y91496603D01*
X25078075Y91119542D01*
X24990916Y90756257D01*
X24876011Y90408271D01*
X24734709Y90077105D01*
X24568360Y89764281D01*
X24378313Y89471322D01*
X24165919Y89199748D01*
X23932525Y88951083D01*
X23679483Y88726849D01*
X23408141Y88528566D01*
X23119848Y88357757D01*
X22815955Y88215945D01*
X22497811Y88104651D01*
X22166765Y88025397D01*
X22039590Y88004251D01*
X21949041Y87994395D01*
X21832776Y87986750D01*
X21700899Y87981507D01*
X21563512Y87978858D01*
X21430719Y87978993D01*
X21312622Y87982105D01*
X21219326Y87988385D01*
X21216751Y87988652D01*
X20944255Y88032082D01*
X20663409Y88104475D01*
X20382285Y88202899D01*
X20108955Y88324421D01*
X19851491Y88466108D01*
X19781723Y88510046D01*
X19494977Y88717406D01*
X19228266Y88953237D01*
X18983295Y89215174D01*
X18761770Y89500846D01*
X18565398Y89807887D01*
X18395884Y90133929D01*
X18254934Y90476602D01*
X18166395Y90752231D01*
X18102664Y91017293D01*
X18054075Y91303969D01*
X18021592Y91601351D01*
X18006476Y91892797D01*
X19556567Y91892797D01*
X19561782Y91730321D01*
X19572252Y91579881D01*
X19587902Y91450694D01*
X19598634Y91392301D01*
X19680419Y91085842D01*
X19788603Y90803427D01*
X19923465Y90544507D01*
X20085287Y90308531D01*
X20243393Y90126458D01*
X20430896Y89949187D01*
X20621103Y89805023D01*
X20818718Y89691254D01*
X21028444Y89605168D01*
X21252627Y89544548D01*
X21361966Y89529354D01*
X21494648Y89522988D01*
X21639371Y89524953D01*
X21784835Y89534756D01*
X21919738Y89551900D01*
X22032779Y89575893D01*
X22044378Y89579220D01*
X22260157Y89655743D01*
X22455857Y89752641D01*
X22638821Y89874398D01*
X22816392Y90025498D01*
X22884971Y90092543D01*
X23073382Y90308047D01*
X23234180Y90543642D01*
X23367102Y90796200D01*
X23471886Y91062594D01*
X23548269Y91339695D01*
X23595986Y91624377D01*
X23614777Y91913513D01*
X23604376Y92203974D01*
X23564523Y92492634D01*
X23494952Y92776364D01*
X23395403Y93052038D01*
X23265610Y93316528D01*
X23169355Y93474251D01*
X23082884Y93591870D01*
X22975133Y93718064D01*
X22855555Y93842897D01*
X22733603Y93956434D01*
X22632248Y94038799D01*
X22421715Y94174325D01*
X22198962Y94277375D01*
X21967191Y94347680D01*
X21729601Y94384971D01*
X21489393Y94388979D01*
X21249766Y94359436D01*
X21013922Y94296072D01*
X20785059Y94198619D01*
X20777274Y94194618D01*
X20561044Y94063086D01*
X20359820Y93901147D01*
X20175734Y93711880D01*
X20010916Y93498363D01*
X19867495Y93263674D01*
X19747603Y93010891D01*
X19653370Y92743093D01*
X19589765Y92478701D01*
X19573206Y92360261D01*
X19562204Y92216985D01*
X19556682Y92058091D01*
X19556567Y91892797D01*
X18006476Y91892797D01*
X18006178Y91898533D01*
X18008795Y92184605D01*
X18022657Y92380276D01*
X18077698Y92762607D01*
X18163646Y93132931D01*
X18279381Y93489301D01*
X18423783Y93829770D01*
X18595731Y94152391D01*
X18794107Y94455218D01*
X19017789Y94736304D01*
X19265659Y94993702D01*
X19536596Y95225466D01*
X19745847Y95375717D01*
X20046107Y95554868D01*
X20356081Y95699493D01*
X20675971Y95809657D01*
X21005978Y95885423D01*
X21346301Y95926857D01*
X21476016Y95933537D01*
X21817886Y95927234D01*
G37*
D15*
G04 #@! TO.C,K2*
X65275000Y46956100D02*
X65275000Y35703900D01*
X65275000Y35703900D02*
X85722000Y35703900D01*
X85722000Y46956100D02*
X65275000Y46956100D01*
X85722000Y35703900D02*
X85722000Y46956100D01*
G04 #@! TD*
%LPC*%
D17*
G04 #@! TO.C,C5*
X60815000Y31650000D03*
X62375000Y31650000D03*
G04 #@! TD*
D18*
G04 #@! TO.C,J7*
X32695000Y58630000D03*
D19*
X32695000Y56090000D03*
X32695000Y53550000D03*
X32695000Y51010000D03*
G04 #@! TD*
D20*
G04 #@! TO.C,RL3*
X25235000Y68080000D03*
X25235000Y69720000D03*
G04 #@! TD*
D21*
G04 #@! TO.C,C13*
X40095000Y40660000D03*
X40095000Y43620000D03*
G04 #@! TD*
D20*
G04 #@! TO.C,RL2*
X25235000Y73200000D03*
X25235000Y74840000D03*
G04 #@! TD*
D22*
G04 #@! TO.C,J10*
X55480000Y6190000D03*
X61260000Y6190000D03*
D23*
X57120000Y7390000D03*
X58120000Y7390000D03*
X58620000Y7390000D03*
X59620000Y7390000D03*
D24*
X60770000Y7390000D03*
X61570000Y7390000D03*
D23*
X60120000Y7390000D03*
X59120000Y7390000D03*
X57620000Y7390000D03*
X56620000Y7390000D03*
D24*
X55970000Y7390000D03*
X55170000Y7390000D03*
D25*
X54040000Y6710000D03*
D26*
X54040000Y2510000D03*
D27*
X56370000Y3890000D03*
X56370000Y1890000D03*
D28*
X58370000Y2890000D03*
D27*
X60370000Y3890000D03*
X60370000Y1890000D03*
D25*
X62700000Y6710000D03*
D26*
X62700000Y2510000D03*
G04 #@! TD*
D29*
G04 #@! TO.C,H3*
X87845000Y98000000D03*
G04 #@! TD*
D30*
G04 #@! TO.C,D6*
X68920000Y18640000D03*
X68920000Y21940000D03*
G04 #@! TD*
D17*
G04 #@! TO.C,C8*
X57595000Y48390000D03*
X59155000Y48390000D03*
G04 #@! TD*
G04 #@! TO.C,C3*
X60815000Y34650000D03*
X62375000Y34650000D03*
G04 #@! TD*
D20*
G04 #@! TO.C,RL5*
X25295000Y54490000D03*
X25295000Y56130000D03*
G04 #@! TD*
D31*
G04 #@! TO.C,F4*
X34932500Y35790000D03*
X30657500Y35790000D03*
G04 #@! TD*
D32*
G04 #@! TO.C,C1*
X88248500Y42810000D03*
X88248500Y39850000D03*
G04 #@! TD*
D33*
G04 #@! TO.C,D4*
X78285000Y15640000D03*
X76405000Y15640000D03*
G04 #@! TD*
D34*
G04 #@! TO.C,L2*
X36295000Y42365000D03*
X36295000Y44465000D03*
G04 #@! TD*
D35*
G04 #@! TO.C,R8*
X47845000Y48140000D03*
X47845000Y47140000D03*
G04 #@! TD*
D36*
G04 #@! TO.C,TP1*
X59220000Y39765000D03*
G04 #@! TD*
D18*
G04 #@! TO.C,J9*
X71395000Y16040000D03*
D19*
X68855000Y16040000D03*
X66315000Y16040000D03*
G04 #@! TD*
D37*
G04 #@! TO.C,D7*
X33345000Y8450000D03*
X33345000Y10330000D03*
G04 #@! TD*
D18*
G04 #@! TO.C,J2*
X91945000Y51815000D03*
D19*
X91945000Y49275000D03*
X91945000Y46735000D03*
X91945000Y44195000D03*
X91945000Y41655000D03*
X91945000Y39115000D03*
X91945000Y36575000D03*
X91945000Y34035000D03*
G04 #@! TD*
D36*
G04 #@! TO.C,TP3*
X62970000Y39640000D03*
G04 #@! TD*
D18*
G04 #@! TO.C,J5*
X3655000Y53680000D03*
D19*
X3655000Y51140000D03*
X3655000Y48600000D03*
X3655000Y46060000D03*
G04 #@! TD*
D38*
G04 #@! TO.C,C9*
X57045000Y39140000D03*
X55145000Y39140000D03*
G04 #@! TD*
D36*
G04 #@! TO.C,TP2*
X52470000Y33865000D03*
G04 #@! TD*
D38*
G04 #@! TO.C,C10*
X57045000Y37090000D03*
X55145000Y37090000D03*
G04 #@! TD*
D18*
G04 #@! TO.C,J6*
X32695000Y82450000D03*
D19*
X32695000Y79910000D03*
X32695000Y77370000D03*
X32695000Y74830000D03*
X32695000Y72290000D03*
G04 #@! TD*
D39*
G04 #@! TO.C,U2*
X15185000Y79920000D03*
D40*
X15185000Y77380000D03*
X15185000Y74840000D03*
X15185000Y72300000D03*
X15185000Y69760000D03*
X15185000Y67220000D03*
X15185000Y64680000D03*
X15185000Y62140000D03*
X22805000Y62140000D03*
X22805000Y64680000D03*
X22805000Y67220000D03*
X22805000Y69760000D03*
X22805000Y72300000D03*
X22805000Y74840000D03*
X22805000Y77380000D03*
X22805000Y79920000D03*
G04 #@! TD*
D41*
G04 #@! TO.C,L1*
X56970000Y27540000D03*
X61170000Y27540000D03*
G04 #@! TD*
D42*
G04 #@! TO.C,R2*
X59220000Y12060000D03*
X59220000Y10240000D03*
G04 #@! TD*
D43*
G04 #@! TO.C,S2*
X89073500Y32580000D03*
X84923500Y32580000D03*
G04 #@! TD*
D29*
G04 #@! TO.C,H2*
X89320000Y3290000D03*
G04 #@! TD*
D44*
G04 #@! TO.C,R9*
X46845000Y47140000D03*
X46845000Y48140000D03*
G04 #@! TD*
D18*
G04 #@! TO.C,J8*
X47475000Y34590000D03*
D19*
X44935000Y34590000D03*
X42395000Y34590000D03*
G04 #@! TD*
D45*
G04 #@! TO.C,C6*
X48995000Y48110000D03*
X48995000Y47470000D03*
G04 #@! TD*
D46*
G04 #@! TO.C,D5*
X78135000Y13140000D03*
X76555000Y13140000D03*
G04 #@! TD*
D47*
G04 #@! TO.C,U4*
X57240000Y32785000D03*
X58190000Y32785000D03*
X59140000Y32785000D03*
X59140000Y35095000D03*
X58190000Y35095000D03*
X57240000Y35095000D03*
G04 #@! TD*
D48*
G04 #@! TO.C,S1*
X51845000Y79390000D03*
X51845000Y69390000D03*
G04 #@! TD*
D49*
G04 #@! TO.C,R12*
X62595000Y36890000D03*
X61595000Y36890000D03*
G04 #@! TD*
D18*
G04 #@! TO.C,J14*
X97950000Y30265000D03*
D19*
X97950000Y27725000D03*
X97950000Y25185000D03*
X97950000Y22645000D03*
X97950000Y20105000D03*
X97950000Y17565000D03*
X97950000Y15025000D03*
X97950000Y12485000D03*
G04 #@! TD*
D29*
G04 #@! TO.C,H1*
X13970000Y98000000D03*
G04 #@! TD*
D50*
G04 #@! TO.C,J11*
X86400000Y82845000D03*
D51*
X86400000Y87925000D03*
G04 #@! TD*
D39*
G04 #@! TO.C,U3*
X15285000Y56140000D03*
D40*
X15285000Y53600000D03*
X15285000Y51060000D03*
X15285000Y48520000D03*
X15285000Y45980000D03*
X15285000Y43440000D03*
X15285000Y40900000D03*
X15285000Y38360000D03*
X22905000Y38360000D03*
X22905000Y40900000D03*
X22905000Y43440000D03*
X22905000Y45980000D03*
X22905000Y48520000D03*
X22905000Y51060000D03*
X22905000Y53600000D03*
X22905000Y56140000D03*
G04 #@! TD*
D52*
G04 #@! TO.C,D1*
X84498500Y48930000D03*
X84498500Y51730000D03*
G04 #@! TD*
D22*
G04 #@! TO.C,H5*
X91875000Y7150000D03*
X92465000Y8560000D03*
X92465000Y5740000D03*
X93875000Y9150000D03*
D53*
X93875000Y7150000D03*
D22*
X93875000Y5150000D03*
X95285000Y8560000D03*
X95285000Y5740000D03*
X95875000Y7150000D03*
G04 #@! TD*
D39*
G04 #@! TO.C,A1*
X44635000Y30890000D03*
D40*
X42095000Y30890000D03*
X39555000Y30890000D03*
X37015000Y30890000D03*
X34475000Y30890000D03*
X31935000Y30890000D03*
X29395000Y30890000D03*
X26855000Y30890000D03*
X24315000Y30890000D03*
X21775000Y30890000D03*
X19235000Y30890000D03*
X16695000Y30890000D03*
X14155000Y30890000D03*
X11615000Y30890000D03*
X9075000Y30890000D03*
X9075000Y15650000D03*
X11615000Y15650000D03*
X14155000Y15650000D03*
X16695000Y15650000D03*
X19235000Y15650000D03*
X21775000Y15650000D03*
X24315000Y15650000D03*
X26855000Y15650000D03*
X29395000Y15650000D03*
X31935000Y15650000D03*
X34475000Y15650000D03*
X37015000Y15650000D03*
X39555000Y15650000D03*
X42095000Y15650000D03*
X44635000Y15650000D03*
G04 #@! TD*
D54*
G04 #@! TO.C,R5*
X36955000Y6915000D03*
X38595000Y6915000D03*
G04 #@! TD*
D55*
G04 #@! TO.C,F2*
X61131950Y21463000D03*
X66031950Y21463000D03*
G04 #@! TD*
D20*
G04 #@! TO.C,R11*
X56395000Y51770000D03*
X56395000Y53410000D03*
G04 #@! TD*
D56*
G04 #@! TO.C,C7*
X34870000Y39590000D03*
X31920000Y39590000D03*
G04 #@! TD*
D18*
G04 #@! TO.C,J1*
X3655000Y74970000D03*
D19*
X3655000Y72430000D03*
X3655000Y69890000D03*
X3655000Y67350000D03*
G04 #@! TD*
D36*
G04 #@! TO.C,TP7*
X31795000Y44590000D03*
G04 #@! TD*
D42*
G04 #@! TO.C,R1*
X64920000Y10775000D03*
X64920000Y8955000D03*
G04 #@! TD*
D50*
G04 #@! TO.C,J12*
X86400000Y71595000D03*
D51*
X86400000Y76675000D03*
G04 #@! TD*
D57*
G04 #@! TO.C,U5*
X66595000Y49580000D03*
X66595000Y50850000D03*
X66595000Y52120000D03*
X66595000Y53390000D03*
X61083200Y53390000D03*
X61083200Y52120000D03*
X61083200Y50850000D03*
X61083200Y49580000D03*
G04 #@! TD*
D36*
G04 #@! TO.C,TP4*
X50195000Y45390000D03*
G04 #@! TD*
D20*
G04 #@! TO.C,RL1*
X25235000Y78280000D03*
X25235000Y79920000D03*
G04 #@! TD*
D54*
G04 #@! TO.C,R7*
X44025000Y46140000D03*
X45665000Y46140000D03*
G04 #@! TD*
D36*
G04 #@! TO.C,TP8*
X55195000Y48190000D03*
G04 #@! TD*
D17*
G04 #@! TO.C,C2*
X60815000Y11115000D03*
X62375000Y11115000D03*
G04 #@! TD*
D22*
G04 #@! TO.C,H6*
X92605000Y95400000D03*
X93195000Y96810000D03*
X93195000Y93990000D03*
X94605000Y97400000D03*
D53*
X94605000Y95400000D03*
D22*
X94605000Y93400000D03*
X96015000Y96810000D03*
X96015000Y93990000D03*
X96605000Y95400000D03*
G04 #@! TD*
G04 #@! TO.C,H7*
X4655000Y95375000D03*
X5245000Y96785000D03*
X5245000Y93965000D03*
X6655000Y97375000D03*
D53*
X6655000Y95375000D03*
D22*
X6655000Y93375000D03*
X8065000Y96785000D03*
X8065000Y93965000D03*
X8655000Y95375000D03*
G04 #@! TD*
D20*
G04 #@! TO.C,RL4*
X25235000Y63000000D03*
X25235000Y64640000D03*
G04 #@! TD*
D33*
G04 #@! TO.C,D3*
X78225000Y18140000D03*
X76345000Y18140000D03*
G04 #@! TD*
D17*
G04 #@! TO.C,C4*
X60815000Y33140000D03*
X62375000Y33140000D03*
G04 #@! TD*
D58*
G04 #@! TO.C,F1*
X70595000Y81770000D03*
X70595000Y59270000D03*
D59*
X78215000Y67980000D03*
X78215000Y73060000D03*
D60*
X62975000Y69250000D03*
X62975000Y71790000D03*
D61*
X70595000Y62900000D03*
X70595000Y78140000D03*
G04 #@! TD*
D62*
G04 #@! TO.C,R6*
X81325000Y27560000D03*
D40*
X94025000Y27560000D03*
G04 #@! TD*
D63*
G04 #@! TO.C,D2*
X71795000Y87390000D03*
X78595000Y87390000D03*
G04 #@! TD*
D64*
G04 #@! TO.C,U1*
X40207500Y47090000D03*
X40207500Y46140000D03*
X40207500Y45190000D03*
X42482500Y45190000D03*
X42482500Y46140000D03*
X42482500Y47090000D03*
G04 #@! TD*
D22*
G04 #@! TO.C,H4*
X4595000Y7390000D03*
X5185000Y8800000D03*
X5185000Y5980000D03*
X6595000Y9390000D03*
D53*
X6595000Y7390000D03*
D22*
X6595000Y5390000D03*
X8005000Y8800000D03*
X8005000Y5980000D03*
X8595000Y7390000D03*
G04 #@! TD*
D18*
G04 #@! TO.C,J4*
X82055000Y54890000D03*
D19*
X84595000Y54890000D03*
G04 #@! TD*
D49*
G04 #@! TO.C,C12*
X43095000Y48390000D03*
X42095000Y48390000D03*
G04 #@! TD*
D18*
G04 #@! TO.C,J15*
X41555000Y3890000D03*
D19*
X44095000Y3890000D03*
X46635000Y3890000D03*
X49175000Y3890000D03*
G04 #@! TD*
D44*
G04 #@! TO.C,R4*
X60595000Y36890000D03*
X60595000Y37890000D03*
G04 #@! TD*
D65*
G04 #@! TO.C,C11*
X54995000Y34940000D03*
X54995000Y33040000D03*
G04 #@! TD*
D50*
G04 #@! TO.C,J13*
X86400000Y60345000D03*
D51*
X86400000Y65425000D03*
G04 #@! TD*
D42*
G04 #@! TO.C,R3*
X57220000Y12060000D03*
X57220000Y10240000D03*
G04 #@! TD*
D18*
G04 #@! TO.C,J3*
X71395000Y5315000D03*
D19*
X73935000Y5315000D03*
G04 #@! TD*
D20*
G04 #@! TO.C,RL6*
X25295000Y49450000D03*
X25295000Y51090000D03*
G04 #@! TD*
G04 #@! TO.C,RL7*
X25295000Y44370000D03*
X25295000Y46010000D03*
G04 #@! TD*
D66*
G04 #@! TO.C,K2*
X84385000Y45140000D03*
X81845000Y45140000D03*
X74225000Y45140000D03*
X66605000Y45140000D03*
X81845000Y37520000D03*
X84385000Y37520000D03*
G04 #@! TD*
%LPD*%
M02*
