M48
; DRILL file {KiCad 8.0.8} date 2026-01-14T14:22:45+1100
; FORMAT={-:-/ absolute / metric / decimal}
; #@! TF.CreationDate,2026-01-14T14:22:45+11:00
; #@! TF.GenerationSoftware,Kicad,Pcbnew,8.0.8
; #@! TF.FileFunction,Plated,1,4,PTH
FMAT,2
METRIC
; #@! TA.AperFunction,Plated,PTH,ViaDrill
T1C0.300
; #@! TA.AperFunction,Plated,PTH,ComponentDrill
T2C0.300
; #@! TA.AperFunction,Plated,PTH,ComponentDrill
T3C0.500
; #@! TA.AperFunction,Plated,PTH,ComponentDrill
T4C0.800
; #@! TA.AperFunction,Plated,PTH,ComponentDrill
T5C1.000
; #@! TA.AperFunction,Plated,PTH,ComponentDrill
T6C1.016
; #@! TA.AperFunction,Plated,PTH,ComponentDrill
T7C1.194
; #@! TA.AperFunction,Plated,PTH,ComponentDrill
T8C1.270
; #@! TA.AperFunction,Plated,PTH,ComponentDrill
T9C1.300
; #@! TA.AperFunction,Plated,PTH,ComponentDrill
T10C1.397
; #@! TA.AperFunction,Plated,PTH,ComponentDrill
T11C3.000
%
G90
G05
T1
X25.195Y76.99
X25.235Y72.03
X25.235Y67.03
X25.235Y61.63
X25.295Y53.29
X25.295Y48.39
X25.295Y43.29
X29.395Y35.79
X30.42Y40.465
X30.42Y39.415
X30.42Y38.415
X34.995Y46.04
X36.345Y46.04
X37.495Y46.04
X38.895Y46.604
X38.959Y45.74
X39.195Y48.19
X41.345Y48.39
X41.845Y40.89
X41.845Y39.64
X43.195Y43.59
X45.665Y47.32
X46.845Y49.14
X53.695Y39.165
X53.695Y37.215
X53.995Y31.79
X54.47Y29.865
X54.52Y28.89
X54.82Y9.315
X54.945Y31.715
X55.395Y51.19
X55.395Y29.865
X55.395Y28.865
X55.72Y31.74
X55.97Y9.015
X55.995Y54.59
X56.45Y32.785
X57.22Y13.315
X57.595Y46.79
X57.845Y31.465
X58.19Y36.59
X58.52Y31.49
X58.995Y53.39
X59.22Y13.315
X60.595Y38.69
X60.77Y9.115
X60.795Y48.19
X61.945Y9.265
X63.32Y31.69
X63.345Y34.665
X63.345Y33.14
X63.545Y10.775
X68.995Y53.39
X68.995Y52.19
X68.995Y50.39
X68.995Y48.99
X75.02Y13.14
X76.345Y25.44
T2
X56.37Y3.89
X56.37Y1.89
X60.37Y3.89
X60.37Y1.89
T3
X4.595Y7.39
X4.655Y95.375
X5.185Y8.8
X5.185Y5.98
X5.245Y96.785
X5.245Y93.965
X6.595Y9.39
X6.595Y5.39
X6.655Y97.375
X6.655Y93.375
X8.005Y8.8
X8.005Y5.98
X8.065Y96.785
X8.065Y93.965
X8.595Y7.39
X8.655Y95.375
X91.875Y7.15
X92.465Y8.56
X92.465Y5.74
X92.605Y95.4
X93.195Y96.81
X93.195Y93.99
X93.875Y9.15
X93.875Y5.15
X94.605Y97.4
X94.605Y93.4
X95.285Y8.56
X95.285Y5.74
X95.875Y7.15
X96.015Y96.81
X96.015Y93.99
X96.605Y95.4
T4
X15.185Y79.92
X15.185Y77.38
X15.185Y74.84
X15.185Y72.3
X15.185Y69.76
X15.185Y67.22
X15.185Y64.68
X15.185Y62.14
X15.285Y56.14
X15.285Y53.6
X15.285Y51.06
X15.285Y48.52
X15.285Y45.98
X15.285Y43.44
X15.285Y40.9
X15.285Y38.36
X22.805Y79.92
X22.805Y77.38
X22.805Y74.84
X22.805Y72.3
X22.805Y69.76
X22.805Y67.22
X22.805Y64.68
X22.805Y62.14
X22.905Y56.14
X22.905Y53.6
X22.905Y51.06
X22.905Y48.52
X22.905Y45.98
X22.905Y43.44
X22.905Y40.9
X22.905Y38.36
X51.845Y79.39
X51.845Y69.39
X81.325Y27.56
X94.025Y27.56
T5
X3.655Y74.97
X3.655Y72.43
X3.655Y69.89
X3.655Y67.35
X3.655Y53.68
X3.655Y51.14
X3.655Y48.6
X3.655Y46.06
X9.075Y30.89
X9.075Y15.65
X11.615Y30.89
X11.615Y15.65
X14.155Y30.89
X14.155Y15.65
X16.695Y30.89
X16.695Y15.65
X19.235Y30.89
X19.235Y15.65
X21.775Y30.89
X21.775Y15.65
X24.315Y30.89
X24.315Y15.65
X26.855Y30.89
X26.855Y15.65
X29.395Y30.89
X29.395Y15.65
X31.935Y30.89
X31.935Y15.65
X32.695Y82.45
X32.695Y79.91
X32.695Y77.37
X32.695Y74.83
X32.695Y72.29
X32.695Y58.63
X32.695Y56.09
X32.695Y53.55
X32.695Y51.01
X34.475Y30.89
X34.475Y15.65
X37.015Y30.89
X37.015Y15.65
X39.555Y30.89
X39.555Y15.65
X41.555Y3.89
X42.095Y30.89
X42.095Y15.65
X42.395Y34.59
X44.095Y3.89
X44.635Y30.89
X44.635Y15.65
X44.935Y34.59
X46.635Y3.89
X47.475Y34.59
X49.175Y3.89
X66.315Y16.04
X68.855Y16.04
X71.395Y16.04
X71.395Y5.315
X73.935Y5.315
X82.055Y54.89
X84.595Y54.89
X91.945Y51.815
X91.945Y49.275
X91.945Y46.735
X91.945Y44.195
X91.945Y41.655
X91.945Y39.115
X91.945Y36.575
X91.945Y34.035
X97.95Y30.265
X97.95Y27.725
X97.95Y25.185
X97.95Y22.645
X97.95Y20.105
X97.95Y17.565
X97.95Y15.025
X97.95Y12.485
T6
X62.975Y71.79
X62.975Y69.25
X70.595Y78.14
X70.595Y62.9
T7
X66.605Y45.14
X74.225Y45.14
X81.845Y45.14
X81.845Y37.52
X84.385Y45.14
X84.385Y37.52
T8
X78.215Y73.06
X78.215Y67.98
T9
X86.4Y87.925
X86.4Y82.845
X86.4Y76.675
X86.4Y71.595
X86.4Y65.425
X86.4Y60.345
T10
X70.595Y81.77
X70.595Y59.27
T11
X6.595Y7.39
X6.655Y95.375
X93.875Y7.15
X94.605Y95.4
T3
G00X54.04Y7.26
M15
G01X54.04Y6.16
M16
G05
G00X54.04Y2.91
M15
G01X54.04Y2.11
M16
G05
G00X62.7Y7.26
M15
G01X62.7Y6.16
M16
G05
G00X62.7Y2.91
M15
G01X62.7Y2.11
M16
G05
M30
