G04 #@! TF.GenerationSoftware,KiCad,Pcbnew,8.0.8*
G04 #@! TF.CreationDate,2026-01-14T14:22:45+11:00*
G04 #@! TF.ProjectId,robotv1,726f626f-7476-4312-9e6b-696361645f70,2*
G04 #@! TF.SameCoordinates,Original*
G04 #@! TF.FileFunction,Soldermask,Top*
G04 #@! TF.FilePolarity,Negative*
%FSLAX46Y46*%
G04 Gerber Fmt 4.6, Leading zero omitted, Abs format (unit mm)*
G04 Created by KiCad (PCBNEW 8.0.8) date 2026-01-14 14:22:45*
%MOMM*%
%LPD*%
G01*
G04 APERTURE LIST*
G04 Aperture macros list*
%AMRoundRect*
0 Rectangle with rounded corners*
0 $1 Rounding radius*
0 $2 $3 $4 $5 $6 $7 $8 $9 X,Y pos of 4 corners*
0 Add a 4 corners polygon primitive as box body*
4,1,4,$2,$3,$4,$5,$6,$7,$8,$9,$2,$3,0*
0 Add four circle primitives for the rounded corners*
1,1,$1+$1,$2,$3*
1,1,$1+$1,$4,$5*
1,1,$1+$1,$6,$7*
1,1,$1+$1,$8,$9*
0 Add four rect primitives between the rounded corners*
20,1,$1+$1,$2,$3,$4,$5,0*
20,1,$1+$1,$4,$5,$6,$7,0*
20,1,$1+$1,$6,$7,$8,$9,0*
20,1,$1+$1,$8,$9,$2,$3,0*%
G04 Aperture macros list end*
%ADD10RoundRect,0.244000X-0.244000X-0.269000X0.244000X-0.269000X0.244000X0.269000X-0.244000X0.269000X0*%
%ADD11R,1.700000X1.700000*%
%ADD12O,1.700000X1.700000*%
%ADD13RoundRect,0.219000X0.294000X-0.219000X0.294000X0.219000X-0.294000X0.219000X-0.294000X-0.219000X0*%
%ADD14RoundRect,0.266521X0.671479X-0.346479X0.671479X0.346479X-0.671479X0.346479X-0.671479X-0.346479X0*%
%ADD15C,0.600000*%
%ADD16R,0.300000X1.400000*%
%ADD17R,0.500000X1.400000*%
%ADD18O,1.300000X2.300000*%
%ADD19O,1.300000X2.100000*%
%ADD20C,0.500000*%
%ADD21RoundRect,0.500000X-2.000000X-1.000000X2.000000X-1.000000X2.000000X1.000000X-2.000000X1.000000X0*%
%ADD22C,1.296000*%
%ADD23RoundRect,0.244000X0.394000X-0.244000X0.394000X0.244000X-0.394000X0.244000X-0.394000X-0.244000X0*%
%ADD24RoundRect,0.250000X0.312500X1.450000X-0.312500X1.450000X-0.312500X-1.450000X0.312500X-1.450000X0*%
%ADD25RoundRect,0.266521X-0.671479X0.346479X-0.671479X-0.346479X0.671479X-0.346479X0.671479X0.346479X0*%
%ADD26RoundRect,0.261500X0.261500X0.476500X-0.261500X0.476500X-0.261500X-0.476500X0.261500X-0.476500X0*%
%ADD27RoundRect,0.102000X1.700000X-0.650000X1.700000X0.650000X-1.700000X0.650000X-1.700000X-0.650000X0*%
%ADD28RoundRect,0.159000X-0.189000X0.159000X-0.189000X-0.159000X0.189000X-0.159000X0.189000X0.159000X0*%
%ADD29C,1.500000*%
%ADD30RoundRect,0.261500X0.476500X-0.261500X0.476500X0.261500X-0.476500X0.261500X-0.476500X-0.261500X0*%
%ADD31RoundRect,0.269000X0.269000X0.494000X-0.269000X0.494000X-0.269000X-0.494000X0.269000X-0.494000X0*%
%ADD32R,1.600000X1.600000*%
%ADD33O,1.600000X1.600000*%
%ADD34RoundRect,0.102000X-0.950000X-2.550000X0.950000X-2.550000X0.950000X2.550000X-0.950000X2.550000X0*%
%ADD35RoundRect,0.267317X-0.470683X0.280683X-0.470683X-0.280683X0.470683X-0.280683X0.470683X0.280683X0*%
%ADD36RoundRect,0.287778X0.489222X0.714222X-0.489222X0.714222X-0.489222X-0.714222X0.489222X-0.714222X0*%
%ADD37RoundRect,0.159000X0.189000X-0.159000X0.189000X0.159000X-0.189000X0.159000X-0.189000X-0.159000X0*%
%ADD38RoundRect,0.100000X-0.100000X0.130000X-0.100000X-0.130000X0.100000X-0.130000X0.100000X0.130000X0*%
%ADD39RoundRect,0.239000X0.239000X0.274000X-0.239000X0.274000X-0.239000X-0.274000X0.239000X-0.274000X0*%
%ADD40RoundRect,0.099250X0.297750X-0.727750X0.297750X0.727750X-0.297750X0.727750X-0.297750X-0.727750X0*%
%ADD41C,1.512000*%
%ADD42RoundRect,0.159000X0.159000X0.189000X-0.159000X0.189000X-0.159000X-0.189000X0.159000X-0.189000X0*%
%ADD43R,2.600000X2.600000*%
%ADD44C,2.600000*%
%ADD45RoundRect,0.267273X0.570727X-0.320727X0.570727X0.320727X-0.570727X0.320727X-0.570727X-0.320727X0*%
%ADD46C,5.200000*%
%ADD47RoundRect,0.219000X-0.219000X-0.294000X0.219000X-0.294000X0.219000X0.294000X-0.219000X0.294000X0*%
%ADD48R,1.498600X4.597400*%
%ADD49RoundRect,0.250000X0.325000X1.100000X-0.325000X1.100000X-0.325000X-1.100000X0.325000X-1.100000X0*%
%ADD50R,1.600200X0.558800*%
%ADD51C,1.905000*%
%ADD52R,2.794000X2.032000*%
%ADD53R,2.540000X1.270000*%
%ADD54R,1.270000X2.540000*%
%ADD55C,1.600000*%
%ADD56RoundRect,0.257600X1.030400X-1.430400X1.030400X1.430400X-1.030400X1.430400X-1.030400X-1.430400X0*%
%ADD57RoundRect,0.150000X-0.512500X-0.150000X0.512500X-0.150000X0.512500X0.150000X-0.512500X0.150000X0*%
%ADD58RoundRect,0.269000X-0.494000X0.269000X-0.494000X-0.269000X0.494000X-0.269000X0.494000X0.269000X0*%
%ADD59C,1.701800*%
G04 APERTURE END LIST*
D10*
G04 #@! TO.C,C5*
X60815000Y31650000D03*
X62375000Y31650000D03*
G04 #@! TD*
D11*
G04 #@! TO.C,J7*
X32695000Y58630000D03*
D12*
X32695000Y56090000D03*
X32695000Y53550000D03*
X32695000Y51010000D03*
G04 #@! TD*
D13*
G04 #@! TO.C,RL3*
X25235000Y68080000D03*
X25235000Y69720000D03*
G04 #@! TD*
D14*
G04 #@! TO.C,C13*
X40095000Y40660000D03*
X40095000Y43620000D03*
G04 #@! TD*
D13*
G04 #@! TO.C,RL2*
X25235000Y73200000D03*
X25235000Y74840000D03*
G04 #@! TD*
D15*
G04 #@! TO.C,J10*
X55480000Y6190000D03*
X61260000Y6190000D03*
D16*
X57120000Y7390000D03*
X58120000Y7390000D03*
X58620000Y7390000D03*
X59620000Y7390000D03*
D17*
X60770000Y7390000D03*
X61570000Y7390000D03*
D16*
X60120000Y7390000D03*
X59120000Y7390000D03*
X57620000Y7390000D03*
X56620000Y7390000D03*
D17*
X55970000Y7390000D03*
X55170000Y7390000D03*
D18*
X54040000Y6710000D03*
D19*
X54040000Y2510000D03*
D20*
X56370000Y3890000D03*
X56370000Y1890000D03*
D21*
X58370000Y2890000D03*
D20*
X60370000Y3890000D03*
X60370000Y1890000D03*
D18*
X62700000Y6710000D03*
D19*
X62700000Y2510000D03*
G04 #@! TD*
D22*
G04 #@! TO.C,H3*
X87845000Y98000000D03*
G04 #@! TD*
D23*
G04 #@! TO.C,D6*
X68920000Y18640000D03*
X68920000Y21940000D03*
G04 #@! TD*
D10*
G04 #@! TO.C,C8*
X57595000Y48390000D03*
X59155000Y48390000D03*
G04 #@! TD*
G04 #@! TO.C,C3*
X60815000Y34650000D03*
X62375000Y34650000D03*
G04 #@! TD*
D13*
G04 #@! TO.C,RL5*
X25295000Y54490000D03*
X25295000Y56130000D03*
G04 #@! TD*
D24*
G04 #@! TO.C,F4*
X34932500Y35790000D03*
X30657500Y35790000D03*
G04 #@! TD*
D25*
G04 #@! TO.C,C1*
X88248500Y42810000D03*
X88248500Y39850000D03*
G04 #@! TD*
D26*
G04 #@! TO.C,D4*
X78285000Y15640000D03*
X76405000Y15640000D03*
G04 #@! TD*
D27*
G04 #@! TO.C,L2*
X36295000Y42365000D03*
X36295000Y44465000D03*
G04 #@! TD*
D28*
G04 #@! TO.C,R8*
X47845000Y48140000D03*
X47845000Y47140000D03*
G04 #@! TD*
D29*
G04 #@! TO.C,TP1*
X59220000Y39765000D03*
G04 #@! TD*
D11*
G04 #@! TO.C,J9*
X71395000Y16040000D03*
D12*
X68855000Y16040000D03*
X66315000Y16040000D03*
G04 #@! TD*
D30*
G04 #@! TO.C,D7*
X33345000Y8450000D03*
X33345000Y10330000D03*
G04 #@! TD*
D11*
G04 #@! TO.C,J2*
X91945000Y51815000D03*
D12*
X91945000Y49275000D03*
X91945000Y46735000D03*
X91945000Y44195000D03*
X91945000Y41655000D03*
X91945000Y39115000D03*
X91945000Y36575000D03*
X91945000Y34035000D03*
G04 #@! TD*
D29*
G04 #@! TO.C,TP3*
X62970000Y39640000D03*
G04 #@! TD*
D11*
G04 #@! TO.C,J5*
X3655000Y53680000D03*
D12*
X3655000Y51140000D03*
X3655000Y48600000D03*
X3655000Y46060000D03*
G04 #@! TD*
D31*
G04 #@! TO.C,C9*
X57045000Y39140000D03*
X55145000Y39140000D03*
G04 #@! TD*
D29*
G04 #@! TO.C,TP2*
X52470000Y33865000D03*
G04 #@! TD*
D31*
G04 #@! TO.C,C10*
X57045000Y37090000D03*
X55145000Y37090000D03*
G04 #@! TD*
D11*
G04 #@! TO.C,J6*
X32695000Y82450000D03*
D12*
X32695000Y79910000D03*
X32695000Y77370000D03*
X32695000Y74830000D03*
X32695000Y72290000D03*
G04 #@! TD*
D32*
G04 #@! TO.C,U2*
X15185000Y79920000D03*
D33*
X15185000Y77380000D03*
X15185000Y74840000D03*
X15185000Y72300000D03*
X15185000Y69760000D03*
X15185000Y67220000D03*
X15185000Y64680000D03*
X15185000Y62140000D03*
X22805000Y62140000D03*
X22805000Y64680000D03*
X22805000Y67220000D03*
X22805000Y69760000D03*
X22805000Y72300000D03*
X22805000Y74840000D03*
X22805000Y77380000D03*
X22805000Y79920000D03*
G04 #@! TD*
D34*
G04 #@! TO.C,L1*
X56970000Y27540000D03*
X61170000Y27540000D03*
G04 #@! TD*
D35*
G04 #@! TO.C,R2*
X59220000Y12060000D03*
X59220000Y10240000D03*
G04 #@! TD*
D36*
G04 #@! TO.C,S2*
X89073500Y32580000D03*
X84923500Y32580000D03*
G04 #@! TD*
D22*
G04 #@! TO.C,H2*
X89320000Y3290000D03*
G04 #@! TD*
D37*
G04 #@! TO.C,R9*
X46845000Y47140000D03*
X46845000Y48140000D03*
G04 #@! TD*
D11*
G04 #@! TO.C,J8*
X47475000Y34590000D03*
D12*
X44935000Y34590000D03*
X42395000Y34590000D03*
G04 #@! TD*
D38*
G04 #@! TO.C,C6*
X48995000Y48110000D03*
X48995000Y47470000D03*
G04 #@! TD*
D39*
G04 #@! TO.C,D5*
X78135000Y13140000D03*
X76555000Y13140000D03*
G04 #@! TD*
D40*
G04 #@! TO.C,U4*
X57240000Y32785000D03*
X58190000Y32785000D03*
X59140000Y32785000D03*
X59140000Y35095000D03*
X58190000Y35095000D03*
X57240000Y35095000D03*
G04 #@! TD*
D41*
G04 #@! TO.C,S1*
X51845000Y79390000D03*
X51845000Y69390000D03*
G04 #@! TD*
D42*
G04 #@! TO.C,R12*
X62595000Y36890000D03*
X61595000Y36890000D03*
G04 #@! TD*
D11*
G04 #@! TO.C,J14*
X97950000Y30265000D03*
D12*
X97950000Y27725000D03*
X97950000Y25185000D03*
X97950000Y22645000D03*
X97950000Y20105000D03*
X97950000Y17565000D03*
X97950000Y15025000D03*
X97950000Y12485000D03*
G04 #@! TD*
D22*
G04 #@! TO.C,H1*
X13970000Y98000000D03*
G04 #@! TD*
D43*
G04 #@! TO.C,J11*
X86400000Y82845000D03*
D44*
X86400000Y87925000D03*
G04 #@! TD*
D32*
G04 #@! TO.C,U3*
X15285000Y56140000D03*
D33*
X15285000Y53600000D03*
X15285000Y51060000D03*
X15285000Y48520000D03*
X15285000Y45980000D03*
X15285000Y43440000D03*
X15285000Y40900000D03*
X15285000Y38360000D03*
X22905000Y38360000D03*
X22905000Y40900000D03*
X22905000Y43440000D03*
X22905000Y45980000D03*
X22905000Y48520000D03*
X22905000Y51060000D03*
X22905000Y53600000D03*
X22905000Y56140000D03*
G04 #@! TD*
D45*
G04 #@! TO.C,D1*
X84498500Y48930000D03*
X84498500Y51730000D03*
G04 #@! TD*
D15*
G04 #@! TO.C,H5*
X91875000Y7150000D03*
X92465000Y8560000D03*
X92465000Y5740000D03*
X93875000Y9150000D03*
D46*
X93875000Y7150000D03*
D15*
X93875000Y5150000D03*
X95285000Y8560000D03*
X95285000Y5740000D03*
X95875000Y7150000D03*
G04 #@! TD*
D32*
G04 #@! TO.C,A1*
X44635000Y30890000D03*
D33*
X42095000Y30890000D03*
X39555000Y30890000D03*
X37015000Y30890000D03*
X34475000Y30890000D03*
X31935000Y30890000D03*
X29395000Y30890000D03*
X26855000Y30890000D03*
X24315000Y30890000D03*
X21775000Y30890000D03*
X19235000Y30890000D03*
X16695000Y30890000D03*
X14155000Y30890000D03*
X11615000Y30890000D03*
X9075000Y30890000D03*
X9075000Y15650000D03*
X11615000Y15650000D03*
X14155000Y15650000D03*
X16695000Y15650000D03*
X19235000Y15650000D03*
X21775000Y15650000D03*
X24315000Y15650000D03*
X26855000Y15650000D03*
X29395000Y15650000D03*
X31935000Y15650000D03*
X34475000Y15650000D03*
X37015000Y15650000D03*
X39555000Y15650000D03*
X42095000Y15650000D03*
X44635000Y15650000D03*
G04 #@! TD*
D47*
G04 #@! TO.C,R5*
X36955000Y6915000D03*
X38595000Y6915000D03*
G04 #@! TD*
D48*
G04 #@! TO.C,F2*
X61131950Y21463000D03*
X66031950Y21463000D03*
G04 #@! TD*
D13*
G04 #@! TO.C,R11*
X56395000Y51770000D03*
X56395000Y53410000D03*
G04 #@! TD*
D49*
G04 #@! TO.C,C7*
X34870000Y39590000D03*
X31920000Y39590000D03*
G04 #@! TD*
D11*
G04 #@! TO.C,J1*
X3655000Y74970000D03*
D12*
X3655000Y72430000D03*
X3655000Y69890000D03*
X3655000Y67350000D03*
G04 #@! TD*
D29*
G04 #@! TO.C,TP7*
X31795000Y44590000D03*
G04 #@! TD*
D35*
G04 #@! TO.C,R1*
X64920000Y10775000D03*
X64920000Y8955000D03*
G04 #@! TD*
D43*
G04 #@! TO.C,J12*
X86400000Y71595000D03*
D44*
X86400000Y76675000D03*
G04 #@! TD*
D50*
G04 #@! TO.C,U5*
X66595000Y49580000D03*
X66595000Y50850000D03*
X66595000Y52120000D03*
X66595000Y53390000D03*
X61083200Y53390000D03*
X61083200Y52120000D03*
X61083200Y50850000D03*
X61083200Y49580000D03*
G04 #@! TD*
D29*
G04 #@! TO.C,TP4*
X50195000Y45390000D03*
G04 #@! TD*
D13*
G04 #@! TO.C,RL1*
X25235000Y78280000D03*
X25235000Y79920000D03*
G04 #@! TD*
D47*
G04 #@! TO.C,R7*
X44025000Y46140000D03*
X45665000Y46140000D03*
G04 #@! TD*
D29*
G04 #@! TO.C,TP8*
X55195000Y48190000D03*
G04 #@! TD*
D10*
G04 #@! TO.C,C2*
X60815000Y11115000D03*
X62375000Y11115000D03*
G04 #@! TD*
D15*
G04 #@! TO.C,H6*
X92605000Y95400000D03*
X93195000Y96810000D03*
X93195000Y93990000D03*
X94605000Y97400000D03*
D46*
X94605000Y95400000D03*
D15*
X94605000Y93400000D03*
X96015000Y96810000D03*
X96015000Y93990000D03*
X96605000Y95400000D03*
G04 #@! TD*
G04 #@! TO.C,H7*
X4655000Y95375000D03*
X5245000Y96785000D03*
X5245000Y93965000D03*
X6655000Y97375000D03*
D46*
X6655000Y95375000D03*
D15*
X6655000Y93375000D03*
X8065000Y96785000D03*
X8065000Y93965000D03*
X8655000Y95375000D03*
G04 #@! TD*
D13*
G04 #@! TO.C,RL4*
X25235000Y63000000D03*
X25235000Y64640000D03*
G04 #@! TD*
D26*
G04 #@! TO.C,D3*
X78225000Y18140000D03*
X76345000Y18140000D03*
G04 #@! TD*
D10*
G04 #@! TO.C,C4*
X60815000Y33140000D03*
X62375000Y33140000D03*
G04 #@! TD*
D51*
G04 #@! TO.C,F1*
X70595000Y81770000D03*
X70595000Y59270000D03*
D52*
X78215000Y67980000D03*
X78215000Y73060000D03*
D53*
X62975000Y69250000D03*
X62975000Y71790000D03*
D54*
X70595000Y62900000D03*
X70595000Y78140000D03*
G04 #@! TD*
D55*
G04 #@! TO.C,R6*
X81325000Y27560000D03*
D33*
X94025000Y27560000D03*
G04 #@! TD*
D56*
G04 #@! TO.C,D2*
X71795000Y87390000D03*
X78595000Y87390000D03*
G04 #@! TD*
D57*
G04 #@! TO.C,U1*
X40207500Y47090000D03*
X40207500Y46140000D03*
X40207500Y45190000D03*
X42482500Y45190000D03*
X42482500Y46140000D03*
X42482500Y47090000D03*
G04 #@! TD*
D15*
G04 #@! TO.C,H4*
X4595000Y7390000D03*
X5185000Y8800000D03*
X5185000Y5980000D03*
X6595000Y9390000D03*
D46*
X6595000Y7390000D03*
D15*
X6595000Y5390000D03*
X8005000Y8800000D03*
X8005000Y5980000D03*
X8595000Y7390000D03*
G04 #@! TD*
D11*
G04 #@! TO.C,J4*
X82055000Y54890000D03*
D12*
X84595000Y54890000D03*
G04 #@! TD*
D42*
G04 #@! TO.C,C12*
X43095000Y48390000D03*
X42095000Y48390000D03*
G04 #@! TD*
D11*
G04 #@! TO.C,J15*
X41555000Y3890000D03*
D12*
X44095000Y3890000D03*
X46635000Y3890000D03*
X49175000Y3890000D03*
G04 #@! TD*
D37*
G04 #@! TO.C,R4*
X60595000Y36890000D03*
X60595000Y37890000D03*
G04 #@! TD*
D58*
G04 #@! TO.C,C11*
X54995000Y34940000D03*
X54995000Y33040000D03*
G04 #@! TD*
D43*
G04 #@! TO.C,J13*
X86400000Y60345000D03*
D44*
X86400000Y65425000D03*
G04 #@! TD*
D35*
G04 #@! TO.C,R3*
X57220000Y12060000D03*
X57220000Y10240000D03*
G04 #@! TD*
D11*
G04 #@! TO.C,J3*
X71395000Y5315000D03*
D12*
X73935000Y5315000D03*
G04 #@! TD*
D13*
G04 #@! TO.C,RL6*
X25295000Y49450000D03*
X25295000Y51090000D03*
G04 #@! TD*
G04 #@! TO.C,RL7*
X25295000Y44370000D03*
X25295000Y46010000D03*
G04 #@! TD*
D59*
G04 #@! TO.C,K2*
X84385000Y45140000D03*
X81845000Y45140000D03*
X74225000Y45140000D03*
X66605000Y45140000D03*
X81845000Y37520000D03*
X84385000Y37520000D03*
G04 #@! TD*
M02*
